<svg width="406" height="536" viewBox="0 0 406 536" fill="none" xmlns="http://www.w3.org/2000/svg">
<path d="M205.147 526.323C313.31 526.323 400.993 410.891 400.993 268.5C400.993 126.108 313.31 10.6768 205.147 10.6768C96.984 10.6768 9.30078 126.108 9.30078 268.5C9.30078 410.891 96.984 526.323 205.147 526.323Z" fill="#009B90"/>
<path d="M205.147 531.281C94.4218 531.281 4.34277 413.4 4.34277 268.5C4.34277 123.603 94.4218 5.71875 205.147 5.71875C315.872 5.71875 405.951 123.603 405.951 268.5C405.951 413.399 315.872 531.281 205.147 531.281ZM205.147 15.6359C99.8928 15.6359 14.2588 129.07 14.2588 268.5C14.2588 407.928 99.8928 521.365 205.147 521.365C310.401 521.365 396.035 407.928 396.035 268.5C396.035 129.07 310.4 15.6359 205.147 15.6359Z" fill="#034C54"/>
<path d="M205.147 451.951C280.45 451.951 341.495 369.817 341.495 268.5C341.495 167.183 280.45 85.0488 205.147 85.0488C129.844 85.0488 68.7988 167.183 68.7988 268.5C68.7988 369.817 129.844 451.951 205.147 451.951Z" fill="white"/>
<path d="M205.147 456.909C127.231 456.909 63.8398 372.388 63.8398 268.5C63.8398 164.612 127.23 80.0908 205.147 80.0908C283.064 80.0908 346.454 164.612 346.454 268.5C346.453 372.388 283.063 456.909 205.147 456.909ZM205.147 90.0068C132.697 90.0068 73.7568 170.078 73.7568 268.5C73.7568 366.922 132.698 446.993 205.147 446.993C277.596 446.993 336.537 366.922 336.537 268.5C336.537 170.078 277.596 90.0068 205.147 90.0068Z" fill="#034C54"/>
<path d="M34.876 188.586L38.677 177.631C39.718 174.639 40.691 172.622 41.611 171.579C42.526 170.538 43.751 169.814 45.291 169.412C46.831 169.01 48.39 169.085 49.963 169.632C51.42 170.136 52.612 170.951 53.536 172.075C54.456 173.198 55.003 174.428 55.168 175.765C56.253 174.327 57.589 173.366 59.167 172.889C60.745 172.41 62.445 172.487 64.256 173.114C66.449 173.877 68.105 175.106 69.214 176.799C70.328 178.494 70.783 180.198 70.589 181.914C70.449 183.107 69.679 185.722 68.279 189.755L65.049 199.061L34.876 188.586ZM41.809 184.824L48.786 187.245L50.05 183.606C50.81 181.422 51.241 180.059 51.352 179.519C51.541 178.531 51.434 177.672 51.037 176.938C50.64 176.204 49.938 175.665 48.936 175.316C48.045 175.006 47.246 174.972 46.539 175.21C45.832 175.45 45.304 175.854 44.956 176.42C44.607 176.987 43.925 178.725 42.913 181.637L41.809 184.824ZM53.808 188.988L61.855 191.782L63.637 186.654C64.417 184.405 64.814 182.926 64.823 182.214C64.833 181.5 64.6 180.82 64.131 180.171C63.656 179.522 62.94 179.031 61.981 178.699C60.998 178.355 60.107 178.307 59.308 178.549C58.509 178.791 57.86 179.256 57.352 179.939C56.848 180.624 56.185 182.152 55.362 184.522L53.808 188.988Z" fill="#034C54"/>
<path d="M45.1741 152.333L40.4771 149.987L42.6071 145.721L47.304 148.067L45.1741 152.333ZM48.9751 144.726L44.2781 142.38L46.4081 138.114L51.1051 140.46L48.9751 144.726ZM45.9831 158.279L48.5831 153.067L64.063 160.795C66.469 161.996 68.067 162.715 68.856 162.947C70.231 163.346 71.4801 163.284 72.6091 162.756C73.7321 162.231 74.6471 161.253 75.3591 159.829C75.9641 158.619 76.2111 157.512 76.1051 156.505C75.9981 155.5 75.5871 154.641 74.8611 153.929C74.1351 153.215 72.3531 152.15 69.5061 150.728L53.6971 142.831L56.3021 137.619L71.3121 145.114C75.1421 147.029 77.805 148.639 79.287 149.944C80.769 151.251 81.6451 152.963 81.9111 155.079C82.1771 157.195 81.6591 159.553 80.3621 162.151C79.0161 164.853 77.5251 166.741 75.8881 167.818C74.2561 168.895 72.4701 169.377 70.5381 169.263C68.6061 169.152 65.5021 168.028 61.2271 165.893L45.9831 158.279Z" fill="#034C54"/>
<path d="M91.7491 141.232L80.6421 133.657L59.3911 131.991L63.2451 126.34L77.5141 127.836L70.8561 115.177L74.6421 109.628L83.9581 128.865L95.0361 136.418L91.7491 141.232Z" fill="#034C54"/>
<path d="M79.6541 98.7012L75.8101 95.1251L79.0591 91.6322L82.9031 95.2081L79.6541 98.7012ZM78.748 104.633L82.718 100.365L95.3891 112.148C97.3551 113.976 98.6861 115.116 99.3791 115.564C100.589 116.334 101.805 116.627 103.03 116.438C104.26 116.249 105.412 115.571 106.497 114.404C107.417 113.416 107.969 112.424 108.153 111.426C108.332 110.431 108.177 109.489 107.683 108.603C107.189 107.714 105.775 106.187 103.446 104.023L90.5081 91.9882L94.4741 87.7202L106.763 99.1442C109.901 102.064 111.997 104.359 113.053 106.029C114.104 107.699 114.462 109.588 114.123 111.694C113.779 113.798 112.622 115.916 110.642 118.044C108.584 120.254 106.623 121.644 104.749 122.218C102.88 122.789 101.03 122.751 99.2101 122.097C97.3901 121.443 94.7261 119.49 91.2261 116.236L78.748 104.633ZM85.4451 92.4741L81.6001 88.8982L84.8441 85.4072L88.688 88.9832L85.4451 92.4741Z" fill="#034C54"/>
<path d="M121.454 106.153L102.28 80.605L106.943 77.1069L115.479 88.481L116.409 70.0039L122.708 65.2759L121.449 81.7849L142.342 90.476L136.294 95.0179L120.897 87.8059L120.321 94.9359L126.117 102.656L121.454 106.153Z" fill="#034C54"/>
<path d="M176.168 76.121L170.261 78.4039L165.288 72.5669L154.476 76.741L154.849 84.3529L149.053 86.59L148.065 52.73L153.841 50.5029L176.168 76.121ZM161.589 68.204L153.59 58.585L154.2 71.0549L161.589 68.204Z" fill="#034C54"/>
<path d="M173.219 44.4091L184.704 42.8161C187.842 42.3801 190.083 42.3341 191.425 42.6761C192.771 43.0171 193.972 43.7801 195.032 44.9691C196.088 46.1581 196.732 47.5791 196.959 49.2321C197.172 50.7571 196.988 52.1882 196.407 53.5222C195.831 54.8562 194.979 55.9022 193.865 56.6572C195.642 56.9672 197.099 57.7172 198.247 58.9082C199.39 60.0992 200.092 61.6441 200.358 63.5421C200.678 65.8441 200.334 67.8762 199.332 69.6362C198.33 71.3962 197.018 72.5801 195.4 73.1851C194.272 73.6041 191.594 74.1071 187.367 74.6961L177.611 76.0492L173.219 44.4091ZM179.722 48.8751L180.739 56.1911L184.554 55.6611C186.844 55.3441 188.253 55.1111 188.786 54.9641C189.75 54.6831 190.471 54.1991 190.941 53.5091C191.415 52.8211 191.575 51.9522 191.43 50.9022C191.299 49.9652 190.97 49.2391 190.437 48.7181C189.9 48.1971 189.304 47.9122 188.636 47.8562C187.973 47.8032 186.113 47.9871 183.063 48.4101L179.722 48.8751ZM181.47 61.4571L182.642 69.8941L188.017 69.1482C190.375 68.8212 191.876 68.4992 192.515 68.1842C193.149 67.8692 193.653 67.3542 194.016 66.6372C194.379 65.9202 194.491 65.0611 194.35 64.0561C194.21 63.0221 193.846 62.2062 193.27 61.6062C192.689 61.0062 191.982 60.6382 191.14 60.4972C190.302 60.3572 188.642 60.4612 186.153 60.8042L181.47 61.4571Z" fill="#034C54"/>
<path d="M230.819 75.288L224.51 74.6749L222.689 67.2279L211.156 66.1069L208.072 73.075L201.889 72.475L216.202 41.7749L222.361 42.3729L230.819 75.288ZM221.338 61.6699L218.505 49.485L213.455 60.902L221.338 61.6699Z" fill="#034C54"/>
<path d="M231.995 75.908L242.279 45.668L247.658 47.4979L252.006 71.5089L258.877 51.3129L264.029 53.0659L253.745 83.3059L248.182 81.4149L243.853 57.9409L237.147 77.6599L231.995 75.908Z" fill="#034C54"/>
<path d="M263.569 88.7649L276.933 65.8359L269.505 61.507L272.226 56.8389L292.092 68.4209L289.371 73.0889L281.968 68.772L268.599 91.699L263.569 88.7649Z" fill="#034C54"/>
<path d="M296.688 91.9538C299.366 89.2518 302.014 87.4627 304.629 86.5917C307.249 85.7177 309.694 85.5607 311.969 86.1177C314.24 86.6747 316.394 87.9577 318.423 89.9717C321.362 92.8867 322.752 96.2787 322.592 100.15C322.427 104.019 320.486 107.829 316.762 111.584C313 115.38 309.078 117.375 305.001 117.566C301.408 117.745 298.135 116.372 295.182 113.446C292.209 110.495 290.786 107.234 290.916 103.66C291.071 99.5797 292.994 95.6768 296.688 91.9538ZM301.114 96.0378C298.528 98.6478 297.134 101.149 296.94 103.541C296.742 105.933 297.453 107.93 299.075 109.538C300.707 111.158 302.702 111.852 305.06 111.622C307.413 111.39 309.921 109.935 312.579 107.252C315.189 104.62 316.593 102.158 316.796 99.8658C316.999 97.5708 316.259 95.5857 314.569 93.9097C312.879 92.2337 310.87 91.5057 308.551 91.7217C306.232 91.9377 303.752 93.3748 301.114 96.0378Z" fill="#034C54"/>
<path d="M311.286 130.997L332.658 115.268L327.559 108.344L331.912 105.141L345.547 123.664L341.194 126.867L336.11 119.962L314.738 135.691L311.286 130.997Z" fill="#034C54"/>
<path d="M321.266 145.012L349.199 129.523L359.614 148.31L354.888 150.93L347.301 137.242L341.108 140.675L348.158 153.395L343.452 156.005L336.402 143.285L328.815 147.49L336.664 161.643L331.938 164.263L321.266 145.012Z" fill="#034C54"/>
<path d="M333.603 168.091L362.921 156.086L365.129 161.48L340.813 171.437L346.323 184.897L341.321 186.943L333.603 168.091Z" fill="#034C54"/>
<path d="M342.183 190.23L372.59 180.44L374.377 185.986L343.97 195.776L342.183 190.23ZM375.345 179.755L380.86 177.978L382.535 183.183L377.02 184.958L375.345 179.755Z" fill="#034C54"/>
<path d="M47.6918 371.977L46.2058 366.52L51.0428 362.857L48.3268 352.875L42.3379 352.292L40.8809 346.939L67.4969 350.127L68.9449 355.46L47.6918 371.977ZM54.6548 360.133L62.6148 354.269L52.7998 353.313L54.6548 360.133Z" fill="#034C54"/>
<path d="M72.2749 366.733L76.2939 376.272C77.3879 378.877 77.9739 380.787 78.0469 382.002C78.1149 383.22 77.8289 384.389 77.1899 385.517C76.5509 386.643 75.6309 387.459 74.4299 387.962C73.3309 388.427 72.2029 388.536 71.0459 388.286C69.8939 388.039 68.8959 387.506 68.0489 386.691C68.2479 388.269 68.0389 389.659 67.4149 390.862C66.7949 392.063 65.7979 392.954 64.4229 393.532C62.7569 394.234 61.1349 394.319 59.5569 393.786C57.9789 393.253 56.7579 392.35 55.9059 391.079C55.3099 390.193 54.2739 387.992 52.7929 384.479L49.3789 376.376L72.2749 366.733ZM61.3799 376.969L55.2689 379.542L57.1529 384.009C57.9759 385.965 58.5859 387.19 58.9829 387.677C59.3799 388.166 59.8929 388.498 60.5229 388.677C61.1529 388.856 61.8349 388.791 62.5609 388.486C63.3069 388.169 63.8389 387.709 64.1489 387.101C64.4639 386.496 64.5699 385.818 64.4689 385.075C64.3719 384.329 63.8879 382.925 63.0159 380.86L61.3799 376.969ZM70.4829 373.134L65.1909 375.364L66.5229 378.533C67.3269 380.436 67.8449 381.6 68.0869 382.026C68.5369 382.801 69.0799 383.326 69.7189 383.602C70.3529 383.878 71.0549 383.856 71.8159 383.537C72.4889 383.251 72.9639 382.832 73.2249 382.278C73.4859 381.724 73.5589 381.157 73.4379 380.578C73.3169 379.999 72.7209 378.443 71.6509 375.906L70.4829 373.134Z" fill="#034C54"/>
<path d="M72.7347 422.217L69.8397 417.361L73.5097 412.534L68.2177 403.649L62.2867 404.695L59.4497 399.93L85.9447 395.853L88.7727 400.603L72.7347 422.217ZM76.2597 408.94L82.3557 401.154L72.6427 402.868L76.2597 408.94Z" fill="#034C54"/>
<path d="M75.771 426.25L95.042 410.572L98.243 414.509L92.055 433.184L104.92 422.711L107.99 426.478L88.719 442.161L85.407 438.089L91.406 419.796L78.841 430.022L75.771 426.25Z" fill="#034C54"/>
<path d="M98.2271 451.529L112.24 436.374L106.604 431.164L109.456 428.075L124.534 442.015L121.682 445.099L116.061 439.904L102.048 455.064L98.2271 451.529Z" fill="#034C54"/>
<path d="M158.316 462.375L168.145 465.614C170.832 466.5 172.653 467.313 173.616 468.059C174.58 468.805 175.272 469.788 175.703 471.013C176.129 472.238 176.139 473.468 175.732 474.698C175.359 475.836 174.696 476.761 173.752 477.463C172.808 478.17 171.752 478.572 170.581 478.678C171.903 479.564 172.808 480.634 173.307 481.893C173.806 483.152 173.82 484.488 173.351 485.907C172.785 487.621 171.782 488.899 170.344 489.742C168.906 490.58 167.424 490.904 165.904 490.715C164.848 490.58 162.51 489.916 158.888 488.72L150.536 485.97L158.316 462.375ZM158.868 477.313L156.796 483.607L161.396 485.123C163.415 485.786 164.737 486.135 165.366 486.154C165.991 486.178 166.581 486.009 167.128 485.65C167.68 485.292 168.077 484.74 168.324 483.989C168.581 483.219 168.581 482.517 168.329 481.883C168.077 481.249 167.637 480.721 167.007 480.309C166.382 479.893 165.007 479.336 162.877 478.634L158.868 477.313ZM161.962 467.929L160.166 473.386L163.429 474.461C165.39 475.11 166.61 475.483 167.089 475.58C167.97 475.749 168.721 475.686 169.35 475.391C169.975 475.091 170.42 474.548 170.677 473.764C170.905 473.067 170.9 472.437 170.653 471.876C170.411 471.314 170.028 470.888 169.515 470.598C168.997 470.307 167.433 469.736 164.818 468.874L161.962 467.929Z" fill="#034C54"/>
<path d="M178.768 482.077C179.131 479.143 179.978 476.79 181.315 475.022C182.651 473.26 184.264 472.02 186.157 471.308C188.05 470.591 190.258 470.393 192.79 470.703C196.46 471.153 199.317 472.625 201.36 475.119C203.398 477.613 204.168 480.9 203.67 484.982C203.162 489.107 201.544 492.182 198.809 494.201C196.412 495.988 193.372 496.656 189.687 496.206C185.973 495.751 183.165 494.376 181.267 492.086C179.107 489.461 178.274 486.125 178.768 482.077ZM184.123 482.566C183.774 485.403 184.2 487.616 185.392 489.199C186.588 490.787 188.195 491.702 190.219 491.949C192.253 492.201 194.03 491.707 195.54 490.463C197.05 489.219 197.985 487.141 198.343 484.227C198.696 481.365 198.304 479.172 197.166 477.642C196.033 476.117 194.411 475.221 192.3 474.964C190.194 474.703 188.393 475.182 186.896 476.402C185.406 477.618 184.481 479.671 184.123 482.566Z" fill="#034C54"/>
<path d="M209.161 497.135L207.699 472.538L212.89 472.228L214.105 492.632L227.067 491.862L227.314 496.055L209.161 497.135Z" fill="#034C54"/>
<path d="M227.967 470.984L233.027 469.773L236.169 482.856C236.658 484.89 237.036 486.197 237.312 486.783C237.791 487.795 238.522 488.487 239.505 488.87C240.488 489.248 241.674 489.272 243.054 488.938C244.231 488.657 245.136 488.221 245.78 487.631C246.419 487.045 246.787 486.353 246.884 485.554C246.981 484.76 246.744 483.157 246.163 480.751L242.958 467.387L248.013 466.172L251.063 478.863C251.838 482.102 252.181 484.499 252.089 486.048C251.997 487.597 251.29 489.006 249.963 490.27C248.636 491.534 246.714 492.473 244.191 493.078C241.572 493.707 239.436 493.824 237.79 493.436C236.139 493.049 234.827 492.259 233.839 491.073C232.856 489.887 231.926 487.485 231.06 483.873L227.967 470.984Z" fill="#034C54"/>
<path d="M304.895 463.111L292.001 446.992L286.007 451.786L283.383 448.503L299.419 435.682L302.043 438.965L296.068 443.744L308.957 459.863L304.895 463.111Z" fill="#034C54"/>
<path d="M300.842 434.355L304.386 430.549L314.234 439.715C315.764 441.138 316.805 442.02 317.357 442.354C318.316 442.935 319.308 443.109 320.34 442.882C321.371 442.654 322.369 442.02 323.337 440.979C324.16 440.098 324.678 439.231 324.886 438.384C325.094 437.541 325.017 436.757 324.658 436.04C324.3 435.323 323.215 434.123 321.404 432.438L311.342 423.074L314.886 419.263L324.439 428.158C326.874 430.429 328.487 432.235 329.266 433.576C330.046 434.917 330.234 436.481 329.828 438.268C329.426 440.055 328.337 441.899 326.569 443.798C324.734 445.769 323.025 447.052 321.437 447.638C319.849 448.224 318.314 448.296 316.837 447.851C315.36 447.406 313.264 445.919 310.543 443.387L300.842 434.355Z" fill="#034C54"/>
<path d="M337.927 430.118L317.426 416.081L323.633 407.017C325.221 404.703 326.538 403.173 327.584 402.432C328.635 401.691 329.831 401.314 331.177 401.294C332.523 401.279 333.83 401.706 335.099 402.572C336.702 403.671 337.66 405.041 337.97 406.688C338.28 408.335 337.946 410.14 336.968 412.111C338.12 411.549 339.215 411.176 340.246 410.997C341.277 410.818 342.953 410.755 345.272 410.813L351.044 410.963L347.524 416.1L340.934 416.158C338.552 416.177 337.022 416.245 336.339 416.371C335.661 416.497 335.09 416.729 334.625 417.073C334.165 417.417 333.594 418.085 332.916 419.082L332.306 419.968L340.866 425.827L337.927 430.118ZM329.032 417.728L331.221 414.537C332.557 412.586 333.342 411.298 333.569 410.673C333.797 410.048 333.821 409.429 333.637 408.814C333.453 408.204 333.022 407.666 332.339 407.202C331.69 406.752 331.051 406.558 330.426 406.621C329.806 406.679 329.225 406.94 328.688 407.405C328.31 407.739 327.458 408.867 326.141 410.794L323.831 414.164L329.032 417.728Z" fill="#034C54"/>
<path d="M353.435 406.5L331.162 395.494L333.467 390.829L343.383 395.731L338.149 381.358L341.262 375.056L345.625 388.081L363.763 385.602L360.776 391.654L347.151 392.872L349.01 398.51L355.74 401.836L353.435 406.5Z" fill="#034C54"/>
<path d="M365.317 381.239L341.809 373.213L348.002 355.065L351.977 356.423L347.464 369.646L352.679 371.425L356.872 359.136L360.833 360.489L356.64 372.778L363.022 374.957L367.69 361.286L371.665 362.642L365.317 381.239Z" fill="#034C54"/>
<path d="M374.682 349.873L364.446 347.721L348.424 354.018L349.678 348.043L360.543 344.123L352.162 336.24L353.397 330.372L365.55 342.637L375.752 344.782L374.682 349.873Z" fill="#034C54"/>
<path d="M208.297 90.5239L105.416 371.898H311.178L266.555 256.621L159.956 241.747L247.962 215.717L246.723 194.644L181.028 187.207L231.848 162.417L208.297 90.5239Z" fill="#034C54"/>
<path d="M207.678 371.794C225.876 371.794 240.629 357.041 240.629 338.843C240.629 320.645 225.876 305.892 207.678 305.892C189.48 305.892 174.727 320.645 174.727 338.843C174.727 357.041 189.48 371.794 207.678 371.794Z" fill="#009B90"/>
<path d="M207.679 374.274C188.142 374.274 172.246 358.38 172.246 338.843C172.246 319.306 188.142 303.412 207.679 303.412C227.216 303.412 243.107 319.306 243.107 338.843C243.107 358.381 227.216 374.274 207.679 374.274ZM207.679 308.371C190.873 308.371 177.204 322.04 177.204 338.844C177.204 355.648 190.873 369.317 207.679 369.317C224.48 369.317 238.149 355.648 238.149 338.844C238.149 322.04 224.48 308.371 207.679 308.371Z" fill="white"/>
<path d="M128.296 469.854C131.719 469.854 134.494 467.079 134.494 463.656C134.494 460.233 131.719 457.458 128.296 457.458C124.873 457.458 122.098 460.233 122.098 463.656C122.098 467.079 124.873 469.854 128.296 469.854Z" fill="#034C54"/>
<path d="M277.04 476.051C280.463 476.051 283.238 473.276 283.238 469.853C283.238 466.43 280.463 463.655 277.04 463.655C273.617 463.655 270.842 466.43 270.842 469.853C270.842 473.276 273.617 476.051 277.04 476.051Z" fill="#034C54"/>
<path d="M25.0682 263.73H20.4632C19.6162 263.73 18.9282 264.415 18.9282 265.26C18.9282 266.105 19.6162 266.789 20.4632 266.789H25.0682C25.9162 266.789 26.6032 266.105 26.6032 265.26C26.6032 264.415 25.9162 263.73 25.0682 263.73ZM29.5812 270.592C32.5492 275.714 39.1202 277.47 44.2602 274.512C49.3992 271.555 51.1602 265.003 48.1932 259.88C45.2262 254.758 38.6532 253.002 33.5142 255.96C28.3742 258.918 26.6142 265.469 29.5812 270.592ZM27.6742 257.07L23.6862 254.775C22.9522 254.353 22.0132 254.603 21.5882 255.335C21.1652 256.067 21.4162 257.003 22.1512 257.425L26.1392 259.72C26.8732 260.142 27.8122 259.892 28.2362 259.16C28.6602 258.428 28.4082 257.492 27.6742 257.07ZM33.3092 252.545L31.0062 248.57C30.5822 247.838 29.6432 247.588 28.9092 248.01C28.1752 248.432 27.9232 249.369 28.3462 250.1L30.6492 254.075C31.0732 254.807 32.0112 255.058 32.7462 254.635C33.4812 254.213 33.7322 253.277 33.3092 252.545ZM40.7432 247.033C40.7432 246.188 40.0562 245.503 39.2082 245.503C38.3602 245.503 37.6732 246.188 37.6732 247.033V251.623C37.6732 252.468 38.3592 253.153 39.2082 253.153C40.0562 253.153 40.7432 252.468 40.7432 251.623V247.033ZM49.0462 248.318C48.3122 247.896 47.3732 248.146 46.9482 248.878L44.6462 252.855C44.2222 253.586 44.4732 254.523 45.2082 254.944C45.9422 255.366 46.8812 255.116 47.3052 254.384L49.6072 250.409C50.0312 249.676 49.7802 248.74 49.0462 248.318ZM51.6472 259.685L55.6352 257.39C56.3692 256.968 56.6212 256.032 56.1982 255.3C56.0922 255.116 55.9522 254.963 55.7932 254.843C55.3142 254.482 54.6472 254.419 54.0962 254.736L50.1082 257.031C49.3742 257.453 49.1222 258.39 49.5452 259.121C49.6512 259.305 49.7902 259.458 49.9522 259.578C50.4272 259.94 51.0942 260.003 51.6472 259.685ZM52.7162 266.759H57.3212C58.1692 266.759 58.8562 266.074 58.8562 265.229C58.8562 264.384 58.1692 263.699 57.3212 263.699H52.7162C51.8682 263.699 51.1812 264.384 51.1812 265.229C51.1812 266.074 51.8682 266.759 52.7162 266.759ZM50.0992 273.472L54.0872 275.767C54.8212 276.189 55.7602 275.939 56.1852 275.207C56.6082 274.475 56.3572 273.539 55.6222 273.117L51.6342 270.822C50.9002 270.4 49.9612 270.65 49.5372 271.382C49.1132 272.114 49.3642 273.049 50.0992 273.472ZM44.4662 277.928L46.7682 281.904C47.1922 282.635 48.1312 282.886 48.8652 282.464C49.5992 282.042 49.8512 281.106 49.4282 280.374L47.1262 276.399C46.7022 275.667 45.7632 275.416 45.0292 275.839C44.2932 276.26 44.0422 277.196 44.4662 277.928ZM37.6812 283.78C37.6812 284.625 38.3682 285.31 39.2162 285.31C40.0642 285.31 40.7512 284.625 40.7512 283.78V279.191C40.7512 278.345 40.0642 277.661 39.2162 277.661C38.3682 277.661 37.6812 278.345 37.6812 279.191V283.78ZM29.0852 282.796C29.8182 283.218 30.7572 282.968 31.1822 282.236L33.4842 278.26C33.9082 277.529 33.6562 276.592 32.9222 276.171C32.1882 275.749 31.2502 275.999 30.8252 276.731L28.5232 280.706C28.0992 281.438 28.3502 282.374 29.0852 282.796ZM21.6142 275.211C22.0372 275.943 22.9762 276.193 23.7112 275.771L27.6992 273.475C28.2522 273.157 28.5312 272.547 28.4542 271.952C28.4302 271.753 28.3652 271.555 28.2582 271.37C27.8352 270.639 26.8962 270.388 26.1612 270.81L22.1722 273.106C21.6192 273.424 21.3402 274.034 21.4172 274.629C21.4432 274.828 21.5072 275.025 21.6142 275.211Z" fill="white"/>
<path d="M364.285 268.534L357.238 267.1C357.099 267.072 356.96 267.058 356.823 267.058C355.859 267.058 354.997 267.735 354.797 268.715C354.569 269.835 355.292 270.928 356.412 271.156L358.625 271.607L356.364 272.835C355.359 273.38 354.987 274.637 355.533 275.642C356.078 276.646 357.335 277.019 358.34 276.473L360.934 275.065L360.056 277.625C359.685 278.706 360.261 279.883 361.342 280.254C362.423 280.624 363.6 280.049 363.971 278.968L366.31 272.146L371.271 269.452V273.148L366.582 278.447C365.824 279.303 365.904 280.611 366.76 281.369C367.616 282.127 368.924 282.046 369.682 281.191L371.271 279.396V283.014C371.271 284.157 372.198 285.084 373.341 285.084C374.484 285.084 375.411 284.157 375.411 283.014V279.325L377.106 281.27C377.857 282.131 379.164 282.222 380.026 281.47C380.888 280.719 380.977 279.412 380.226 278.55L375.41 273.024V269.365L379.879 271.791L382.086 278.39C382.449 279.474 383.622 280.059 384.705 279.696C385.789 279.333 386.374 278.161 386.011 277.077L385.212 274.687L388.784 276.627C389.789 277.172 391.045 276.8 391.591 275.795C392.136 274.79 391.764 273.534 390.76 272.988L387.388 271.158L389.792 270.688C390.914 270.468 391.645 269.381 391.426 268.259C391.233 267.271 390.367 266.586 389.397 266.586C389.265 266.586 389.131 266.599 388.997 266.625L381.678 268.057L377.758 265.929L381.063 264.135L388.344 265.617C389.464 265.845 390.557 265.122 390.785 264.002C391.013 262.882 390.29 261.789 389.17 261.561L386.722 261.063L390.768 258.866C391.773 258.321 392.145 257.064 391.599 256.059C391.224 255.368 390.513 254.976 389.778 254.976C389.444 254.976 389.106 255.057 388.792 255.227L384.722 257.437L385.526 255.091C385.897 254.01 385.321 252.833 384.24 252.462C384.018 252.386 383.791 252.349 383.569 252.349C382.709 252.349 381.906 252.889 381.611 253.748L379.345 260.355L375.409 262.492V257.074L380.215 251.56C380.966 250.698 380.876 249.391 380.015 248.64C379.623 248.298 379.138 248.131 378.656 248.131C378.078 248.131 377.504 248.371 377.095 248.841L375.41 250.775V247.799C375.41 246.656 374.483 245.729 373.34 245.729C372.197 245.729 371.27 246.656 371.27 247.799V250.728L369.671 248.921C368.913 248.065 367.606 247.985 366.749 248.743C365.893 249.501 365.813 250.808 366.571 251.665L371.27 256.975V262.407L366.535 259.836L364.353 253.314C364.063 252.448 363.256 251.9 362.39 251.9C362.172 251.9 361.951 251.935 361.733 252.008C360.649 252.371 360.064 253.543 360.427 254.628L361.201 256.941L358.33 255.382C358.016 255.212 357.678 255.131 357.344 255.131C356.61 255.131 355.898 255.523 355.523 256.214C354.977 257.219 355.35 258.475 356.354 259.021L359.135 260.531L356.646 261.018C355.524 261.237 354.793 262.325 355.012 263.447C355.231 264.569 356.319 265.301 357.441 265.081L364.845 263.632L369.081 265.932L364.285 268.534Z" fill="white"/>
</svg>
