<?xml version="1.0" encoding="UTF-8" standalone="no"?>
<!-- Created with Inkscape (http://www.inkscape.org/) -->

<svg
   xmlns:dc="http://purl.org/dc/elements/1.1/"
   xmlns:cc="http://creativecommons.org/ns#"
   xmlns:rdf="http://www.w3.org/1999/02/22-rdf-syntax-ns#"
   xmlns:svg="http://www.w3.org/2000/svg"
   xmlns="http://www.w3.org/2000/svg"
   xmlns:sodipodi="http://sodipodi.sourceforge.net/DTD/sodipodi-0.dtd"
   xmlns:inkscape="http://www.inkscape.org/namespaces/inkscape"
   width="305.35599"
   height="48.175999"
   viewBox="0 0 80.792105 12.746566"
   version="1.1"
   id="svg3520"
   inkscape:version="0.92.0 r15299"
   sodipodi:docname="medical park.svg">
  <defs
     id="defs3514" />
  <sodipodi:namedview
     id="base"
     pagecolor="#ffffff"
     bordercolor="#666666"
     borderopacity="1.0"
     inkscape:pageopacity="0.0"
     inkscape:pageshadow="2"
     inkscape:zoom="2.6437585"
     inkscape:cx="151.678"
     inkscape:cy="23.088"
     inkscape:document-units="mm"
     inkscape:current-layer="layer1"
     showgrid="false"
     fit-margin-top="0"
     fit-margin-left="0"
     fit-margin-right="0"
     fit-margin-bottom="0"
     units="px"
     inkscape:window-width="1280"
     inkscape:window-height="744"
     inkscape:window-x="-4"
     inkscape:window-y="-4"
     inkscape:window-maximized="1" />
  <metadata
     id="metadata3517">
    <rdf:RDF>
      <cc:Work
         rdf:about="">
        <dc:format>image/svg+xml</dc:format>
        <dc:type
           rdf:resource="http://purl.org/dc/dcmitype/StillImage" />
        <dc:title></dc:title>
      </cc:Work>
    </rdf:RDF>
  </metadata>
  <g
     inkscape:label="Layer 1"
     inkscape:groupmode="layer"
     id="layer1"
     transform="translate(-237.30305,-257.10024)">
    <g
       id="g3581"
       style="fill:#e30613;fill-opacity:1"
       transform="translate(0.26458219,-0.26457788)">
      <path
         id="path3522"
         d="m 297.40474,258.38928 v 0 2.78421 l -1.3589,2.83766 h 1.3589 v 1.41764 h -2.0402 l -1.29567,2.63922 h -1.61872 l 4.90882,-9.75572 z m 8.45106,2.04788 v 0 h -2.43073 v 3.38984 h 2.43073 v 1.39488 h -2.43073 v 2.84586 h -1.06654 l 0.91282,1.7788 h -1.61052 l -1.58009,-3.06838 -0.644,-1.34964 h -2.03226 v -1.41737 h 1.3499 l -1.3499,-2.83766 v -2.78421 l 4.60877,9.00351 v -8.36745 h 3.84202 v 1.41182 z m 2.43072,1.6637 c 0,-1.11125 -0.58261,-1.6637 -1.7563,-1.6637 h -0.67469 v -1.41182 h 0.49821 c 2.20134,0 3.3065,1.02103 3.3065,3.05938 0,1.51156 -0.57626,2.47729 -1.71847,2.89957 l 1.79467,3.08345 h -1.51871 l -1.64915,-2.84586 h -0.21484 -0.49821 V 263.827 h 0.67469 c 1.17369,0 1.7563,-0.57573 1.7563,-1.72614"
         inkscape:connector-curvature="0"
         style="clip-rule:evenodd;fill:#e30613;fill-opacity:1;fill-rule:evenodd;stroke-width:0.26458332" />
      <line
         id="line3524"
         y2="265.22189"
         x2="306.35373"
         y1="265.22189"
         x1="306.56833"
         style="fill:#e30613;fill-opacity:1;stroke-width:0.26458332" />
      <line
         id="line3526"
         y2="265.22189"
         x2="306.35373"
         y1="265.22189"
         x1="306.56833"
         style="fill:#e30613;fill-opacity:1;stroke-width:0.26458332" />
      <path
         id="path3528"
         d="m 288.08665,269.84654 v 0 h -1.41129 v -10.8212 h 3.84228 v 1.41182 h -2.43099 v 3.38984 h 2.43099 v 1.39488 h -2.43099 z m 2.43125,-10.8212 h 0.49107 c 2.20848,0 3.30385,1.02103 3.30385,3.05938 0,2.10185 -1.09564,3.13716 -3.30385,3.13716 H 290.5179 V 263.827 h 0.66702 c 1.17395,0 1.7645,-0.576 1.7645,-1.72641 0,-1.11098 -0.59055,-1.66343 -1.7645,-1.66343 h -0.66702 z"
         inkscape:connector-curvature="0"
         style="clip-rule:evenodd;fill:#e30613;fill-opacity:1;fill-rule:evenodd;stroke-width:0.26458332" />
      <polygon
         transform="matrix(0.26458333,0,0,0.26458333,237.30305,257.6294)"
         id="polygon3530"
         points="303.356,39.453 295.356,39.453 281.677,27.507 281.677,39.478 276.344,39.478 276.344,5.277 281.677,5.277 281.677,17.368 295.356,5.305 303.356,5.305 284.083,22.463 "
         style="clip-rule:evenodd;fill:#e30613;fill-opacity:1;fill-rule:evenodd" />
      <polygon
         transform="matrix(0.26458333,0,0,0.26458333,237.30305,257.6294)"
         id="polygon3532"
         points="57.535,16.438 57.535,21.767 41.94,21.767 41.94,34.145 57.535,34.145 57.535,39.453 36.548,39.453 36.548,5.276 57.535,5.276 57.535,10.613 41.94,10.613 41.94,16.438 "
         style="clip-rule:evenodd;fill:#e30613;fill-opacity:1;fill-rule:evenodd" />
      <path
         id="path3534"
         d="m 253.55376,259.02534 v 0 h 3.25146 c 0.19897,0 0.39873,0.007 0.59055,0.0241 v 1.38774 h -0.19976 -2.23202 v 6.21109 h 2.23202 c 0.0696,0 0.13018,0 0.19976,-0.007 v 1.40996 c -0.18415,0.007 -0.36856,0.0164 -0.56806,0.0164 h -3.27395 z m 3.84201,0.0241 c 2.57652,0.18335 3.86504,1.63301 3.86504,4.3389 0,2.91597 -1.28852,4.47199 -3.86504,4.66328 v -1.40996 c 1.61767,-0.0778 2.43152,-1.16629 2.43152,-3.25332 0,-1.89283 -0.81385,-2.8739 -2.43152,-2.95116 z"
         inkscape:connector-curvature="0"
         style="clip-rule:evenodd;fill:#e30613;fill-opacity:1;fill-rule:evenodd;stroke-width:0.26458332" />
      <rect
         id="rect3536"
         height="9.0423994"
         width="1.4110229"
         y="259.02533"
         x="262.25009"
         style="fill:#e30613;fill-opacity:1;stroke-width:0.26458332" />
      <polygon
         transform="matrix(0.26458333,0,0,0.26458333,237.30305,257.6294)"
         id="polygon3538"
         points="5.39,5.276 16.23,26.261 27.098,5.276 32.462,5.276 32.462,39.478 27.098,39.478 27.098,16.234 17.679,34.347 14.81,34.347 5.39,16.234 5.39,39.453 0,39.453 0,5.276 "
         style="clip-rule:evenodd;fill:#e30613;fill-opacity:1;fill-rule:evenodd" />
      <path
         id="path3540"
         d="m 275.5401,261.17323 v 0 l -1.34964,2.83766 h 1.34964 v 1.4179 h -2.02379 l -0.10795,0.22172 -0.023,0.0405 c -0.13812,0.27437 -0.65961,0.99642 -0.93478,1.27265 -0.40666,0.38205 -0.86783,0.68209 -1.38853,0.90408 -0.56806,0.24527 -1.16575,0.36089 -1.78726,0.36089 -0.64373,0 -1.24989,-0.11589 -1.81742,-0.36089 -0.56753,-0.25242 -1.07368,-0.59082 -1.50336,-1.01971 -0.42149,-0.42227 -0.76677,-0.92048 -1.01944,-1.48775 -0.23813,-0.55933 -0.36116,-1.16549 -0.36116,-1.80922 0,-0.62759 0.12303,-1.23534 0.36116,-1.80234 0.25267,-0.56674 0.59795,-1.06601 1.01944,-1.48855 0.42968,-0.4363 0.93583,-0.77338 1.50336,-1.01891 0.56753,-0.25426 1.17369,-0.37518 1.81742,-0.37518 0.62151,0 1.2192,0.12092 1.80261,0.37518 0.0765,0.0381 0.15345,0.0765 0.22939,0.10742 0.0765,0.0376 0.15399,0.0759 0.23019,0.12198 l -0.77444,1.18162 c -0.0452,-0.0159 -0.0841,-0.0386 -0.1225,-0.0534 -0.031,-0.031 -0.077,-0.0474 -0.1225,-0.0693 -0.18389,-0.0921 -0.39158,-0.1532 -0.6059,-0.19156 -0.20743,-0.0394 -0.4228,-0.0622 -0.63685,-0.0622 -0.45164,0 -0.87392,0.0847 -1.27317,0.26908 -0.39847,0.16775 -0.74401,0.40587 -1.04273,0.70538 -0.29898,0.29951 -0.53737,0.64347 -0.72099,1.04273 -0.16854,0.39899 -0.26141,0.81385 -0.26141,1.25809 0,0.45138 0.0929,0.87312 0.26141,1.27185 0.18362,0.39158 0.42201,0.73607 0.72099,1.03532 0.29872,0.29977 0.64426,0.53789 1.04273,0.7059 0.39925,0.17701 0.82153,0.26141 1.27317,0.26141 0.45191,0 0.86598,-0.0844 1.25809,-0.26141 0.39079,-0.16801 0.7366,-0.40613 1.02791,-0.7059 0.0148,-0.006 0.022,-0.0143 0.0307,-0.0217 0.0228,-0.0317 0.3601,-0.43868 0.68951,-1.0586 l 3.22103,-6.46536 0.0381,0.0765 z m 0.008,0 h -0.008 v -2.78448 l 4.60905,9.00404 v -9.76339 h 1.40414 v 9.0342 h 4.20238 v 1.40441 h -5.26124 l 0.91228,1.77879 h -1.61766 l -1.57189,-3.06837 -0.64479,-1.34964 h -2.03227 v -1.4179 h 1.35017 z"
         inkscape:connector-curvature="0"
         style="clip-rule:evenodd;fill:#e30613;fill-opacity:1;fill-rule:evenodd;stroke-width:0.26458332" />
    </g>
  </g>
</svg>
