<?xml version="1.0" encoding="UTF-8"?><svg id="Layer_2" xmlns="http://www.w3.org/2000/svg" viewBox="0 0 1189.7 1397.17"><defs><style>.cls-1{fill:none;}.cls-1,.cls-2,.cls-3{fill-rule:evenodd;}.cls-1,.cls-2,.cls-3,.cls-4{stroke-width:0px;}.cls-2{fill:#765e37;}.cls-3{fill:#911a1c;}.cls-4{fill:#231f20;}</style></defs><g id="Foreground"><path class="cls-2" d="M873.73,330.99s31.66,9.64,49.56,7.8c0,0,33.96-8.72,47.27-33.04,0,0-30.29-23.86-80.77-2.29,0,0,15.14-15.15,10.56-53.7,0,0-45.44-.46-60.12,65.17,0,0-43.14,9.17-84.9,3.67,0,0,18.36-34.42,5.05-54.15,0,0-21.11-9.64-33.5,50.94,0,0-20.2-2.75-55.53-16.06,0,0,43.14-83.98,1.38-137.22,0,0,10.55,9.64,11.01-3.67,0,0,50.95,33.5,64.26-6.88,0,0,2.29-19.28-13.31-27.08,0,0-7.8-1.84-4.59,5.51,0,0,4.59,20.65-5.97,17.44,0,0-16.52,3.67-24.78-12.85,0,0-10.56-21.11-32.13-21.57,0,0-30.74-.46-41.76,7.34,0,0,10.1-26.62,34.88-30.29,0,0,22.48-5.05,18.82-20.65,0,0-7.35-17.89-22.95-11.47,0,0-26.62,6.88-40.85,19.73,0,0-2.29-15.15,9.18-34.42,0,0,8.26-21.57-10.55-23.86,0,0,.32-11.22-11.94-14.46l-.91-.23s-6.42-10.55-14.69,0c0,0-8.26,0-12.39,14.69,0,0-11.47-3.22-12.85,19.27,0,0,2.75,8.72,5.05,11.02,0,0,7.34,13.77,6.43,28.91,0,0-20.2-19.28-49.57-21.57,0,0-15.6,3.67-13.3,20.65,0,0,5.96,11.48,18.35,12.39,0,0,22.95,3.21,33.5,30.29,0,0-4.13-7.8-41.3-6.88,0,0-14.68,1.84-19.73,6.42,0,0-12.4,13.77-14.69,18.36,0,0-5.96,11.48-21.11,9.64,0,0-11.01,1.37-6.88-15.61,0,0,2.75-14.68-8.26-4.59,0,0-13.3,6.89-8.72,23.87,0,0,1.37,17.89,23.86,20.19,0,0,12.85,1.38,33.51-9.18l7.8-4.59s-3.21,13.77,8.72,3.67c0,0-20.66,26.15-16.99,67.92,0,0,0,25.24,18.82,68.84,0,0-15.15,9.64-55.99,17.44,0,0-6.43-54.16-33.5-51.86,0,0-13.77,18.82,6.42,54.15,0,0-30.75,6.88-84.44-2.75,0,0-8.72-59.2-61.5-66.08,0,0-6.42,35.34,11.02,54.61,0,0-39.92-23.4-81.23,1.84,0,0,24.78,38.55,64.71,33.04,0,0,33.04-7.34,38.54-9.18l10.56-1.38s-47.74,13.31-31.21,76.18c0,0,53.23-15.6,45.89-72.05,0,0,50.48,10.56,110.6,2.29,0,0-20.19,28.45-3.67,45.89,0,0,32.59-8.26,32.59-50.94,0,0,30.74-10.1,39.01-14.23,0,0,27.53,41.77,33.04,46.81,0,0-60.12,29.83-133.55,25.7l-.91,118.4s-111.98,17.44-152.82,123.46c0,0-35.33,70.21,12.85,158.78,0,0,27.08,58.28,84.9,85.36,0,0-86.28-13.77-106.93,8.72,0,0-30.28,22.04-10.1,56.45,0,0,12.39,16.53,26.16,11.47,0,0,11.02-3.67,9.18-14.23,0,0-12.85-19.27,0-29.83,0,0,6.88-7.35,14.68-6.89,0,0-13.31,18.82,6.42,25.25,0,0,5.51,1.38,12.4-4.59,0,0,12.39-18.36,29.82-13.77,0,0,11.48-.92,86.29,8.72,0,0,30.28,3.68,27.99-18.81,0,0,24.78.91,56.91-22.95,0,0,.45,14.23,33.5,28.92,0,0,16.52,2.29,4.59-11.93,0,0-15.14-12.39-16.06-50.03,0,0-2.75-28-29.83-18.35,0,0-4.13.92-9.18,8.72,0,0-7.8,14.22-31.21,5.97,0,0-65.62-22.95-60.12-92.24,0,0,.92-8.27,5.05-16.99,0,0,7.34-16.06-7.8-5.05,0,0-26.62,28.91-5.51,81.23,0,0-43.59-39.01-28.91-112.9,0,0-.46-27.54-13.31,5.05,0,0-7.8,25.24-7.34,45.43,0,0-20.19-28-9.64-71.6l4.59-24.77s1.38-25.25-9.63-.93c0,0-22.03,51.4-12.85,87.66,0,0-22.49-39.93-2.76-108.31,0,0,10.09-27.08-.92-18.35,0,0-36.72,50.48-16.98,117.02,0,0,18.35,56.44,66.08,97.29,0,0-27.54-13.77-50.02-47.73,0,0-32.13-60.13-24.32-102.34,0,0,2.29-71.13,72.05-117.94,0,0,47.26-30.29,85.82-32.59l1.37-90.41s72.52-9.18,136.3-46.35c0,0,63.79,36.72,137.22,45.89l2.3,90.87s93.16,15.6,133.54,83.98c0,0,42.69,57.37,14.23,133.09,0,0-7.34,48.64-67.47,86.28,0,0,57.37-44.97,72.06-115.65,0,0,10.1-50.48-17.44-94.53,0,0-9.18-17.44-7.34,1.37,0,0,25.7,77.55-.92,121.16,0,0,12.39-28-11.93-90.87,0,0-8.27-20.65-9.18-2.29,0,0,18.35,68.84-4.59,100.96,0,0-3.21-41.76-13.77-56.91,0,0-10.56-14.69-6.42,14.68,0,0,10.09,54.16-25.7,100.97,0,0-9.18,11.47-.92-9.18,0,0,13.77-36.71-8.26-65.63,0,0-13.31-16.98-8.72,2.29,0,0,12.39,30.29,1.84,48.65,0,0-9.64,46.35-62.87,62.41,0,0-14.69,7.8-31.67-14.68,0,0-10.56-9.64-25.25,1.84,0,0-9.17,1.84-7.34,21.57,0,0-2.29,30.75-16.98,45.43,0,0-12.4,11.93,9.18,9.18,0,0,27.99-14.23,31.2-29.37,0,0,22.03,21.57,55.53,23.41,0,0-3.2,22.03,28,19.73l66.08-8.72,16.52-.46s16.98-4.59,27.08,7.8l12.39,10.1s23.86,3.21,14.23-23.41c0,0,29.82.47,14.69,34.88,0,0-5.06,14.69,14.68,15.6,0,0,31.21-7.8,24.79-43.59,0,0-5.51-39.01-57.82-37.17l-65.63,3.22s80.77-32.59,106.47-141.35c0,0,42.22-173.02-160.62-225.79v-119.78s-69.76,6.43-134.01-27.07c0,0,25.71-29.83,33.04-45.89,0,0,22.49,9.18,38.55,14.69,0,0-2.29,41.3,33.04,50.02,0,0,15.14-13.31-3.21-44.52,0,0,50.02,6.43,110.14-2.29,0,0-11.02,52.77,46.35,72.05,0,0,16.98-61.04-32.13-76.18,0,0,3.22-3.21,16.99,2.29ZM293.7,321c-43.12,8.83-61.97-10.59-61.97-10.59,28.12-15,68.15,8.83,68.15,8.83l-6.17,1.77ZM306.94,390.79c-4.29-35.18,24.15-50.94,24.15-50.94l.44,3.97c7.94,30.77-24.59,46.97-24.59,46.97ZM330.2,313.93c-39.15-25.47-31.65-46.65-31.65-46.65,33.41,6.5,35.18,47.97,35.18,47.97l-3.53-1.32ZM432.65,905.54l-9.27-.44c-38.71-7.95-79.18-7.95-79.18-7.95-21.18-.44-28.56,14.13-28.56,14.13-8.38,11.47-9.14.88-9.14.88-2.21-12.23,6.05-20.29,6.05-20.29-11.03-3.09-23.71,3.09-23.71,3.09-25.47,9.58-14.44,33.86-14.44,33.86,5.74,12.67,2.21,13.24,2.21,13.24-2.97,1.31-30.33-5.3-19.86-38.71,10.47-33.41,68.15-25.47,68.15-25.47,24.15-2.2,121.29,21.5,121.29,21.5,14.01,6.62-13.55,6.18-13.55,6.18ZM537.62,853.72s3.21,24.91,15,39.03c0,0-12.23-8.26-26.36-39.91,0,0-33.41,38.7-94.5,32.53,0,0-38.83-4.86-52.38-15.89l-5.3-4.85s35.74,20.74,90.21,8.82c0,0,41.35-7.05,59.77-34.29,0,0,4.74-4.85,10.47-8.39,0,0,4.41,14.68,3.09,22.94ZM355.67,549.03c-24.15,13.56-51.82,68.59-51.82,68.59-25.91,52.7-11.47,96.71-11.47,96.71,11.91,90.53,119.09,135.41,119.09,135.41l2.64-6.17c-17.65-8.38-46.09-37.83-46.09-37.83-92.73-87-52.83-172.24-52.83-172.24-26.79,105.53,55.47,168.27,55.47,168.27l3.85-4.41c-71.68-68.59-35.05-134.86-35.05-134.86-14.44,52.38,15.77,93.62,15.77,93.62l5.74-2.2c-2.66-40.92,7.5-55.79,7.5-55.79-10.47,61.53,26.36,104.09,26.36,104.09,22.38,20.17,13.12-9.15,13.12-9.15-13.25-29-.44-52.82-.44-52.82-8.38,58.01,41.36,91.41,41.36,91.41,47.85,30.77,62.41-1.76,62.41-1.76,9.26-8.83,17.65-2.21,17.65-2.21-6.94,2.09-23.38,20.74-23.38,20.74-45.32,32.97-97.59,11.8-97.59,11.8-134.98-57.24-128.36-180.19-128.36-180.19,6.94-109.5,95.83-143.68,95.83-143.68l-19.73,12.68ZM661.29,854.55c-14.12,31.65-26.36,39.91-26.36,39.91,11.79-14.12,15-39.03,15-39.03-1.33-8.26,3.09-22.94,3.09-22.94,5.74,3.53,10.46,8.38,10.46,8.38,18.41,27.24,59.77,34.3,59.77,34.3,54.47,11.91,90.21-8.83,90.21-8.83l-5.3,4.85c-13.55,11.04-52.38,15.89-52.38,15.89-61.09,6.18-94.5-32.53-94.5-32.53ZM862.96,878.85s57.68-7.94,68.15,25.47c10.47,33.41-16.89,40.03-19.85,38.71,0,0-3.54-.57,2.2-13.24,0,0,11.03-24.27-14.43-33.86,0,0-12.68-6.17-23.71-3.08,0,0,8.27,8.06,6.06,20.29,0,0-.76,10.59-9.14-.88,0,0-7.39-14.56-28.56-14.12,0,0-40.48,0-79.18,7.94l-9.27.44s-27.56.44-13.56-6.17c0,0,97.15-23.71,121.29-21.5ZM907.6,681.43s6.62,122.94-128.35,180.18c0,0-52.27,21.18-97.59-11.79,0,0-16.45-18.65-23.38-20.74,0,0,8.38-6.62,17.65,2.2,0,0,14.56,32.53,62.41,1.77,0,0,49.74-33.42,41.35-91.42,0,0,12.79,23.83-.44,52.83,0,0-9.27,29.33,13.11,9.15,0,0,36.82-42.57,26.35-104.1,0,0,10.15,14.88,7.5,55.8l5.74,2.21s30.2-41.24,15.76-93.63c0,0,36.62,66.27-35.06,134.86l3.85,4.42s82.27-62.74,55.48-168.27c0,0,39.91,85.23-52.83,172.23,0,0-28.44,29.44-46.09,37.83l2.65,6.18s107.17-44.88,119.09-135.42c0,0,14.44-44-11.47-96.7,0,0-27.67-55.03-51.82-68.6l-19.74-12.67s88.89,34.17,95.82,143.68ZM756.51,273.02c4.86,32.53-17.53,43.12-17.53,43.12l-.88-5.74c0-21.5,18.41-37.38,18.41-37.38ZM653.74,70.02s12.67-1.65,8.26,7.5c0,0-4.3,6.06-16.65,7.82,0,0-17.97,3.53-24.15,9.71l-22.5,25.03s18.21-39.47,55.03-50.06ZM613.71,30.87c7.5-1.32,3.53,7.5,3.53,7.5-4.84,2.2-19.41,78.62-19.41,78.62l9.7-72.44c-1.32-8.26,6.18-13.68,6.18-13.68ZM592.97,16.31s12.8-3.29,7.94,29.56l-7.5,36.82s-16.33-62.98-.44-66.38ZM571.92,40.13c-4.86-4.85-.88-9.71-.88-9.71,9.71-4.41,10.59,21.94,10.59,21.94l8.39,64.62-1.33-8.71c-3.85-21.5-16.76-68.15-16.76-68.15ZM532.77,81.81s-13-2.97-3.86-11.79c0,0,24.15-3.21,57.12,43.44l2.2,5.74s-20.42-25.91-26.47-27.23c0,0,2.65-1-29-10.15ZM431.32,273.9c25.59,26.79,16.65,43.12,16.65,43.12l-3.53-2.2c-18.09-14-13.12-40.92-13.12-40.92ZM454.59,374.58c1.76-36.5,17.09-42.24,17.09-42.24l1.77,3.09c2.21,26.35-18.86,39.15-18.86,39.15ZM375.85,329.7l-25.26-5.75c-2.15-.45-3.3-.75-3.3-.75l3.3.75c16.37,3.47,91.42,16.29,169.5-20.16l3.09,6.18s-73.12,31.53-147.33,19.74ZM750.33,400.94c2.65,10.91-4.29,98.48-4.29,98.48-2.97,29.44-4.42-.44-4.42-.44-1.75-3.53-4.4-83.91-4.4-83.91-88.77-3.53-143.8-40.47-143.8-40.47-66.38,41.36-142.36,40.03-142.36,40.03l-3.53,72.88c-3.09,44.32-5.73,13.68-5.73,13.68-3.09-15.32-3.97-96.27-3.97-96.27l-.88-4.85c97.03,0,156.92-41.67,156.92-41.67,56.68,39.15,156.47,42.56,156.47,42.56ZM593.86,165.84s-39.91,19.85-14.88,61.53c0,0-1.33,26.79-32.09,50.94,0,0-31.21-53.59,3.52-115.56,0,0,14,12.67,24.59-9.27l1.32-3.09s18.97,17.53,36.51,0c0,0,4.85,22.5,23.7,13.24,0,0,35.63,43,5.74,114.24,0,0-25.91-12.23-33.86-50.5,0,0,26.68-38.59-14.56-61.53ZM588.68,210.16c-10.46-20.74,5.18-26.35,5.18-26.35,15.76,9.71,5.73,25.47,5.73,25.47l2.21,15.88c8.38,42.68,35.62,58.44,35.62,58.44l-3.53,6.18c-25.92-11.35-40.03-63.3-40.03-63.3-13.24,50.62-39.91,63.74-39.91,63.74l-2.2-3.53-1.33-3.97c32.97-17.97,38.26-72.56,38.26-72.56ZM593.86,240.49c6.05,34.29,36.94,57.56,36.94,57.56-31.65,49.62-37.83,47.53-37.83,47.53-4.41-1.77-21.06-25.91-21.06-25.91l-14.88-22.94c32.53-26.48,36.82-56.24,36.82-56.24ZM612.83,362.23l-11.47-9.59c59.77-50.94,66.39-119.53,66.39-119.53,8.83-63.62-34.3-91.54-34.3-91.54-6.17-4.85-17.08.88-17.08.88-6.18,7.82-22.07,8.39-22.07,8.39-12.36-.44-21.5-7.5-21.5-7.5l-8.82-2.97c-6.62-3.41-13.12,4.29-13.12,4.29-45.64,36.82-27.68,104.21-27.68,104.21,15.88,65.06,63.74,103.77,63.74,103.77l-11.91,10.03c-50.5-47.09-64.17-109.82-64.17-109.82-15-79.94,27.24-109.95,27.24-109.95-15.88-10.59-30.32,3.53-30.32,3.53-1.32,1.76-21.07,11.03-21.07,11.03-3.53,2.21-15.88,3.97-15.88,3.97l-3.97-.44c-13.68-3.09-11.35-7.06-11.35-7.06,27.68,5.3,42.56-12.79,42.56-12.79,18.86-18.53,33.42-14.88,33.42-14.88,10.03,4.85,34.74,5.3,34.74,5.3,3.09-3.09,28.11,17.53,28.11,17.53,19.74-19.41,29-17.97,29-17.97,26.35-.88,30.01-4.41,30.01-4.41,2.2-2.21,9.15-.88,9.15-.88,21.5,4.41,29.88,17.53,29.88,17.53,10.47,10.47,21.62,11.03,21.62,11.03h19.29c-4.85,7.5-17.09,6.62-17.09,6.62-21.06-4.41-40.03-17.65-40.03-17.65-6.17-7.06-22.38-3.41-22.38-3.41-9.14,2.2-1.32,5.61-1.32,5.61,35.18,30.77,27.23,87.12,27.23,87.12-3.53,73.01-66.82,129.56-66.82,129.56ZM733.24,373.7s-24.03-15.44-18.85-39.15l1.32-3.09s14.44,3.53,17.53,42.24ZM837.22,324.16c-84.22,21.84-173.45-14.2-173.45-14.2l2.65-6.62c89.81,37.67,158.44,23.82,170.8,20.81.67-.17,1.33-.34,2-.52,0,0-.69.2-2,.52ZM891.04,316.58c51.83-22.83,65.5-5.74,65.5-5.74-26.35,21.94-68.59,7.94-68.59,7.94l3.09-2.21ZM860.28,341.17c25.91,25.91,20.18,49.62,20.18,49.62-32.53-15.89-23.71-51.83-23.71-51.83l3.54,2.21ZM853.65,315.26l.44-5.73c8.38-39.15,35.18-42.24,35.18-42.24,7.5,25.47-35.62,47.97-35.62,47.97Z"/><path class="cls-2" d="M692.77,438.32s-8.38-7.82-3.53,5.74c0,0,9.15,36.06-35.17,32.97,0,0-6.5,0-14.88-8.38,0,0-22.82-20.74-34.74-36.51,0,0-6.29-20.17-11.03,31.65,0,0-2.97-41.35-8.26-34.29,0,0-36.18,45.77-50.62,46.65,0,0-41.79,6.18-36.06-31.64l1.32-3.98s2.33-8.38-4.29-2.2c0,0-21.18,22.06-11.47,40.03,0,0,10.46,14.88,26.35,15.32,0,0-10.59,4.86-1.77,9.27,0,0,19.41,11.92,40.04-1.77,0,0,9.15,4.86,15.32,3.53,0,0,.88,6.5,13.68,10.47,0,0,6.5,17.65,15.77,16.33,0,0,7.5,3.65,17.21-17.08,0,0,9.58-.89,14-10.15,0,0,5.74,1.33,15.45-3.53,0,0,19.86,14.56,40.91.88,0,0,6.18-.88-3.09-7.5,0,0,52.7-9.15,14.88-55.79ZM575.44,473.06c-3.97-6.62-9.26,20.17-9.26,20.17-7.5,7.94-7.38,1.33-7.38,1.33-2.09-7.5-11.91.44-11.91.44-9.27,9.71-31.21,5.3-31.21,5.3,7.94-.44,21.94-10.15,21.94-10.15-17.65,4.41-31.65-4.86-31.65-4.86-19.42-5.29-15.33-25.91-15.33-25.91,4.41-12.36,4.41-.88,4.41-.88l-.44,10.15c8.82,18.41,44.76,16.2,44.76,16.2,26.35-7.94,38.71-31.21,38.71-31.21,8.82-18.53,7.06-4.73,7.06-4.73,1.33,1.77-1.32,38.15-1.32,38.15-2.21,10.47,7.5,36.06,7.5,36.06-20.17-18.98-15.88-50.06-15.88-50.06ZM649.77,490.15c10.58,8.26,21.94,10.15,21.94,10.15-16.65,3.97-29.44-3.97-29.44-3.97-7.5-7.06-11.03-4.85-11.03-4.85-3.97,8.71-5.3,4.85-5.3,4.85-6.62-2.21-6.94-14.89-6.94-14.89-9.15-18.4-6.17-7.05-6.17-7.05.88,15.88-2.65,26.36-2.65,26.36-5.74,17.96-14.56,21.94-14.56,21.94,2.65-5.3,5.74-13.56,5.74-13.56,6.17-6.06,1.76-57.11,1.76-57.11l-.43-3.53c1.76-9.59,3.97,1.32,3.97,1.32,21.5,32.09,40.91,34.18,40.91,34.18,52.83,1.2,45.65-22.39,45.65-22.39-.44-15.44,3.52-1.76,3.52-1.76,4.41,36.5-46.97,30.32-46.97,30.32Z"/><path class="cls-1" d="M628.15,545.62s2.76-13.8-6.06.76c0,0-33.98,47.98-20.3,53.27,0,0,14.44,14,26.36-49.3v-4.73Z"/><path class="cls-2" d="M803.6,623.8s-16.65,10.15-35.18,11.03c0,0,14.44-22.5-5.3-12.8,0,0-17.53,14.89-23.26,28.57,0,0,3.52-23.82-8.39-40.03,0,0,24.27-35.62,12.79-50.95,0,0-7.18-.55-19.85,18.86,0,0,.45,3.53-22.38,5.3,0,0,26.68-28,19.73-40.36,0,0-10.91-8.95-14,11.8,0,0-12.03,18.97-19.41,19.41,0,0,13.68-20.61,5.74-29.88,0,0-6.06-1.88-9.59,12.68,0,0-8.94,23.7-26.03,29.44,0,0-1.32-3.85,4.41-12.67,0,0,11.79-23.07-3.09-27.36,0,0-13.68,18.97-28.12,22.94,0,0,8.39-22.38,6.62-34.29l-.88-7.5s-1.2-15.32-19.73,4.41l-23.83,34.73s-27.56-43.56-36.38-44.89c0,0-8.82-4.29-8.82,16.32,0,0,3.53,24.15,7.06,30.33,0,0-5.85,4.3-23.38-16.76,0,0-9.15-15-10.47,4.86,0,0-4.73,6.93,6.18,23.26,0,0,2.65,4.41.88,6.61,0,0-20.29-8.82-25.59-29.88,0,0-7.82-20.3-11.79-9.27,0,0-2.33,14.24,7.38,26.03,0,0-15.77-6.29-19.73-24.26,0,0-18.97-22.39-12.36,7.5,0,0,13.23,22.38,17.65,25.03,0,0-9.15,4.29-21.07-3.09,0,0-16.45-28.89-22.5-14.88,0,0-2.97,25.79,15.88,44.76,0,0-9.7,15.89-8.83,41.8,0,0-19.41-35.18-32.53-30.77,0,0-4.41,5.85,3.97,13.68,0,0-23.7.44-34.29-10.59,0,0-.88,20.18,36.06,30.76,0,0-7.06,31.65,1.77,35.18,0,0,5.29,2.64,8.38-4.42,0,0,10.03-10.14,16.21-6.17,0,0-8.38,11.47-2.2,15.44,0,0,3.96,3.09,7.94,3.09,0,0,12.67.76,16.2,11.35,0,0-17.97,21.62-11.35,39.14,0,0,10.03,12.8,15.32,14.56,0,0,10.15-13.24,13.23-12.35,0,0,3.86,11.58,12.68,14.12,0,0,12.91-23.83,22.5-19.86,0,0-7.94,64.62,22.38,64.62,0,0,11.36,4.1,17.53-17.08,0,0,5.61,39.03,32.09,37.71,0,0,23.7,4.97,31.2-36.83,0,0,8.51,22.38,22.5,16.2,0,0,22.83-3.97,20.18-56.68,0,0-6.06-14.56,6.62-5.73,0,0,14,13.36,15.76,17.66,0,0,9.71-5.3,11.47-14.12l12.35,11.91s35.06-15.44,4.73-51.5c0,0-.32-11.79,20.3-13.57,0,0,11.47-2.32,2.64-17.65,0,0,4.3-4.41,16.65,9.27,0,0,11.03,9.15,11.47-8.39l-2.21-25.47s30.77-10.15,36.06-30.32ZM739.85,569.01s4.74,14.56-15.88,28.56c0,0-5.62,1.76-10.92-.88l-2.64-3.97s20.61-10.47,29.44-23.7ZM704.68,597.12c18.42,9.7,13.68,24.15,13.68,24.15-11.79,21.5-20.74-.88-20.74-.88,5.31-20.46,3.52-23.91,2.6-24.48l-.4-.11s.17-.03.4.11l4.46,1.22ZM709.09,559.73l1.32-3.52s9.26-12.35,3.08,3.09c0,0-7.38,24.15-27.66,25.03,0,0,23.7-23.27,23.26-24.6ZM689.68,619.95c-7.5,13.55-10.04,2.19-10.04,2.19,0-7.5-3.97-7.5-3.97-7.5l-.88-3.97c.44-4.41,4.84-8.7,4.84-8.7,8.39-5.3,10.04,17.97,10.04,17.97ZM688.92,558.42s-1.89,21.06-16.77,31.64c0,0-2.65,3.53-5.29,2.21l-3.09-1.77s22.63-26.35,25.15-32.09ZM685.18,641.96s6.34,7.31,3.41,14.63l-3.41-1.95s-10.73-9.75-21.46-6.34c0,0,2.44-9.26,21.46-6.34ZM659.36,558.86s2.33,10.03-8.27,23.71l-3.08,3.97s-15.12-2.2-19.85,1.77c0,0,24.15-29.45,31.21-29.45ZM642.27,745.82l2.44-6.34s12.68-10.73,10.72,5.85c0,0-10.72,17.07-11.21,20.48,0,0-4.39,13.17-3.42-1.95,0,0-.97-15.6,1.46-18.04ZM635.44,686.82v-7.31c-2.93-6.34-1.95-12.68-1.95-12.68,3.91-4.39,11.7,12.68,11.7,12.68,3.41,10.24-9.75,7.31-9.75,7.31ZM634.95,646.35l-3.9-1.46c0-4.88,9.75-10.24,9.75-10.24,10.24.97,10.24,16.57,10.24,16.57,0,7.8-4.39,2.44-4.39,2.44-1.46-5.36-11.7-7.31-11.7-7.31ZM649.33,619.06s-9.27,5.74-6.62-2.2l2.21-8.39s5.41-9.14,11.47-5.61c0,0,7.5,8.26-7.06,16.2ZM617.68,550.03l3.53-4.73s9.03-13.8,6.5,2.53c0,0-10.59,61.65-23.27,52.38,0,0-20.17.32,13.24-50.18ZM616.42,632.7l-4.38.49s-8.29,0-12.68-7.31c0,0-1.46-5.36,4.39-3.41,0,0,2.93,4.87,20.48-9.75,0,0,7.31-5.36.49,10.73,0,0,.49,4.39-8.29,9.27ZM562.72,613.02c17.56,14.63,20.48,9.75,20.48,9.75,5.85-1.95,4.38,3.42,4.38,3.42-4.38,7.32-12.67,7.32-12.67,7.32l-4.39-.49c-8.78-4.87-8.29-9.27-8.29-9.27-6.83-16.09.49-10.72.49-10.72ZM577.83,657.4c15.6,0,3.9,10.24,3.9,10.24l-5.85,3.41c-2.92-.49-11.7,7.8-11.7,7.8.49-20.97,13.65-21.46,13.65-21.46ZM593.93,687.14l3.9.48c7.8,3.42,3.41,8.78,3.41,8.78-.97,4.39-9.26,4.39-9.26,4.39-6.34,0-5.85-5.36-5.85-5.36-3.89-9.26,7.8-8.29,7.8-8.29ZM581.73,720.78c3.41-2.43,8.29,5.37,11.21,3.42,2.93-1.95,12.68-3.9,12.68-3.9,5.36,6.83-4.88,18.53-4.88,18.53-3.9,2.93-11.21.49-11.21.49-11.7-5.85-7.8-18.53-7.8-18.53ZM605.21,667.32s-11.7-10.24,3.9-10.24c0,0,13.17.48,13.65,21.45,0,0-8.78-8.29-11.7-7.8l-5.85-3.41ZM601.24,641.79c4.4,5.85-.48,7.31-6.82,7.8-6.34.49-8.29-4.39-8.29-4.39-7.31-5.36,15.11-3.41,15.11-3.41ZM565.74,545.62l3.53,4.73c33.42,50.5,13.24,50.18,13.24,50.18-12.68,9.26-23.27-52.38-23.27-52.38-2.52-16.33,6.5-2.53,6.5-2.53ZM527.59,559.17c7.06,0,31.21,29.45,31.21,29.45-4.74-3.97-19.86-1.77-19.86-1.77l-3.09-3.97c-10.59-13.67-8.26-23.71-8.26-23.71ZM542.72,766.13c-.48-3.41-11.21-20.48-11.21-20.48-1.95-16.58,10.73-5.85,10.73-5.85l2.44,6.34c2.44,2.44,1.46,18.04,1.46,18.04.97,15.11-3.42,1.95-3.42,1.95ZM541.75,679.82s7.8-17.07,11.7-12.68c0,0,.98,6.34-1.95,12.68v7.31s-13.16,2.93-9.75-7.31ZM551.99,646.67s-10.23,1.95-11.7,7.32c0,0-4.4,5.36-4.4-2.44,0,0,0-15.6,10.25-16.58,0,0,9.75,5.36,9.75,10.24l-3.9,1.46ZM530.56,603.18c6.05-3.53,11.47,5.61,11.47,5.61l2.2,8.38c2.66,7.95-6.61,2.21-6.61,2.21-14.56-7.94-7.06-16.2-7.06-16.2ZM501.77,642.28c19.02-2.93,21.45,6.34,21.45,6.34-10.72-3.41-21.45,6.34-21.45,6.34l-3.41,1.95c-2.93-7.31,3.41-14.62,3.41-14.62ZM497.27,620.27s1.64-23.27,10.03-17.97c0,0,4.41,4.29,4.85,8.71l-.88,3.97s-3.97,0-3.97,7.5c0,0-2.53,11.35-10.03-2.2ZM498.03,558.73c2.53,5.74,25.15,32.09,25.15,32.09l-3.09,1.77c-2.65,1.32-5.29-2.21-5.29-2.21-14.88-10.59-16.77-31.64-16.77-31.64ZM473.44,559.61c-6.18-15.44,3.09-3.08,3.09-3.08l1.32,3.52c-.44,1.33,23.27,24.59,23.27,24.59-20.3-.88-27.68-25.03-27.68-25.03ZM482.26,597.44l4.46-1.22c.22-.14.4-.11.4-.11l-.4.11c-.91.57-2.71,4.03,2.61,24.48,0,0-8.95,22.39-20.74.88,0,0-4.74-14.44,13.67-24.15ZM447.09,569.32c8.82,13.24,29.44,23.71,29.44,23.71l-2.65,3.97c-5.29,2.65-10.91.88-10.91.88-20.61-14-15.88-28.56-15.88-28.56ZM413.24,644.42l-16.21-11.36s19.42,10.04,29.44,9.59c0,0,4.41-.33-5.74-14,0,0-1.65-9.14,11.48,9.27,0,0,12.23,12.24,7.82,15.33,0,0-16.32-.13-26.79-8.83ZM454.15,672.98c-2.2-9.27-29.45,7.05-29.45,7.05-6.17-9.27,7.95-18.85,7.95-18.85l3.85-2.21c20.61-10.15,17.65,14.01,17.65,14.01ZM455.03,643.09s10.15-11.91,29-.44c0,0,11.03,9.7,11.03,12.79l-3.97-1.77s-9.15-10.58-29.89-4.85c0,0-7.94,7.38-6.17-5.73ZM462.09,680.47c-13.55-7.06,6.94-16.21,6.94-16.21,17.97-5.73,24.71,4.41,24.71,4.41l3.09,2.53c2.65,5.62-5.73,1.32-5.73,1.32-9.15-2.21-14.12,1.77-14.12,1.77-7.94,6.94-14.88,6.18-14.88,6.18ZM475.93,741.75c2.93,14.14-4.39,8.29-4.39,8.29-13.16-11.21,1.47-26.33,1.47-26.33l4.39,1.46c2.92,16.58-1.46,16.58-1.46,16.58ZM474.77,710.79s-5.62-13.11,21.62-22.82l-.45,4.85s-13.68,35.5-21.17,17.96ZM509.08,726.63c-2.44,1.46-6.83,17.56-6.83,17.56-5.36,13.65-9.75.48-9.75.48-2.44-25.84,18.52-22.43,18.52-22.43l-1.95,4.38ZM508.47,692.22s-3.54-11.44,8.65-16.52c0,0,9.61-2.49,9.8,8.45,0,0-.49,2.5-15.18,8.07h-3.26ZM518.35,715.91c1.95-17.55,15.6-12.19,15.6-12.19l2.44,3.42c1.95,5.85,3.91,14.14,3.91,14.14-.98,2.44-9.76-2.92-9.76-2.92-7.32,1.95-12.19-2.44-12.19-2.44ZM554.43,790.02c-11.22,17.55-19.51.97-19.51.97-8.77-9.75-.97-14.63-.97-14.63l1.95,3.91c6.34,7.8,12.19,7.31,12.19,7.31,9.75-2.44,6.34,2.44,6.34,2.44ZM554.92,705.67c6.82-18.04,20.96-14.14,20.96-14.14l.49,4.39c0,2.93-7.31,8.29-7.31,8.29-11.21,13.66-14.14,1.46-14.14,1.46ZM575.39,767.11c-14.14,1.95-13.16-18.04-13.16-18.04,4.39-28.77,10.24-8.29,10.24-8.29l3.41,6.83c4.4,21.94-.49,19.5-.49,19.5ZM591.97,821.23c-11.21-3.9-12.68-12.19-12.68-12.19-1.46-3.9,13.65,1.46,13.65,1.46l3.41-.97c1.95-1.46,10.73-2.44,10.73-2.44.97,15.6-15.12,14.14-15.12,14.14ZM609.04,780.28c-4.38,10.23-16.58,9.26-16.58,9.26-7.32,1.46-14.63-9.75-14.63-9.75-4.87-6.34,16.09-3.41,16.09-3.41l3.9-.98c18.52-1.46,11.21,4.89,11.21,4.89ZM611.55,766.79s-4.88,2.44-.49-19.5l3.41-6.83s5.85-20.48,10.24,8.29c0,0,.97,19.99-13.16,18.04ZM617.88,703.88s-7.31-5.36-7.31-8.29l.49-4.39s14.14-3.9,20.96,14.14c0,0-2.93,12.19-14.14-1.46ZM652.02,790.68s-8.29,16.58-19.51-.98c0,0-3.42-4.87,6.34-2.44,0,0,5.85.49,12.19-7.31l1.95-3.9s7.8,4.88-.97,14.63ZM656.41,718.03s-8.78,5.36-9.75,2.93c0,0,1.95-8.29,3.9-14.14l2.44-3.42s13.65-5.37,15.6,12.19c0,0-4.87,4.39-12.19,2.44ZM660.03,683.83c.19-10.95,9.8-8.45,9.8-8.45,12.18,5.07,8.65,16.52,8.65,16.52h-3.27c-14.68-5.57-15.17-8.07-15.17-8.07ZM694.44,744.36s-4.39,13.17-9.75-.49c0,0-4.39-16.09-6.83-17.55l-1.95-4.39s20.97-3.41,18.53,22.43ZM691.01,692.51l-.45-4.86c27.23,9.71,21.62,22.82,21.62,22.82-7.51,17.53-21.18-17.97-21.18-17.97ZM715.41,749.72s-7.31,5.85-4.39-8.29c0,0-4.39,0-1.46-16.58l4.39-1.46s14.62,15.12,1.46,26.33ZM724.86,680.15s-6.93.76-14.88-6.18c0,0-4.97-3.97-14.12-1.77,0,0-8.38,4.29-5.73-1.32l3.09-2.53s6.73-10.15,24.71-4.41c0,0,20.49,9.15,6.93,16.21ZM725.74,648.5c-20.74-5.73-29.89,4.85-29.89,4.85l-3.97,1.77c0-3.08,11.03-12.79,11.03-12.79,18.86-11.47,29,.44,29,.44,1.77,13.11-6.18,5.73-6.18,5.73ZM762.24,679.71s-27.23-16.32-29.44-7.06c0,0-2.97-24.15,17.65-14l3.85,2.21s14.12,9.58,7.94,18.85ZM773.71,644.09c-10.47,8.71-26.79,8.83-26.79,8.83-4.41-3.09,7.82-15.32,7.82-15.32,13.11-18.41,11.47-9.27,11.47-9.27-10.15,13.68-5.74,14-5.74,14,10.03.44,29.44-9.59,29.44-9.59l-16.21,11.35Z"/><path class="cls-2" d="M1188.07,1176.17s-8.05-29.82-24.71-49.89c0,0-9.87-10.69-2.59,5.54,0,0,42.3,54.19.89,119.02,0,0-9.84,20.88-42.26,36.26,0,0-34.55,16.19-67.4,6.82,0,0,32.8,4.73,74.21-14.91,0,0,26.5-8.98,44.39-51.63,0,0,6.43-20.49-5.11-5.11,0,0-14.52,35.45-49.92,51.63,0,0,17.89-13.25,32.84-46.52,0,0,6.86-17.51-8.95,1.28,0,0-16.69,31.53-40.98,36.68,0,0,30.76-40.13,13.25-33.7,0,0-25.56,40.55-63.98,39.28,0,0,32.41-14.1,31.99-39.7,0,0-1.24-9.42-6.82,1.27,0,0-4.73,23.01-41.41,29.44l-5.54-.85s-28.12,2.59-37.53-16.19c0,0,3.37-20.07-10.27-23.48,0,0-6.35-3.87-21.72,12.79,0,0-7.71,5.58-15.81,6.86,0,0-12.35-2.13-9.8,5.53,0,0,1.7,8.14,33.7-2.12,0,0-2.13,47.33,56.32,70.8,0,0,10.26,3.41,28.16,1.7l-.43-4.69s-19.17,1.24-38.81-15.8c0,0,59.3,32.42,124.57-1.28,0,0,66.5-30.75,53.72-119.02ZM1027.68,1312.27s-28.97-5.11-45.2-30.71c0,0-17.08-20.44-13.67-43.06,0,0-19.21,6.81-28.58,7.24,0,0,15.37-5.07,18.78-8.52l14.91-11.12s-.04,26.88,3.83,32c0,0,8.56,32.84,49.92,54.18ZM1183.38,1220.55c-5.11,57.17-67.82,78.94-67.82,78.94-44.35,17.51-85.33,0-85.33,0-23.47-2.13-41.79-29.44-41.79-29.44-14.91-20.02-10.27-43.11-10.27-43.11,10.23-.85,6.01,19.64,6.01,19.64,2.56,4.69,8.52,10.23,8.52,10.23,15.81,9.37,32.42,9.37,32.42,9.37l7.24-.42c26.89-4.3,40.56-20.45,40.56-20.45-5.54,13.25-31.14,23.05-31.14,23.05-7.67,12.82,20.02,5.54,20.02,5.54,26.45-6.39,46.52-30.29,46.52-30.29,1.7,6.39-20.91,25.18-20.91,25.18l2.55,3.4c23.47-2.13,48.23-31.14,48.23-31.14-21.3,46.52-77.24,41.79-77.24,41.79v3.83c43.5,1.71,64.84-14.49,64.84-14.49,13.63-6.39,35.44-31.99,35.44-31.99,1.32,6-23.9,28.15-23.9,28.15-40.09,32.46-115.62,17.9-115.62,17.9l-1.27,3.83c57.59,20.88,92.99,3.41,92.99,3.41,52.05-16.65,63.56-65.68,63.56-65.68,8.09-14.53,6.81-50.75,6.81-50.75,4.69,9-.42,43.5-.42,43.5Z"/><path class="cls-2" d="M1068.19,1365.6c-6.43-23.47-83.15-68.71-83.15-68.71-10.65-6.42-2.98,6-2.98,6l2.98,2.56c.85,2.13,15.34,11.5,15.34,11.5,45.2,29.87,35.83,44.82,35.83,44.82-.85,17.5,11.97-6.43,11.97-6.43,23.05,23.43-2.56,31.99-2.56,31.99-16.19,5.12,3.84,9.84,3.84,9.84,29.43-5.11,18.74-31.57,18.74-31.57ZM1062.23,1385.2s-4.26,6.44-11.5,8.13l-4.69-1.27s25.13-7.67,10.65-32.85c0,0-9.38-12.82-11.5-11.54,0,0-.39,8.98-4.69,12.39,0,0,2.99-14.56-20.06-32.89l-17.94-13.64s33.31,19.64,38.85,26.88c0,0,36.21,27.27,20.87,44.78Z"/><path class="cls-3" d="M510.75,1259.54l-36.39-85.35-36.87,84.46c-4.09,8.76-10.14,7.65-10.14,7.65v2.67h13.52l11.26-29.22h35.63l11.02,29.4h22.11v-2.84c-8,0-10.14-6.76-10.14-6.76ZM454.79,1234.05l15.3-36.34,15.17,36.34h-30.47Z"/><path class="cls-3" d="M698.09,1258.59l-36.39-85.35-36.87,84.47c-4.09,8.76-10.14,7.64-10.14,7.64v2.67h13.52l11.26-29.23h35.62l11.03,29.4h22.11v-2.85c-8,0-10.13-6.76-10.13-6.76ZM642.13,1233.11l15.3-36.35,15.16,36.35h-30.46Z"/><path class="cls-3" d="M409.91,1205.74l-2.13-19.97s-7.87-8.9-23.17-8.9c0,0-24.59-2.01-28.15,17.08v10s-2.31,9.66,24.59,24.6c0,0,17.48,6.89,17.48,21.35,0,0-.23,15.52-14.64,15.52,0,0-21.57.36-28.69-24.24h-3.73l4.09,28.86h3.2s.66-4.45,4.09-4.45c0,0,12.14,5.33,21.93,4.62,0,0,28.51.71,28.51-24.42,0,0-2.36-17.83-18.55-25.48-16.19-7.65-26.68-17.48-26.68-26.2,0,0-1.29-11.92,13.69-11.92,0,0,16.41-1.95,24.6,23.18l3.56.35Z"/><path class="cls-3" d="M601.94,1261.03l-28.6-34.44-.46-2.15s24.15-.61,24.15-19.37v-8.15s-.93-18.46-30.6-18.46h-29.98v81.02s-.47,5.85-6.31,5.85h-4.76v2.92h25.22v-40.9h7.53l31.82,40.44h21.69v-2.3s-5.54-.32-9.69-4.47ZM551.05,1221.36v-35.06c0-3.22,4.3-2.45,4.3-2.45h8.61c19.52,0,17.98,14.75,17.98,14.75v7.85c0,14.77-30.9,14.91-30.9,14.91Z"/><path class="cls-3" d="M752.53,1178.01v2.92h-5.38s-5.99-.77-3.69,7.38l21.22,32.44,20.75-32.14s3.85-7.99-8.15-7.99v-2.3h24.44l-33.51,48.43-.16,30.44s-1.84,8,13.22,8v3.53h-27.06v-40.44l-34.44-49.96,32.75-.31Z"/><path class="cls-3" d="M814.8,1178.62v2.31s13.54-1.08,13.54,7.99v79.64h13.83v-81.18s.47-6.3,13.38-6.3v-2.77l-40.75.3Z"/><path class="cls-3" d="M204.94,1109.05l-36.39-85.36-36.87,84.46c-4.09,8.77-10.14,7.66-10.14,7.66v2.67h13.52l11.26-29.22h35.62l11.03,29.4h22.1v-2.85c-8,0-10.14-6.76-10.14-6.76ZM148.99,1083.56l15.3-36.34,15.17,36.34h-30.47Z"/><path class="cls-3" d="M261.65,1028.67h-38.47v2.32s9.56-1.08,11.39,6.4v81.62h31.94s47.54,2.09,47.54-44.39c0,0,2.98-45.95-52.39-45.95ZM299.1,1073.38c-.71,43.09-42.79,39.76-42.79,39.76-8.54-.18-7.65-5.16-7.65-5.16v-72.01c0-2.85,8.54-2.14,8.54-2.14,43.27,0,41.9,39.55,41.9,39.55Z"/><path class="cls-3" d="M317.6,1028.85v2.49s13.21-.94,13.21,8v79.13h14.41v-80.01s-1.2-7.12,13.56-7.12v-2.67l-41.19.18Z"/><path class="cls-3" d="M362.48,1028.67v2.49s11.2,0,11.2,5.7v81.61h61.47l6.94-23.7h-4.1s-4.32,17.84-22.63,17.84h-19.93s-7.52.22-7.52-4.27v-79.66h-25.43Z"/><path class="cls-3" d="M454.54,1028.67v89.62h61.3l6.58-22.64h-4.63s-2.66,17.13-23.53,17.13h-23.17s-2.66.13-2.66-5.2v-33.14h30.11v-5.87h-30.11v-28.87s-.72-5.87,5.87-5.87h23.17s14.59-1.83,14.59,14.59h3.07v-19.75h-60.58Z"/><path class="cls-3" d="M621.24,1055.76l-2.13-19.97s-7.88-8.9-23.18-8.9c0,0-24.6-2-28.16,17.08v10.01s-2.31,9.66,24.6,24.6c0,0,17.48,6.89,17.48,21.34,0,0-.22,15.53-14.63,15.53,0,0-21.57.36-28.69-24.24h-3.74l4.09,28.87h3.2s.67-4.44,4.09-4.44c0,0,12.15,5.34,21.93,4.62,0,0,28.51.71,28.51-24.42,0,0-2.36-17.84-18.55-25.48-16.18-7.65-26.68-17.48-26.68-26.2,0,0-1.29-11.92,13.7-11.92,0,0,16.41-1.95,24.59,23.17l3.56.35Z"/><path class="cls-3" d="M634.89,1028.67l.18,2.49s11.97.89,11.97,6.23v56.13s1.96,26.91,29.57,26.91h12.27s27.44-1.24,27.44-33.67v-49.55s-.22-6.22,12.27-6.22v-2.32h-19.39v58.62s1.78,26.38-19.08,26.38h-10.14s-18.72.53-18.72-19.62v-65.38h-26.38Z"/><path class="cls-3" d="M732.63,1028.68h25.29v80.08s-1.06,4.2,9.52,4.2h17.97s15.71-.34,23.3-17.91h3l-6.2,23.5h-61.57v-80.28s1.26-6.99-11.52-6.99l.2-2.6Z"/><path class="cls-3" d="M812.51,1028.88l-.6,23.1h3.2s1.14-18.51,14.71-17.31h13.78v83.68h14.31v-83.68h14.18s14.77-1.47,14.77,17.11h3.33v-23.1l-77.69.2Z"/><path class="cls-3" d="M977.2,1110.06l-36.39-85.35-36.87,84.46c-4.09,8.76-10.14,7.65-10.14,7.65v2.67h13.52l11.25-29.22h35.63l11.03,29.4h22.11v-2.85c-8,0-10.14-6.76-10.14-6.76ZM921.24,1084.57l15.3-36.34,15.17,36.34h-30.47Z"/><path class="cls-3" d="M992.49,1118.28h19.06v-71.8l61.81,76.1v-85.33s.31-6.3,13.22-6.3v-2.31h-19.07v64.88l-51.65-64.88h-23.84v2.62h4.3s9.07-.78,9.07,7.99v69.81s-.31,6.61-7.84,6.61h-5.07v2.61Z"/><path class="cls-3" d="M331.89,1017.28c0-4.05,3.01-7.33,6.74-7.33s6.73,3.28,6.73,7.33-3.02,7.33-6.73,7.33-6.74-3.28-6.74-7.33Z"/><path class="cls-4" d="M269.47,1387.28v-33.58h3.36v19.3l15.49-19.3h4.27l-13.27,16.36,13.27,17.22h-4.18l-11.22-14.55-4.36,5.36v9.18h-3.36Z"/><path class="cls-4" d="M359.82,1387.28l14.49-33.58h3.73l14.4,33.58h-3.64l-4.85-11.27h-15.63l-4.86,11.27h-3.63ZM369.63,1372.97h12.99l-6.45-15.4-6.54,15.4Z"/><path class="cls-4" d="M465.65,1387.28v-33.58h4.54l18.81,27.85v-27.85h3.36v33.58h-3.36l-20-29.53v29.53h-3.36Z"/><path class="cls-4" d="M562.92,1387.28v-33.58h9.04c5.57,0,9.96,1.3,13.17,3.9,1.91,1.55,3.41,3.46,4.5,5.75,1.09,2.29,1.63,4.64,1.63,7.07,0,4.97-1.83,9.13-5.49,12.5-1.86,1.69-3.97,2.88-6.37,3.54-1.9.54-4.32.82-7.22.82h-9.27ZM566.28,1384.24h4.32c2.76,0,4.86-.16,6.32-.46,2.18-.42,4.12-1.3,5.82-2.64,3.46-2.73,5.18-6.3,5.18-10.72s-1.74-7.9-5.23-10.63c-1.67-1.3-3.59-2.16-5.77-2.59-1.45-.3-3.56-.45-6.32-.45h-4.32v27.49Z"/><path class="cls-4" d="M665.97,1344.98h3.36v5.72h-3.36v-5.72ZM665.97,1387.28v-33.58h3.36v33.58h-3.36Z"/><path class="cls-4" d="M739.89,1387.28v-33.58h3.36v30.53h13.9v3.04h-17.27Z"/><path class="cls-4" d="M827.34,1387.28v-33.58h3.37v30.53h13.9v3.04h-17.27Z"/><path class="cls-4" d="M914.78,1344.98h3.36v5.72h-3.36v-5.72ZM914.78,1387.28v-33.58h3.36v33.58h-3.36Z"/><path class="cls-2" d="M204.66,1296.89s-76.72,45.24-83.15,68.71c0,0-10.69,26.46,18.74,31.57,0,0,20.03-4.72,3.84-9.84,0,0-25.6-8.55-2.56-31.99,0,0,12.82,23.93,11.97,6.43,0,0-9.37-14.96,35.83-44.82,0,0,14.49-9.37,15.34-11.5l2.98-2.56s7.67-12.43-2.98-6ZM168.4,1327.18c-23.05,18.32-20.06,32.89-20.06,32.89-4.29-3.41-4.69-12.39-4.69-12.39-2.13-1.28-11.5,11.54-11.5,11.54-14.48,25.18,10.65,32.85,10.65,32.85l-4.69,1.27c-7.24-1.7-11.5-8.13-11.5-8.13-15.34-17.51,20.87-44.78,20.87-44.78,5.54-7.24,38.85-26.88,38.85-26.88l-17.94,13.64Z"/><path class="cls-2" d="M249.05,1241.04c-8.09-1.28-15.81-6.86-15.81-6.86-15.37-16.65-21.72-12.79-21.72-12.79-13.64,3.41-10.27,23.48-10.27,23.48-9.41,18.78-37.53,16.19-37.53,16.19l-5.54.85c-36.67-6.43-41.41-29.44-41.41-29.44-5.57-10.69-6.82-1.27-6.82-1.27-.42,25.6,31.99,39.7,31.99,39.7-38.42,1.27-63.98-39.28-63.98-39.28-17.51-6.43,13.25,33.7,13.25,33.7-24.29-5.14-40.98-36.68-40.98-36.68-15.8-18.79-8.95-1.28-8.95-1.28,14.95,33.27,32.84,46.52,32.84,46.52-35.4-16.18-49.92-51.63-49.92-51.63-11.54-15.38-5.11,5.11-5.11,5.11,17.89,42.65,44.39,51.63,44.39,51.63,41.41,19.64,74.21,14.91,74.21,14.91-32.85,9.37-67.4-6.82-67.4-6.82-32.42-15.37-42.26-36.26-42.26-36.26-41.4-64.83.89-119.02.89-119.02,7.28-16.23-2.59-5.54-2.59-5.54-16.66,20.07-24.71,49.89-24.71,49.89-12.78,88.27,53.72,119.02,53.72,119.02,65.27,33.7,124.57,1.28,124.57,1.28-19.64,17.04-38.81,15.8-38.81,15.8l-.43,4.69c17.9,1.71,28.16-1.7,28.16-1.7,58.45-23.47,56.32-70.8,56.32-70.8,31.99,10.26,33.7,2.12,33.7,2.12,2.55-7.67-9.8-5.53-9.8-5.53ZM159.46,1299.49s-40.98,17.51-85.33,0c0,0-62.7-21.77-67.82-78.94,0,0-5.11-34.5-.42-43.5,0,0-1.28,36.22,6.81,50.75,0,0,11.51,49.03,63.56,65.68,0,0,35.4,17.47,92.99-3.41l-1.27-3.83s-75.53,14.56-115.62-17.9c0,0-25.22-22.15-23.9-28.15,0,0,21.81,25.6,35.44,31.99,0,0,21.34,16.2,64.84,14.49v-3.83s-55.93,4.73-77.24-41.79c0,0,24.75,29.01,48.23,31.14l2.55-3.4s-22.62-18.79-20.91-25.18c0,0,20.07,23.9,46.52,30.29,0,0,27.69,7.28,20.02-5.54,0,0-25.6-9.8-31.14-23.05,0,0,13.67,16.15,40.56,20.45l7.24.42s16.61,0,32.42-9.37c0,0,5.96-5.54,8.52-10.23,0,0-4.22-20.49,6.01-19.64,0,0,4.64,23.09-10.27,43.11,0,0-18.32,27.31-41.79,29.44ZM220.89,1238.49c3.41,22.62-13.67,43.06-13.67,43.06-16.23,25.6-45.2,30.71-45.2,30.71,41.36-21.34,49.92-54.18,49.92-54.18,3.87-5.12,3.83-32,3.83-32l14.91,11.12c3.41,3.45,18.78,8.52,18.78,8.52-9.37-.43-28.58-7.24-28.58-7.24Z"/></g></svg>