<svg width="67" height="24" viewBox="0 0 67 24" fill="none" xmlns="http://www.w3.org/2000/svg">
<g clip-path="url(#clip0_2_3329)">
<path d="M30.7733 17.2103C30.0158 19.8944 27.8461 21.6853 25.2462 21.6853C22.0571 21.6853 19.9973 18.8586 19.9973 14.573V14.3392C19.9973 14.2433 19.9973 14.0586 20.0277 13.7874L32.4053 13.7617C32.5151 10.6264 31.5869 7.90491 30.0836 6.4413C28.8964 5.2529 27.3077 4.55152 25.6296 4.47501C25.5197 4.47501 25.4098 4.47501 25.2976 4.47501C20.5584 4.47501 17.4324 8.66244 17.4324 14.6338C17.4324 19.2935 19.7214 23.986 25.2462 23.986C28.4189 23.986 31.0913 22.181 32.9477 18.7675L33.0389 18.5991L30.8692 16.8596L30.7733 17.2103ZM25.1106 6.70783C25.1503 6.70783 25.5174 6.70783 25.5174 6.70783C26.5497 6.73647 27.5292 7.17077 28.2435 7.9166C29.0876 8.77467 29.7212 10.0863 29.8802 12.0316L20.341 12.0432C21.0541 8.57359 22.7842 6.81539 25.1199 6.71719" fill="#FA5373"/>
<path d="M9.52284 13.2614C8.6356 13.5866 7.69451 13.7397 6.74993 13.7126C5.28712 13.6501 3.87423 13.1626 2.68407 12.3098V2.36376H6.79435C10.8719 2.36376 13.079 4.7018 13.1562 7.76464C13.1445 10.1541 11.8001 12.4407 9.52284 13.2614ZM7.24559 0H0.0116909C0.0116909 0.750511 0 3.76659 0 8.96406V23.7872H2.87579L2.85241 23.5347C2.70278 21.9378 2.68407 20.3643 2.68407 19.1719V14.1662C3.50076 14.7497 4.41886 15.1763 5.39152 15.4241C6.97038 15.8419 8.6321 15.8315 10.2056 15.3937C13.5396 14.4795 15.7187 11.3863 15.8426 8.03819C15.8426 7.88387 15.8566 7.72956 15.8566 7.57058C15.8519 3.40185 12.4828 0 7.24559 0V0Z" fill="#FA5373"/>
<path d="M50.0294 19.0737V10.7737C50.0294 6.81304 48.0772 4.54047 44.673 4.54047C42.1666 4.54047 39.5293 6.6073 38.0937 9.59064V5.66974H35.2273L35.2507 5.92225C35.3652 7.16843 35.4167 8.51514 35.4167 10.285V23.689H38.0937V14.9518C38.0937 10.5095 41.4909 7.00242 44.3012 7.00242C46.3704 7.00242 47.3734 8.26965 47.3734 11.0168V23.696H50.1791L50.1627 23.4482C50.0692 22.1366 50.0271 20.7501 50.0271 19.0807" fill="#FA5373"/>
<path d="M64.8737 3.49071C65.2002 3.49117 65.5196 3.39475 65.7914 3.21366C66.0631 3.03256 66.275 2.77493 66.4003 2.47335C66.5256 2.17177 66.5587 1.83981 66.4952 1.51946C66.4318 1.19911 66.2748 0.90477 66.044 0.673688C65.8133 0.442605 65.5191 0.285162 65.1989 0.221281C64.8786 0.1574 64.5466 0.189954 64.2449 0.314819C63.9431 0.439684 63.6852 0.651251 63.5037 0.92275C63.3222 1.19425 63.2253 1.51348 63.2253 1.84005C63.2253 2.27742 63.3989 2.69692 63.708 3.00641C64.017 3.31591 64.4363 3.49009 64.8737 3.49071" fill="#FA5373"/>
<path d="M66.2975 23.4482L66.3162 23.696H63.5106V5.69312H66.1666V19.0901C66.1666 20.7571 66.2087 22.1459 66.2998 23.4576" fill="#FA5373"/>
<path d="M56.6087 7.87687H60.5997V5.66743H56.597V0.364746H53.976V5.66743H52.2412V7.87687H53.962V19.0574C53.962 20.7478 55.0422 23.6049 59.0847 23.6049H60.3776V20.9582H59.0847C58.0957 20.9582 57.3966 20.7104 57.0038 20.2241C56.7494 19.8874 56.6115 19.477 56.611 19.0551L56.6087 7.87687Z" fill="#FA5373"/>
</g>
<defs>
<clipPath id="clip0_2_3329">
<rect width="66.5243" height="24" fill="white"/>
</clipPath>
</defs>
</svg>
