<?xml version="1.0" encoding="UTF-8"?><svg id="b" xmlns="http://www.w3.org/2000/svg" width="155.991mm" height="61.2789mm" viewBox="0 0 442.1792 173.7041"><defs><style>.d{fill:#bc9b6a;}</style></defs><g id="c"><path class="d" d="m334.7339,16.791l-14.0879,35.9864c-.5058,1.2617-.7656,2.2304-.7656,2.9863,0,1.5459,1.1191,2.585,3.5195,3.5127h-18.1855c3.5137-1.542,4.5312-2.4756,5.8086-5.3975L334.7339.3457l23.7246,53.5332c1.2735,2.9219,2.293,3.8555,5.8125,5.3975h-18.1855c2.4043-.9277,3.5234-1.9668,3.5234-3.5127,0-.7559-.2519-1.7246-.7871-2.9863l-14.0879-35.9864Z"/><path class="d" d="m32.4917,6.1748c-13.3803,0-22.0273,9.336-22.0273,23.4893,0,14.3144,8.2925,23.6992,21.8467,23.6992,12.5835,0,18.5986-8.708,18.5986-8.708l-1.0332,11.8506c-8.8276,2.6299-12.8457,3.4033-19.1064,3.4033C11.6841,59.9092,0,46.5889,0,30.1074,0,12.9434,12.8697.5176,30.6949.5176c7.853,0,12.8305,1.3633,15.0805,1.3633,1.4424,0,2.23-.4102,3.2456-1.8809v13.7129s-4.0761-7.5381-16.5293-7.5381"/><path class="d" d="m103.2383.5029c-16.9829,0-28.6416,11.919-28.6416,29.2442,0,17.1299,12.4444,30.1621,28.6416,30.1621,16.1841,0,28.5186-13.0322,28.5186-30.1621,0-17.3252-11.6573-29.2442-28.5186-29.2442m-.3638,52.9551c-10.5288,0-18.6655-10.3652-18.6655-23.8047,0-13.3027,8.2212-23.0566,19.3496-23.0566,11.3091,0,18.6885,9.1494,18.6885,23.3154,0,13.7969-8.0708,23.5459-19.3726,23.5459"/><path class="d" d="m201.0957,42.166V11.3047c0-6.1514-.6035-7.1777-4.9731-8.6269h16.9595c-3.9551,1.8847-4.2207,2.582-4.2207,8.7587v48.9834l-43.6719-41.5097v32.0429c0,5.5782.6841,6.6163,5.397,8.3399h-18.1802c3.4883-1.2676,4.8491-2.7617,4.8491-8.2568V.4512l43.8403,41.7148Z"/><path class="d" d="m277.4527,16.6387c0,11.7891-10.2422,13.6973-10.2422,13.6973l11.0254,13.3437c4.9199,6.1777,9.998,12.4824,14.8867,15.5732h-12.2676l-24.1289-29.6386c5.8262-1.211,11.2246-4.7031,11.2246-11.4209,0-5.3203-4.2812-9.6387-10.6894-9.6387-3.1465,0-5.418.6875-5.418.6875v38.0137c0,3.957.0391,10.4726,5.293,12.0185l-1.4395-.0215h-15.7363l-1.3867.0215c5.5351-1.5459,5.1406-8.1513,5.1406-12.0185V14.9434c0-3.9531.6797-10.626-4.252-12.0821h20.125c7.5157,0,17.8653,2.8165,17.8653,13.7774"/><path class="d" d="m433.9566,31.1035c0-19.0761-14.2676-28.2548-32.8496-28.2548h-21.3008c4.8223,1.7001,5.0566,2.9326,5.0566,8.416v39.7754c0,5.5087-1.2422,6.9638-5.0566,8.2343h18.2539c22.0879,0,35.8965-10.0517,35.8965-28.1709m-32.1563,21.5743h-4.209c-3.5117,0-4.705-1.3741-4.705-5.4063V8.3975h8.1406c14.1367,0,22.8047,9.3681,22.8047,22.9111,0,13.2793-9.0879,21.3692-22.0313,21.3692"/><path class="d" d="m436.6245,7.0391c.1211.0888.3418.1387.4903.1387.1719,0,.3691-.0118.5293-.1094.2832-.1612.416-.5176.416-1.0459,0-.7627-.4277-1.2656-1.1172-1.2656-.1348,0-.2461.0107-.3184.0498v2.2324Zm0,.4941v.5655c0,1.1914.0469,1.2646.1094,1.3398.0469.0615.1582.0859.4707.0859.0684,0,.1055.0244.1192.0987-.0137.0742-.0508.1113-.1368.1113h-.2324c-.0879,0-.5156-.0254-.8613-.0254-.3281,0-.7129.0254-.8086.0254h-.2227c-.0605,0-.1132-.0371-.1132-.0996,0-.0645.0527-.0977.1367-.0977.4316-.0127.5039-.0371.5293-.3789.0254-.2627.0254-.6152.0254-1.4785v-1.2412c0-.8106.0136-1.167-.0137-1.4746-.0254-.2949-.1973-.3672-.5781-.3799-.0723,0-.1114-.0361-.1114-.1094,0-.0625.0645-.0879.1485-.0879h.207c.0879,0,.5195.0254.8516.0254.2695,0,.4531-.0254.873-.0254.9844,0,1.3125.1504,1.5352.3067.2324.1728.4785.4551.4785.959,0,.4795-.1582.9238-.9336,1.6113.6641.7637,1.168,1.4141,1.5586,1.8437.2363.2559.4434.4297.5664.4297.0996,0,.127.0479.127.1114,0,.0488-.0274.0859-.1524.0859h-.293c-.3066,0-.6503-.0137-.8847-.1348-.293-.1611-.5664-.5068-.959-1.0312-.2832-.3848-.5645-.8399-.7012-1.0352h-.7344Zm.6993,3.8086c2.3476,0,4.0664-1.8662,4.0664-4.2392,0-2.2852-1.7813-4.2364-4.0664-4.2364-2.3594,0-4.0938,1.8272-4.0938,4.2364,0,2.3252,1.8184,4.2392,4.0938,4.2392m-4.8789-4.2246c0-2.6797,2.1504-4.831,4.8789-4.831,2.7754,0,4.8554,2.0654,4.8554,4.831,0,2.6621-2.1543,4.8027-4.8554,4.8027-2.8028,0-4.8789-2.0507-4.8789-4.8027"/><path class="d" d="m109.7085,109.3867c0-5.1582,0-6.1182-.04-7.1982-.0801-1.1602-.4399-1.5596-1.2002-1.7998-.3999-.1201-.8398-.1602-1.2798-.1602-.3599,0-.5596-.0801-.5596-.3994,0-.2002.2798-.2803.8398-.2803,1.3198,0,3.7192.0801,4.7192.0801.8799,0,3.1592-.0801,4.519-.0801.4399,0,.7197.0801.7197.2803,0,.3193-.1997.3994-.5596.3994s-.6401.04-1.04.1201c-.96.1602-1.2397.6396-1.3198,1.8398-.0801,1.0801-.0801,2.04-.0801,7.1982v5.999c0,3.2803,0,5.999.1602,7.4395.1201.9199.3599,1.4395,1.3999,1.5996.48.0801,1.2798.1201,1.7998.1201.3999,0,.5596.1992.5596.3594,0,.2402-.2798.3604-.6797.3604-2.3198,0-4.7192-.1201-5.6792-.1201-.7998,0-3.1992.1201-4.5991.1201-.4399,0-.6797-.1201-.6797-.3604,0-.1602.1196-.3594.5596-.3594.52,0,.9199-.04,1.2397-.1201.7202-.1602.9199-.6396,1.04-1.6396.1602-1.4004.1602-4.1191.1602-7.3994v-5.999Z"/><path class="d" d="m128.0684,124.8242c-.5601-.2393-.6797-.3994-.6797-1.1592,0-1.8398.1597-3.96.1997-4.5195,0-.5195.1602-.8799.4399-.8799.3198,0,.3599.3203.3599.5596,0,.4404.1201,1.1602.3203,1.7598.7598,2.5195,3.3994,3.3594,5.5986,3.3594,3.0396,0,4.8794-1.9189,4.8794-4.3193,0-1.4795-.3599-2.959-3.4795-4.7988l-2.0396-1.2002c-4.1592-2.4395-5.519-4.7188-5.519-7.7178,0-4.1602,3.999-6.8389,8.8784-6.8389,2.2798,0,4.0791.3193,4.999.5596.3203.0801.48.2002.48.4395,0,.4404-.1201,1.4004-.1201,4.0801,0,.7197-.1597,1.0791-.4399,1.0791-.2397,0-.3599-.1992-.3599-.5996,0-.3203-.1597-1.3594-.9199-2.2393-.5195-.6406-1.6396-1.5996-3.9189-1.5996-2.5195,0-4.7993,1.3193-4.7993,3.6387,0,1.5205.5601,2.7197,3.7192,4.4795l1.4399.7998c4.6392,2.5596,6.0791,5.1592,6.0791,8.2383,0,2.5195-.96,4.5596-3.5195,6.3594-1.6797,1.2002-3.9995,1.3994-5.8789,1.3994-2.04,0-4.1997-.1992-5.7192-.8799Z"/><path class="d" d="m160.2671,101.6289l-5.2393.1191c-2.0396.04-2.8794.2803-3.3994,1.04-.3599.4805-.52.9199-.6001,1.1602-.0801.2803-.1597.4395-.3999.4395-.2397,0-.3198-.1992-.3198-.5596,0-.5596.6797-3.8398.7598-4.1191.0801-.4404.2002-.6396.3999-.6396.2803,0,.6401.2793,1.52.3994,1.0396.1201,2.3594.1602,3.519.1602h14.2778c1.1196,0,1.8794-.0801,2.3994-.1602.5601-.0801.8398-.1602.96-.1602.2397,0,.2798.2002.2798.7197,0,.7207-.0796,3.2402-.0796,4.1201-.04.3594-.1201.5596-.3203.5596-.2798,0-.3599-.1602-.3999-.6797l-.04-.3604c-.0801-.8799-.9995-1.9199-4.1592-1.96l-4.4395-.0791v13.7568c0,3.1201.04,5.7998.2002,7.2793.1201.96.3198,1.5996,1.3599,1.7598.48.0801,1.2798.1201,1.7998.1201.3999,0,.5596.1992.5596.3594,0,.2402-.2798.3604-.6797.3604-2.3198,0-4.6792-.1201-5.6792-.1201-.7998,0-3.1992.1201-4.5991.1201-.4399,0-.6797-.1201-.6797-.3604,0-.1602.1196-.3594.5596-.3594.52,0,.96-.04,1.2397-.1201.7202-.1602.9199-.7998,1.04-1.7998.1602-1.4395.1602-4.1191.1602-7.2393v-13.7568Z"/><path class="d" d="m184.0274,116.7061c-.2002,0-.2397.04-.3198.2402l-1.8799,4.5586c-.3599.8398-.52,1.6797-.52,2.0801,0,.5996.3203.96,1.3999.96h.52c.4399,0,.52.1602.52.3594,0,.2803-.2002.3604-.5601.3604-1.1597,0-2.7998-.1201-3.9194-.1201-.3599,0-2.2397.1201-4.0791.1201-.4399,0-.6401-.0801-.6401-.3604,0-.1992.1201-.3594.3999-.3594.3198,0,.7202-.04,1.04-.04,1.5996-.2402,2.1997-1.2803,2.9194-3l9.1982-21.3965c.3999-.96.6802-1.3594,1.04-1.3594.52,0,.6797.3203,1.0396,1.0801.8403,1.8789,6.7192,15.7969,8.959,20.9561,1.3594,3.0791,2.3594,3.5195,2.999,3.6396.52.0801.9199.1201,1.3198.1201.3203,0,.48.1201.48.3594,0,.2803-.1997.3604-1.5195.3604-1.2397,0-3.7993,0-6.7588-.0801-.6401-.04-1.04-.04-1.04-.2803,0-.1992.0801-.3193.4399-.3594.2397-.04.48-.3604.3198-.7598l-2.7192-6.8389c-.0801-.2002-.2002-.2402-.3599-.2402h-8.2788Zm7.5186-1.8799c.1602,0,.2002-.0801.1602-.2002l-3.3193-8.6387c-.04-.1191-.0801-.3193-.1602-.3193-.1201,0-.1602.2002-.1997.3193l-3.3994,8.5986c-.0801.1602,0,.2402.1196.2402h6.7988Z"/><path class="d" d="m213.9869,120.625c.0801,2.6396.52,3.4395,1.2002,3.6797.5996.2002,1.2798.2402,1.8394.2402.3999,0,.6001.1602.6001.3594,0,.2803-.3198.3604-.7998.3604-2.2798,0-3.9194-.1201-4.5596-.1201-.3198,0-1.9995.1201-3.7993.1201-.48,0-.7998-.04-.7998-.3604,0-.1992.2402-.3594.5601-.3594.48,0,1.1196-.04,1.5996-.1602.9199-.2402,1.04-1.1602,1.0801-4.1191l.3198-20.1572c0-.6797.2397-1.1592.5996-1.1592.4399,0,.9199.5195,1.52,1.1191.4399.4404,5.7188,5.8398,10.8379,10.8389,2.3994,2.3594,7.0791,7.1582,7.5986,7.6387h.1602l-.3604-15.1182c-.04-2.0791-.3594-2.6787-1.1992-2.999-.5205-.2002-1.3604-.2002-1.8398-.2002-.4404,0-.5596-.1602-.5596-.3594,0-.2803.3594-.3203.8789-.3203,1.8398,0,3.7197.0801,4.4795.0801.4004,0,1.7197-.0801,3.4395-.0801.4805,0,.7998.04.7998.3203,0,.1992-.1992.3594-.5996.3594-.3604,0-.6396,0-1.0801.1201-.96.2803-1.2393.8799-1.2793,2.7998l-.4004,21.4365c0,.7598-.2793,1.0791-.5596,1.0791-.5996,0-1.0801-.3594-1.4395-.7197-2.2002-2.0391-6.5996-6.2383-10.2783-9.7979-3.8394-3.6797-7.5591-7.7988-8.2388-8.3984h-.1201l.3999,13.877Z"/><path class="d" d="m249.4273,109.3867c0-5.1582,0-6.1182-.04-7.1982-.0801-1.1602-.4004-1.5195-1.5205-1.8398-.2793-.0801-.8799-.1201-1.3994-.1201-.3604,0-.5996-.1201-.5996-.3594,0-.2402.2793-.3203.7998-.3203,1.8398,0,4.0791.0801,4.7588.0801,1.7598,0,4.0791-.0801,5.2793-.0801,6.3594,0,7.4785,3.2793,7.4785,5.0791,0,2.6396-1.959,4.6797-3.959,5.959,2.8789.9199,6.4785,3.3594,6.4785,7.3584,0,3.6396-2.8789,7.3994-9.3584,7.3994-.3994,0-1.5996-.04-2.7988-.1201-1.2002-.04-2.4404-.0801-3-.0801-.4004,0-1.1602.04-2,.04-.8398.04-1.7197.0801-2.4395.0801-.4395,0-.6797-.1201-.6797-.3604,0-.1602.1201-.3594.5596-.3594.5205,0,.9199-.04,1.2402-.1201.7197-.1602.9199-.7998,1.04-1.7998.1602-1.4395.1602-4.1191.1602-7.2393v-5.999Zm4.5586.5605c0,.2793.1201.3193.2402.3594.3203.0801.8398.1201,1.6396.1201,1.1602,0,2.1592-.1201,2.7598-.5996.9199-.7197,1.5996-1.96,1.5996-3.5996,0-2.2793-1.3604-5.1191-4.3994-5.1191-.4795,0-1.1602,0-1.5195.0801-.2402.04-.3203.2002-.3203.5596v8.1992Zm0,9.998c0,2.2393.1201,2.9199,1.2402,3.3594.9199.3604,1.7197.4004,2.5195.4004,1.8799,0,4.3193-1.04,4.3193-4.7998,0-1.5596-.6807-4.2393-3.3193-6.0391-.7207-.5195-1.6797-.8799-3.04-.8799h-1.5195c-.1201,0-.2002.04-.2002.2402v7.7188Z"/><path class="d" d="m277.5074,109.3867c0-5.1582.04-6.1182-.04-7.1982-.0801-1.2002-.4004-1.5195-1.5195-1.8398-.2803-.0801-.8799-.1201-1.3604-.1201-.3994,0-.5996-.1201-.5996-.3594,0-.2402.2402-.3203.7598-.3203,1.8799,0,4.2393.0801,5.2793.0801.8799,0,3.2393-.0801,4.5195-.0801.5195,0,.7598.0801.7598.3203,0,.2393-.2002.3594-.5605.3594-.3994,0-.5996.04-1.0391.1201-.9199.1602-1.2002.6396-1.2803,1.8398-.0801,1.0801-.0801,2.04-.0801,7.1982v4.7598c0,4.959.96,6.8789,2.6797,8.2383,1.5596,1.2402,3.2393,1.3604,4.4395,1.3604,1.5195,0,3.3193-.4404,4.7188-1.7998,1.96-1.8398,2.04-4.7998,2.04-8.2793v-4.2793c0-5.1582-.04-6.1182-.0801-7.1982-.0801-1.1602-.3604-1.5195-1.4795-1.8398-.2803-.0801-.8799-.1201-1.2803-.1201-.3994,0-.5996-.1201-.5996-.3594,0-.2402.2402-.3203.7197-.3203,1.7998,0,4.1592.0801,4.1992.0801.4004,0,2.7598-.0801,4.1191-.0801.4805,0,.7197.0801.7197.3203,0,.2393-.1992.3594-.5996.3594-.3994,0-.5996.04-1.04.1201-.96.1602-1.1992.6396-1.2793,1.8398-.04,1.0801-.0801,2.04-.0801,7.1982v3.6396c0,3.7998-.4004,7.7988-3.3594,10.2383-2.4795,2.0801-5.1592,2.4395-7.4385,2.4395-1.8398,0-5.4795-.0801-8.0391-2.3193-1.7998-1.5596-3.1992-4.0791-3.1992-8.998v-5Z"/><path class="d" d="m317.3462,115.3858c0,4.3594,0,6.5195.7607,7.1592.5996.5195,1.959.7197,4.6787.7197,1.8799,0,3.2393-.04,4.1191-.96.4404-.4395.7998-1.3994.8799-2.0391.04-.3203.1201-.5205.4004-.5205.2393,0,.3193.3604.3193.7598,0,.4004-.2393,2.9199-.5195,3.9199-.2402.7598-.4004.9199-2.2393.9199-2.5195,0-4.5596-.04-6.3193-.1201-1.7598-.04-3.2393-.0801-4.6787-.0801-.4004,0-1.1602.04-2,.04-.8398.04-1.7197.0801-2.4395.0801-.4404,0-.6797-.1201-.6797-.3604,0-.1602.1191-.3594.5596-.3594.5195,0,.9199-.04,1.2393-.1201.7207-.1602.9199-.7998,1.04-1.7998.1602-1.4395.1602-4.1191.1602-7.2393v-5.999c0-5.1582,0-6.1182-.04-7.1982-.0801-1.1602-.3994-1.5195-1.5195-1.8398-.2803-.0801-.7197-.1201-1.1602-.1201-.3994,0-.5996-.1201-.5996-.3594,0-.2402.2402-.3203.7598-.3203,1.6396,0,3.8789.0801,4.8389.0801.8398,0,3.7197-.0801,5.0791-.0801.5205,0,.7598.0801.7598.3203,0,.2393-.1992.3594-.6396.3594-.3994,0-.96.04-1.3594.1201-.96.1602-1.2402.6396-1.3203,1.8398-.0801,1.0801-.0801,2.04-.0801,7.1982v5.999Z"/><path class="d" d="m81.8482,157.3867c0-5.1582,0-6.1182-.04-7.1982-.0801-1.1602-.3999-1.5195-1.52-1.8398-.2798-.0801-.8799-.1201-1.3999-.1201-.3599,0-.5996-.1201-.5996-.3594,0-.2402.2798-.3203.7998-.3203,1.8398,0,4.0791.0801,4.7593.0801,1.7598,0,4.0791-.0801,5.2788-.0801,6.3594,0,7.479,3.2793,7.479,5.0791,0,2.6396-1.9595,4.6797-3.9595,5.959,2.8794.9199,6.479,3.3594,6.479,7.3584,0,3.6396-2.8794,7.3994-9.3584,7.3994-.3999,0-1.5996-.04-2.7993-.1201-1.2002-.04-2.4399-.0801-2.9995-.0801-.4004,0-1.1602.04-2,.04-.8398.04-1.7197.0801-2.4395.0801-.4399,0-.6797-.1201-.6797-.3604,0-.1602.1196-.3594.5596-.3594.52,0,.9199-.04,1.2397-.1201.7202-.1602.9199-.7998,1.04-1.7998.1602-1.4395.1602-4.1191.1602-7.2393v-5.999Zm4.5591.5605c0,.2793.1201.3193.2397.3594.3203.0801.8398.1201,1.6396.1201,1.1602,0,2.1597-.1201,2.7598-.5996.9199-.7197,1.5996-1.96,1.5996-3.5996,0-2.2793-1.3599-5.1191-4.3994-5.1191-.4795,0-1.1597,0-1.5195.0801-.2397.04-.3198.2002-.3198.5596v8.1992Zm0,9.998c0,2.2393.1201,2.9199,1.2397,3.3594.9199.3604,1.7197.4004,2.5195.4004,1.8799,0,4.3193-1.04,4.3193-4.7998,0-1.5596-.6802-4.2393-3.3193-6.0391-.7202-.5195-1.6797-.8799-3.0396-.8799h-1.52c-.1196,0-.1997.04-.1997.2402v7.7188Z"/><path class="d" d="m107.6089,160.3867c0-5.7988,4.0791-13.3174,14.7573-13.3174,8.8784,0,14.3975,4.9189,14.3975,12.7178s-5.6792,13.917-14.7573,13.917c-10.2383,0-14.3975-7.2783-14.3975-13.3174Zm23.9155.6396c0-7.5186-4.519-12.1582-10.1982-12.1582-3.9189,0-8.5186,2.0801-8.5186,10.4785,0,6.999,3.9995,12.5176,10.6382,12.5176,2.48,0,8.0786-1.1592,8.0786-10.8379Z"/><path class="d" d="m146.6084,172.8242c-.5601-.2393-.6797-.3994-.6797-1.1592,0-1.8398.1597-3.96.1997-4.5195,0-.5195.1602-.8799.4399-.8799.3198,0,.3599.3203.3599.5596,0,.4404.1201,1.1602.3203,1.7598.7598,2.5195,3.3994,3.3594,5.5986,3.3594,3.0396,0,4.8794-1.9189,4.8794-4.3193,0-1.4795-.3599-2.959-3.4795-4.7988l-2.0396-1.2002c-4.1592-2.4395-5.519-4.7188-5.519-7.7178,0-4.1602,3.999-6.8389,8.8784-6.8389,2.2798,0,4.0791.3193,4.999.5596.3203.0801.48.2002.48.4395,0,.4404-.1201,1.4004-.1201,4.0801,0,.7197-.1597,1.0791-.4399,1.0791-.2397,0-.3599-.1992-.3599-.5996,0-.3203-.1597-1.3594-.9199-2.2393-.5195-.6406-1.6396-1.5996-3.9189-1.5996-2.5195,0-4.7993,1.3193-4.7993,3.6387,0,1.5205.5601,2.7197,3.7192,4.4795l1.4399.7998c4.6392,2.5596,6.0791,5.1592,6.0791,8.2383,0,2.5195-.96,4.5596-3.5195,6.3594-1.6797,1.2002-3.9995,1.3994-5.8789,1.3994-2.04,0-4.1997-.1992-5.7192-.8799Z"/><path class="d" d="m173.3277,157.3867c0-5.1582,0-6.1182-.0396-7.1982-.0801-1.1602-.3999-1.5195-1.52-1.8398-.2798-.0801-.8799-.1201-1.3999-.1201-.3599,0-.5996-.1201-.5996-.3594,0-.2402.2798-.3203.7998-.3203,1.8398,0,4.0791.0801,5.0791.0801,1.4399,0,4.2393-.0801,5.8389-.0801,4.3994,0,5.999,1.4395,6.5591,1.9199.7598.7197,1.7598,2.2393,1.7598,4.0791,0,4.7988-3.8394,8.2383-8.8384,8.2383-.1602,0-.8799,0-1.04-.04-.1997,0-.4399-.1201-.4399-.3594,0-.2803.3999-.4404,1.1597-.4404,1.96,0,4.7192-2.0391,4.7192-5.5186,0-1.1201-.1196-3.3594-2.0796-5.0391-1.2798-1.1201-2.7192-1.2803-3.5195-1.2803-.5195,0-1.1997.04-1.5195.1602-.2002.0801-.2798.2803-.2798.6396v13.4775c0,3.1201,0,5.7998.1597,7.2793.1201.96.3198,1.5996,1.3599,1.7598.52.0801,1.2798.1201,1.7998.1201.3999,0,.5601.1992.5601.3594,0,.2402-.2803.3604-.6401.3604-2.3594,0-4.8394-.1201-5.7588-.1201-.8003,0-3.0396.1201-4.4395.1201-.4399,0-.6797-.1201-.6797-.3604,0-.1602.1196-.3594.5596-.3594.52,0,.9199-.04,1.2397-.1201.7202-.1602.9199-.7998,1.04-1.7998.1597-1.4395.1597-4.1191.1597-7.2393v-5.999Z"/><path class="d" d="m219.4048,158.627c.0801,0,.1997-.04.1997-.2402v-.7197c0-5.1592-.04-6.3984-.0801-7.4785-.0796-1.1602-.3999-1.5195-1.5195-1.8398-.2798-.0801-.8799-.1201-1.3599-.1201-.3999,0-.5996-.1201-.5996-.3594,0-.2402.2397-.3203.7598-.3203,1.8794,0,4.3594.0801,5.2783.0801.8408,0,3.1602-.0801,4.5195-.0801.5205,0,.7598.0801.7598.3203,0,.2393-.2393.3594-.6396.3594-.2803,0-.5996.04-1.04.1201-.9199.1602-1.1992.6396-1.2793,1.8398-.0801,1.0801-.0801,2.04-.0801,7.1982v5.999c0,3.1201,0,5.7998.1602,7.2793.1201.96.3193,1.5996,1.3994,1.7598.4795.0801,1.2402.1201,1.7998.1201.3604,0,.5596.1992.5596.3594,0,.2402-.2793.3604-.7197.3604-2.2793,0-4.5986-.1201-5.5586-.1201-.7998,0-3.2798.1201-4.6392.1201-.48,0-.7603-.1201-.7603-.3604,0-.1602.1602-.3594.5601-.3594.5601,0,.96-.04,1.2798-.1201.7197-.1602.9199-.7998,1.04-1.7998.1597-1.4395.1597-4.0391.1597-7.1592v-2.5996c0-.1191-.1196-.1992-.1997-.1992h-13.2778c-.1201,0-.2402.04-.2402.1992v2.5996c0,3.1201.04,5.7197.2002,7.1992.1201.96.3198,1.5996,1.3599,1.7598.48.0801,1.2798.1201,1.7998.1201.3999,0,.5596.1992.5596.3594,0,.2402-.2798.3604-.7197.3604-2.2798,0-4.7192-.1201-5.7192-.1201-.7998,0-3.1191.1201-4.519.1201-.4399,0-.6797-.1201-.6797-.3604,0-.1602.1196-.3594.5596-.3594.52,0,.9199-.04,1.2397-.1201.7202-.1602.9199-.7998,1.04-1.7998.1597-1.4395.1597-4.1191.1597-7.2393v-5.999c0-5.1582,0-6.1182-.0396-7.1982-.0801-1.1602-.3999-1.5195-1.52-1.8398-.2798-.0801-.8799-.1201-1.3999-.1201-.3599,0-.5996-.1201-.5996-.3594,0-.2402.2798-.3203.7598-.3203,1.8799,0,4.1992.0801,5.1592.0801.8398,0,3.2793-.0801,4.6792-.0801.48,0,.7197.0801.7197.3203,0,.2393-.1997.3594-.6396.3594-.2803,0-.6001.04-1,.1201-.96.1602-1.2397.6396-1.3198,1.8398-.0801,1.0801-.0801,2.3193-.0801,7.4785v.7197c0,.2002.1201.2402.2402.2402h13.2778Z"/><path class="d" d="m235.6089,160.3867c0-5.7988,4.0791-13.3174,14.7568-13.3174,8.8789,0,14.3975,4.9189,14.3975,12.7178s-5.6787,13.917-14.7568,13.917c-10.2383,0-14.3975-7.2783-14.3975-13.3174Zm23.915.6396c0-7.5186-4.5186-12.1582-10.1982-12.1582-3.9189,0-8.5186,2.0801-8.5186,10.4785,0,6.999,4,12.5176,10.6387,12.5176,2.4795,0,8.0781-1.1592,8.0781-10.8379Z"/><path class="d" d="m275.3277,157.3867c0-5.1582,0-6.1182-.04-7.1982-.0801-1.1602-.3994-1.5195-1.5195-1.8398-.2803-.0801-.8799-.1201-1.4004-.1201-.3594,0-.5996-.1201-.5996-.3594,0-.2402.2803-.3203.7998-.3203,1.8398,0,4.0791.0801,4.7998.0801,1.1992,0,4.3984-.0801,5.4785-.0801,2.2402,0,4.7998.2002,6.6787,1.4395,1,.6807,2.4795,2.3994,2.4795,4.6797,0,2.5195-1.4395,4.7588-4.8789,7.5186,3.1201,3.8398,5.5996,6.9189,7.7188,9.0381,1.96,1.96,3.1992,2.1201,3.7598,2.2402.3594.0801.5596.0801.8398.0801.2793,0,.4395.1992.4395.3594,0,.2803-.2393.3604-.6797.3604h-3.3594c-1.96,0-2.9199-.2002-3.8398-.6797-1.5195-.7598-2.8389-2.3604-4.7988-4.999-1.3994-1.8398-2.8799-4.1201-3.3193-4.6396-.2002-.2002-.4004-.2402-.6396-.2402l-3.1602-.0801c-.1592,0-.2793.0801-.2793.2803v.4795c0,3.1602.04,5.7998.2002,7.2393.1191,1,.2793,1.6396,1.3594,1.7998.5195.0801,1.2793.1201,1.7197.1201.2803,0,.4395.1992.4395.3594,0,.2402-.2793.3604-.7197.3604-2.0391,0-4.959-.1201-5.4785-.1201-.6807,0-2.9199.1201-4.3193.1201-.4404,0-.6797-.1201-.6797-.3604,0-.1602.1191-.3594.5596-.3594.5195,0,.9199-.04,1.2393-.1201.7207-.1602.9199-.7998,1.04-1.7998.1602-1.4395.1602-4.1191.1602-7.2393v-5.999Zm4.4795,2.6396c0,.3604.0801.4805.3193.6006.7598.2393,1.7998.3193,2.6797.3193,1.4004,0,1.8799-.1201,2.4795-.5596,1.0801-.7598,2.2803-2.2393,2.2803-5.0391,0-4.7998-3.2793-6.0391-5.3594-6.0391-.8799,0-1.7197.04-2.0801.1201-.2393.0801-.3193.2002-.3193.4795v10.1182Z"/><path class="d" d="m305.0484,157.3867c0-5.1582.04-6.1182-.04-7.1982-.0801-1.2002-.4004-1.5195-1.5195-1.8398-.2803-.0801-.8799-.1201-1.3604-.1201-.3994,0-.5996-.1201-.5996-.3594,0-.2402.2402-.3203.7598-.3203,1.8799,0,4.2393.0801,5.2793.0801.8799,0,3.2393-.0801,4.5195-.0801.5195,0,.7598.0801.7598.3203,0,.2393-.2002.3594-.5605.3594-.3994,0-.5996.04-1.0391.1201-.9199.1602-1.2002.6396-1.2803,1.8398-.0801,1.0801-.0801,2.04-.0801,7.1982v4.7598c0,4.959.96,6.8789,2.6797,8.2383,1.5596,1.2402,3.2393,1.3604,4.4395,1.3604,1.5195,0,3.3193-.4404,4.7188-1.7998,1.96-1.8398,2.04-4.7998,2.04-8.2793v-4.2793c0-5.1582-.04-6.1182-.0801-7.1982-.0801-1.1602-.3604-1.5195-1.4795-1.8398-.2803-.0801-.8799-.1201-1.2803-.1201-.3994,0-.5996-.1201-.5996-.3594,0-.2402.2402-.3203.7197-.3203,1.7998,0,4.1592.0801,4.1992.0801.4004,0,2.7598-.0801,4.1191-.0801.4805,0,.7197.0801.7197.3203,0,.2393-.1992.3594-.5996.3594-.3994,0-.5996.04-1.04.1201-.96.1602-1.1992.6396-1.2793,1.8398-.04,1.0801-.0801,2.04-.0801,7.1982v3.6396c0,3.7998-.4004,7.7988-3.3594,10.2383-2.4795,2.0801-5.1592,2.4395-7.4385,2.4395-1.8398,0-5.4795-.0801-8.0391-2.3193-1.7998-1.5596-3.1992-4.0791-3.1992-8.998v-5Z"/><path class="d" d="m339.0474,172.8242c-.5596-.2393-.6797-.3994-.6797-1.1592,0-1.8398.1602-3.96.2002-4.5195,0-.5195.1602-.8799.4395-.8799.3203,0,.3604.3203.3604.5596,0,.4404.1201,1.1602.3203,1.7598.7598,2.5195,3.3994,3.3594,5.5986,3.3594,3.0391,0,4.8789-1.9189,4.8789-4.3193,0-1.4795-.3594-2.959-3.4795-4.7988l-2.0391-1.2002c-4.1592-2.4395-5.5195-4.7188-5.5195-7.7178,0-4.1602,3.999-6.8389,8.8789-6.8389,2.2793,0,4.0791.3193,4.999.5596.3203.0801.4795.2002.4795.4395,0,.4404-.1201,1.4004-.1201,4.0801,0,.7197-.1592,1.0791-.4395,1.0791-.2402,0-.3604-.1992-.3604-.5996,0-.3203-.1592-1.3594-.9199-2.2393-.5195-.6406-1.6396-1.5996-3.9189-1.5996-2.5195,0-4.7988,1.3193-4.7988,3.6387,0,1.5205.5596,2.7197,3.7188,4.4795l1.4404.7998c4.6387,2.5596,6.0791,5.1592,6.0791,8.2383,0,2.5195-.96,4.5596-3.5195,6.3594-1.6797,1.2002-4,1.3994-5.8789,1.3994-2.04,0-4.2002-.1992-5.7197-.8799Z"/></g></svg>