<svg width="120" height="50" viewBox="0 0 120 50" fill="none" xmlns="http://www.w3.org/2000/svg">
    <g clip-path="url(#aedn1knlfa)">
        <path fill-rule="evenodd" clip-rule="evenodd" d="M10.054 0h.585c4.008.114 7.596 2.09 9.866 5.383a.016.016 0 0 1-.002.022.016.016 0 0 1-.022 0C17.136 2.411 12.63 1.177 8.206 1.79 5.072 2.223 2.35 3.507.044 5.642a.008.008 0 1 1-.012-.01C2.295 2.194 5.928.135 10.054 0zm16.068 5.958h-4.44a.037.037 0 0 0-.037.037V24.21c0 .02.017.038.037.038h4.44c.02 0 .037-.017.037-.038V5.995a.037.037 0 0 0-.037-.037zM18 13.852H9.9c-.02 0-.03-.01-.03-.03V9.66c0-.02.01-.029.03-.029l8.844-.001a.023.023 0 0 0 .022-.023V5.993a.028.028 0 0 0-.009-.02.03.03 0 0 0-.02-.008H5.249a.046.046 0 0 0-.032.013.045.045 0 0 0-.013.032l.003 18.186c0 .02.01.03.03.032.145.013.24.02.283.02h4.306a.044.044 0 0 0 .031-.014.045.045 0 0 0 .013-.032v-6.669a.03.03 0 0 1 .03-.03h8.13c.02 0 .03-.01.03-.03v-3.56a.06.06 0 0 0-.06-.06zm33.405-1.356v.002l.001.003a.008.008 0 0 0 .004.003.01.01 0 0 0 .006 0 .009.009 0 0 0 .004-.004c1.038-1.65 2.547-2.492 4.527-2.528.022 0 .033.01.033.033v3.953c0 .06-.03.086-.088.08-1.906-.173-3.934.523-4.413 2.598a4.138 4.138 0 0 0-.076.896c.003 2.228.004 4.447 0 6.658a.06.06 0 0 1-.06.06l-4.349-.002c-.08 0-.119-.04-.119-.12V10.245c0-.05.025-.074.073-.074h4.42a.038.038 0 0 1 .037.038v2.287zm27.243-.092a.016.016 0 0 1-.003-.01l-.019-2.194c0-.02-.01-.029-.028-.029h-4.423a.06.06 0 0 0-.043.018.062.062 0 0 0-.017.042V24.19c0 .038.02.058.058.058h4.41a.046.046 0 0 0 .034-.013.046.046 0 0 0 .013-.033v-6.793c.001-.482.03-.845.085-1.09.272-1.19 1.053-2.104 2.3-2.313 1.692-.284 2.967.795 2.968 2.505.002 2.574.002 5.143.002 7.707a.03.03 0 0 0 .031.031l4.377-.001c.06 0 .091-.03.091-.092.002-2.812.002-5.64 0-8.482-.001-.524-.017-.915-.048-1.171-.277-2.284-1.68-4.03-3.971-4.433-2.246-.395-4.531.335-5.788 2.333a.015.015 0 0 1-.009.007.018.018 0 0 1-.02-.006zM32.727 23.486c-3.082-1.537-4.195-5.057-3.413-8.251.683-2.79 2.848-4.541 5.62-5.05 4.047-.74 8.4.882 9.346 5.29.207.967.238 1.947.092 2.94-.66 4.482-4.698 6.394-8.837 5.907a8.463 8.463 0 0 1-2.808-.836zm3.94-9.885c-4.41.167-3.932 8.098.713 7.229 3.686-.69 3.301-7.381-.713-7.229zm25.114 4.904c-.018-.057.003-.085.063-.085h9.782c.022 0 .034-.012.036-.035.3-3.727-1.12-7.326-5.15-8.164-5.415-1.127-9.86 2.347-9.227 8.034.579 5.18 5.578 7.024 10.061 5.77a7.66 7.66 0 0 0 3.453-2.06.062.062 0 0 0 .004-.009.07.07 0 0 0 .007-.029.08.08 0 0 0-.023-.054l-2.307-2.256a.033.033 0 0 0-.046-.001c-2.072 1.981-5.627 2.12-6.653-1.11zm3.593-5.254c1.257.29 1.974 1.469 1.951 2.714 0 .024-.012.036-.036.036L61.771 16c-.045 0-.064-.022-.057-.067.27-1.856 1.728-3.128 3.66-2.682zm30.344 5.646c.915 2.486 4.275 2.477 5.504.342a.066.066 0 0 1 .013-.014.046.046 0 0 1 .018-.009.048.048 0 0 1 .037.005l3.205 1.885a.062.062 0 0 1 .018.015.04.04 0 0 1 .005.01l.003.006.001.004a.044.044 0 0 1 .001.023c0 .005-.001.01-.003.014l-.002.004-.002.004c-1.529 2.613-4.586 3.468-7.436 3.148-4.373-.492-6.722-4.156-6.103-8.363.687-4.665 4.984-6.692 9.268-5.73 1.8.403 3.202 1.37 4.208 2.899a.03.03 0 0 1 .005.013l.001.003v.007l-.001.003a.05.05 0 0 1-.005.013l-.003.003c-.003.003-.005.005-.008.006l-3.18 1.926c-.021.013-.04.01-.057-.008a1.999 1.999 0 0 1-.135-.166 1.658 1.658 0 0 0-.114-.14c-.691-.736-1.523-1.11-2.499-1.12-2.771-.033-3.515 3.11-2.74 5.217zM120 17.912v-.615c-.05-3.633-1.786-6.551-5.588-7.159-3.792-.605-7.611 1.016-8.614 4.992a8.424 8.424 0 0 0-.019 4.176c.755 3.009 3.186 4.747 6.183 5.039 2.654.258 5.261-.429 7.154-2.394.019-.02.018-.04-.002-.06l-2.321-2.273a.047.047 0 0 0-.067.001c-1.979 1.965-5.826 2.103-6.638-1.166-.005-.022.003-.034.026-.034h9.79c.055 0 .082-.027.084-.081l.012-.426zM115.59 16h-5.531c-.032 0-.045-.016-.041-.047.249-1.783 1.641-3.104 3.531-2.737 1.32.257 2.098 1.41 2.084 2.742 0 .028-.015.042-.043.042zM9.403 28.57C5.66 28.33 2.158 26.34.06 23.2a.01.01 0 0 1 .002-.013.01.01 0 0 1 .006-.002.01.01 0 0 1 .007.002 15.131 15.131 0 0 0 10.633 3.776c3.616-.149 7.095-1.445 9.725-3.93.126-.12.141-.108.043.037-2.5 3.71-6.606 5.786-11.074 5.5zm35.223 6.796c-1.672.18-2.878 1.008-3.619 2.482-.01.02-.015.019-.015-.003l.004-6.922a.043.043 0 0 0-.012-.03.045.045 0 0 0-.031-.014l-.62-.013a.027.027 0 0 0-.028.027v15.021c0 .05.025.076.075.076h.525c.06 0 .091-.03.09-.092-.002-1.822-.002-3.636.004-5.44 0-.548.023-.947.067-1.199.44-2.54 2.768-3.657 5.153-3.205 1.297.246 2.131 1.077 2.484 2.314.107.375.164.717.17 1.026.02.98.022 3.166.006 6.56 0 .024.012.036.035.036h.586c.038 0 .056-.019.056-.056.006-2.133.008-4.164.006-6.093 0-.65-.08-1.25-.24-1.8-.622-2.136-2.653-2.895-4.696-2.675zm62.172-4.494h-.642a.016.016 0 0 0-.016.016v15.085c0 .009.007.016.016.016h.642a.016.016 0 0 0 .015-.016V30.887a.016.016 0 0 0-.015-.016zm-84.427 1.086a.664.664 0 0 1-.661.666.664.664 0 0 1-.682-.645.664.664 0 0 1 .661-.666.664.664 0 0 1 .682.645zm39.803.673a.662.662 0 1 0 0-1.323.662.662 0 0 0 0 1.323zM5.865 45.958V33.074c0-.053.016-.059.05-.017l10.034 12.892a.1.1 0 0 0 .082.04h.484a.03.03 0 0 0 .021-.008.03.03 0 0 0 .009-.021V31.753c0-.025-.013-.037-.038-.037h-.615a.035.035 0 0 0-.036.035c-.002 3.548-.002 7.098 0 10.652 0 .16.002.342.004.537v.001c.005.535.01 1.168-.014 1.72-.001.023-.009.026-.022.008L5.767 31.75a.067.067 0 0 0-.054-.028l-.497-.009-.015.003a.04.04 0 0 0-.026.038v14.19c0 .03.015.045.045.045h.615a.03.03 0 0 0 .03-.03zm48.194-9.96h-1.92c-.021 0-.032-.01-.033-.032l-.015-.506a.06.06 0 0 1 .014-.042l.003-.003a.061.061 0 0 1 .037-.019h.007l1.908.001c.02 0 .031-.01.031-.03l-.002-2.224a.06.06 0 0 1 .06-.06h.587c.02 0 .03.01.03.03l-.002 2.246c0 .026.013.039.039.039l3.405-.002c.025 0 .038.013.039.038l.006.528a.033.033 0 0 1-.033.033l-3.422.007c-.02 0-.03.01-.03.032-.006 2.322-.005 4.643.002 6.962.003.997.175 2.029 1.301 2.337.918.252 1.741.09 2.47-.486.017-.013.031-.01.044.008l.296.435c.011.016.01.03-.005.044-.69.635-1.846.81-2.72.66-1.478-.25-2.067-1.365-2.066-2.79.002-2.392.001-4.784-.001-7.176 0-.02-.01-.03-.03-.03zM30.597 50h.524c2.202-.033 4.023-.978 4.526-3.266a7.123 7.123 0 0 0 .186-1.5 7994.18 7994.18 0 0 0-.001-9.807l-.001-.003a.042.042 0 0 0-.01-.014.043.043 0 0 0-.031-.013h-.54c-.04 0-.06.02-.06.06v2.614a.021.021 0 0 1-.016.02.02.02 0 0 1-.014 0 .02.02 0 0 1-.01-.01 11.429 11.429 0 0 1-.048-.088l-.032-.06a5.405 5.405 0 0 0-.333-.563c-.7-.971-1.615-1.594-2.743-1.866-2.943-.712-6.038.792-6.58 3.949-.532 3.101 1.382 5.803 4.526 6.126 2.16.223 4.24-.699 5.19-2.705a.013.013 0 0 1 .005-.006.014.014 0 0 1 .008-.001l.004.001.002.001.001.002a.014.014 0 0 1 .003.008c.016.894.01 1.789-.02 2.685-.067 1.952-1 3.361-3 3.706-2.016.347-4.09-.08-5.628-1.472-.017-.015-.032-.014-.046.005l-.345.469a.035.035 0 0 0-.006.023c0 .008.004.016.01.022 1.17 1.163 2.867 1.643 4.479 1.683zm-1.452-5.199c-4.144-1.169-4.215-7.298-.12-8.61a5.223 5.223 0 0 1 3.216.046c2.258.788 3.32 3.03 2.812 5.324-.602 2.716-3.365 3.958-5.908 3.24zm38.515-6.895c0 .002 0 .005.002.007l.003.003.004.002h.007l.001-.001a.012.012 0 0 0 .005-.006c.936-2.039 3.027-2.841 5.15-2.523 2.2.329 3.356 1.926 3.395 4.1.038 2.132.042 4.28.013 6.446a.055.055 0 0 1-.056.055h-.583c-.02 0-.031-.01-.031-.031v-6.16c0-1.857-.775-3.384-2.684-3.757-1.058-.206-2.392-.057-3.338.515-1.357.82-1.87 2.25-1.872 3.803-.003 1.785-.012 3.642-.025 5.57-.001.04-.02.06-.06.06h-.556c-.02 0-.03-.01-.03-.03V35.427c0-.008.003-.016.009-.022a.03.03 0 0 1 .021-.008h.575c.024 0 .036.011.036.035l.014 2.474zM84.686 50h.525c2.99-.06 4.709-1.72 4.71-4.748.002-1.118.001-2.233 0-3.349V41.9c-.001-2.145-.003-4.29.009-6.453 0-.034-.017-.05-.05-.05h-.554a.044.044 0 0 0-.044.044l-.006 2.628v.005a.014.014 0 0 1-.003.004l-.001.002a.018.018 0 0 1-.022.005.02.02 0 0 1-.007-.005l-.001-.003c-.943-2.017-3.11-2.972-5.272-2.712-2.092.252-3.806 1.566-4.354 3.61-1.02 3.8 1.914 7.134 5.794 6.593 1.748-.243 3.02-1.134 3.816-2.673.022-.042.033-.04.032.009-.002.268 0 .542.004.818v.001c.023 2.385.047 4.942-2.966 5.53-2.002.39-4.157-.056-5.69-1.454-.015-.015-.03-.014-.043.004l-.349.46c-.014.02-.013.04.005.057 1.183 1.158 2.85 1.635 4.467 1.68zm4.518-8.7c-.792 4.778-7.964 4.997-8.987.272-.746-3.446 1.926-6.098 5.34-5.54 2.59.424 4.064 2.75 3.647 5.269zm11.903 2.64c-.695 1.183-1.721 1.865-3.08 2.048-.865.117-1.872.063-2.698-.243-1.279-.473-2.055-1.612-1.907-2.987.208-1.934 1.891-2.562 3.587-2.573a547.57 547.57 0 0 1 4.054-.011c.018 0 .027-.01.028-.028.031-.82.052-1.632-.167-2.3-.354-1.076-1.183-1.709-2.31-1.847-1.719-.21-3.225.239-4.52 1.345a.02.02 0 0 1-.01.005.023.023 0 0 1-.01 0 .026.026 0 0 1-.009-.003l-.004-.002a.017.017 0 0 1-.003-.004l-.324-.438c-.012-.017-.011-.033.005-.047 1.33-1.22 3.227-1.709 4.986-1.464 2.082.29 3.048 1.686 3.049 3.76.002 2.268.002 4.538 0 6.807 0 .02-.01.03-.03.03h-.584c-.02 0-.03-.01-.03-.03v-2.012c0-.03-.008-.032-.023-.006zm-7.01-1.048c-.195 2.647 3.28 2.98 4.975 2.236.93-.408 1.594-1.111 1.993-2.11a.406.406 0 0 0 .035-.154V40.76a.033.033 0 0 0-.01-.023.016.016 0 0 0-.005-.004l-.002-.002h-.003a.029.029 0 0 0-.012-.004c-1.343 0-2.686.006-4.03.018-1.423.013-2.818.468-2.942 2.146zM120 40.789v-.355c-.057-2.851-2.084-5.133-5.011-5.103-2.555.025-4.429 1.825-4.824 4.298-.612 3.826 2.149 6.847 6.029 6.367 1.255-.156 2.308-.711 3.16-1.666.015-.016.015-.031 0-.046l-.387-.393c-.016-.017-.032-.016-.047.003a3.944 3.944 0 0 1-2.162 1.366c-3.083.763-5.979-1.17-6.014-4.437 0-.022.011-.033.033-.033H120zm-4.376-4.812c2.186.265 3.574 2.115 3.738 4.232.001.017-.007.025-.024.025h-8.555l-.004-.002a.037.037 0 0 1-.009-.006.028.028 0 0 1-.005-.01.039.039 0 0 1-.002-.01c.124-2.613 2.195-4.553 4.861-4.23zm-93.632-.58h-.581a.036.036 0 0 0-.036.036v10.52c0 .02.016.036.036.036h.58c.02 0 .037-.017.037-.036v-10.52a.036.036 0 0 0-.036-.036zm39.92 0h.556c.036 0 .066.03.066.067v10.46c0 .036-.03.066-.066.066h-.556a.067.067 0 0 1-.066-.067v-10.46c0-.036.03-.066.066-.066z" fill="#CD0E2D"/>
    </g>
    <defs>
        <clipPath id="aedn1knlfa">
            <path fill="#fff" d="M0 0h120v50H0z"/>
        </clipPath>
    </defs>
</svg>
