<?xml version="1.0" encoding="utf-8"?>
<!-- Generator: Adobe Illustrator 19.2.1, SVG Export Plug-In . SVG Version: 6.00 Build 0)  -->
<svg version="1.1" id="layer" xmlns="http://www.w3.org/2000/svg" xmlns:xlink="http://www.w3.org/1999/xlink" x="0px" y="0px"
	 viewBox="0 0 652 652" style="enable-background:new 0 0 652 652;" xml:space="preserve">
<style type="text/css">
	.st0{fill:#191D4C;}
</style>
<path id="Shape" class="st0" d="M395.2,94.3c-28.3-9.4-58.1-13.4-87.8-12h-17.1c0.1-0.3,0.1-0.6,0-0.9c0.6-0.6,0-1-1-1.8
	c-1-0.8-2.1,0-2.1-2.4s-2.2,0-2.8,1s0,1.7-3,2.4h-0.9c0,0,1,0,0-0.9c-1-0.9,0-0.7-1.4,0c-1.4,0.7,0,0.9-0.7,0.9s-0.9-0.9-1.2-0.9
	s-1.1-1-2.1,1c-1,2-0.9,1-0.7,0c0.2-1,0.2-2.1,0-3.1c0-1.2-0.7-0.9-1-0.6c-0.4,0.3,0,1-1.2,1.8s-0.9-0.6,0,1.3
	c0.9,1.9-0.8,0.8-1.4,1c-0.7,0.3-0.9,0-1.2,0.7c-0.4,0.7,0-0.7-1.1,0.8c-1.1,1.4-0.8,0-1.6,1s0,2.2-1.5,2.4
	c-1.5,0.2-1.1-1.5-0.8-2.7c0.3-0.6,0-1.3-0.6-1.5c-0.1-0.1-0.2-0.1-0.4-0.1c-0.4,0,0,1.4-1.3,1.9s0-1-0.6-1.5
	c-0.6-0.5-1.1-0.6-1.1,0.7c0.1,1.2,0.1,2.4,0,3.6c0,2.1-0.7,0.6-3.7-0.7c-3-1.2-2,0-3.2,0c-0.9-0.1-1.5-1-1.4-1.9
	c0-0.7,1.2-1.2,1.6-1.9c0.4-0.7-0.8-1.7-1.4-1.4s-1.6-1.9-2.1-2.1c-0.5-0.2-1.5,1.2-1.7,1.8c-0.2,0.6,0,0-0.5,0.9
	c-0.5,0.9-1,0-0.8,1c0.2,0.5,0.2,1,0,1.5c0,0,2.6-1.2,1.9,0c-0.3,0.9-1.3,1.4-2.2,1.1c-0.1,0-0.2-0.1-0.3-0.1c-1-0.4-1.7-0.7-2.1,0
	s0,1.5-0.5,1.9c-0.5,0.4-1.9,0.7-2.5,0c-0.6-0.7,0.2-1.2-1-1.2c-1.1,0-1.9,0-1.1-1.5c0.8-1.5,2.4-1.9,0.9-2.3
	c-1.5-0.4-1.2-0.9-1.2-1c0-0.2-1.2,0-1.9,0c-0.7,0,0-1.3-1.6-0.7s-1.9,0.7-1.3,1.5c0.6,0.9,0.5,1.6-0.9,2s-1,1.1,0,1.5
	c1,0.4,1.8,0.5,1,0.9c-0.5,0.6-1.4,0.9-2.2,0.7c-1.1-0.1-1.1-2.2-2.7-1.7s-1.2,1-1.5,0.6c-0.3-0.5,0-1-1.4-1.6s-0.7,0-1.7,0
	c-1,0-0.6,2.3-1.8,2.8s0,1.2-1.1,1c-1.1-0.2,0-1-0.8-1.4s-0.5-1.8-1.7-0.7c-1.2,1.1,0,2.9-1.2,2.3s0,1.6-0.9,1.8
	c-0.9,0.2,0-3.1-1.7-1c-1.7,2.1-1.7,1.1-1.2,1.9c0.5,0.8,0,1.5-1,1.5s-1.5-3.6-3-3.4c-1.4,0.2-1.9,0.9-1.9-0.6c0-1.4,0,0-1,0
	c-1,0-0.5-1.3-1.9-1.3h-2.5c-1,0-2.1-0.8-1.3,0c0.4,0.6,0.7,1.3,1,1.9c0,1.2,0.7,0.8,0,1.2c-0.7,0.5,0,1.4,0,1.9c0,0.5,0-0.9-1.8,0
	c-1.8,0.9-1.5,0.8-1.5,1.4c0,0.7,0,1.2,1,1c1-0.2,0.5,0,0.5,0.7c0,0.7-0.5,1.2,0.6,0.9c0.3,0.1,0.6,0.1,0.9,0l0.1-0.7v-0.5
	c0,0.2,0,0,0.7,0h0.8v0.6c0,0.6,1.1,1.2,0,1.3c-0.7,0.1-1.3,0.1-2,0c-2,0-1.9,0-2.1,0.9c-0.2,0.9,0.6,1.2,0,1.4
	c-0.3,0.1-0.6,0.1-0.9,0c-0.2,0,0,0.7,0.9,0.7s0-0.7,1.3,0c1.3,0.7,0,0,0,0.6c0.1,0.7-0.2,1.4-0.7,1.9c-0.7,0.8-2.3-0.8-2.6,0.9
	c-0.3,1.6-4.2,2.1-3.1,3.3c1,1.2,1.1-1.2,2.1-1s0,1.1,0,2.1s0.9,0,2.2-0.6s1.9,0.7,2.3,2.1c0.4,1.4-1.4,1.4-3,1.2
	c-1.5-0.2-0.5-1.4-1.2-0.9c-0.8,0.6-0.7,2.2-1.7,3c-1,0.8-1.9,1.1-2.1,2.4c-0.2,1.2,1.5,1.4,2.3,0c0.8-1.4,1.9,0,1.9,0l-0.9,2.8
	l3.8,0.8l2.6,1.5l0.8,1.4l-4.4-0.8c-1.4,0.2-2.7,0.7-4,1.2h-2.6c-0.3,0-1.4,1.4-2,1.9c-0.4,0.4-1,0.7-1.5,0.9l1.4,0.6v1.2h2.1
	l-0.9,1.4c0.3,0.6,0.5,1.2,0.5,1.9c0,0.9,1,2.1,1.2,2.8c0.2,0.7-1.2,0-1.9,0c-1.1-0.2-2-0.7-2.8-1.5c-0.5-0.7,0-2.5-1-2.7
	s-1.4-2.2-1-3.2s2.8-4.4,2.2-4c-0.8,0.3-1.6,0.5-2.4,0.5c0,0-0.6-2.3-1.2-2.6c-0.7-0.3-1.2,1.3-1.4,1.9s-1-1.9-1.5-1.4
	c-0.5,1.3-0.5,2.6,0,3.9c0.6,1.2,1,2.5,1,3.8c0,0.9-0.9,1.7-1.5,1.3c-0.7-0.4-0.8-3.2-0.8-3.1c-0.3,0.7-0.7,1.4-1.1,2.1h-2.3l1,2.1
	c0,0-5,1.2-5,1.8c0,0.6,3.3,0,3,0.9c-0.4,0.9-1.1,1.3-0.7,1.9c0.5,0.6,0,1.7-0.9,2.1c-0.6,0.3-1,0.8-1.2,1.3l-1.9,0.6l1,1.9
	l-2.9,3.1c0,0,1.7,0,2.3,0.9c0.6,0.9-1.2,2.4-1.2,3s2.1-0.9,2.4-0.6s0,1.2,0,1.9c0,0.7,1,0,1.7,0.6c0.7,0.6-1.9,1.5-1.5,2.1
	s1.3,0,1.2,1s1,0,1.7,0.7c0.7,0.7-0.7,1.7-1.6,2.5s0,2.2-0.7,2.6s-1.5,0-2.6,0.6c-1,0.6-0.8,1.5-1,2.2s-1.4,0-1.4,1c0,1,1.7,0,2.3,0
	c0.6,0,0.7,1.7,0,2.3c-0.9,0.5-1.7,1.1-2.5,1.7c-0.5,0.7,0,1.7,0,2.1c0,0.4-1.3,1.4-1,1.9c0.8,0.4,1.7,0.4,2.5,0
	c0.7-0.7,2.5-0.7,3.1-0.9s0.7,1.2,0,2.1s-0.6,1.5,0,1.7c0.6,0.2,2.4-0.5,2.6-1.4c0.2-1,1.2-3,1.6-3s1.1,0.7,0.9,1.1
	c-0.3,0.5-1,1.2,0,1.6c1,0.4-0.5,1.2-1,1.7c-0.6,0.5,1.6,1,1.6,1.7c0,0.7-1.2,0.8-1.8,1.4s-1,1.9-1.9,1.5c-0.9-0.4-1.5-1.5-2.3-1.5
	c-0.8,0-1.3-2.8-1.9-2.5s0,3.1,0,3.9s-1.4-0.8-2.1-1s-1.6-2.4-1.8-1.9c-0.4,0.9-0.7,1.9-0.9,2.9l-1.3,0.5l-1.2,1.8l0.9,0.9l2.5-0.9
	c-0.2,0.2-0.2,0.6,0,0.9c0,0.6-0.2,1.1-0.6,1.5c-0.6,0.5,0.8,0.6,0.8,1v1.2c0,0.2,1.7-0.9,1.9-1c0.6-0.3,1.2-0.5,1.9-0.7l1.2-0.6
	c0,0.5,0,1,0,1.4l-0.7,1.4v0.7c0,0.2-1.1,0-1.3,0.7c-0.2,0.7,0.7,0.6,0.5,0.8c-0.2,0.2-1,0-0.9,1c0.2,1,0.9,0,1.2,0
	c0.5,0.1,1,0.1,1.5,0c0.5-0.3,0.7-0.9,0.8-1.4c0.2-0.3,0.5-0.5,0.9-0.7c0.4-0.1,0.7,0,1-0.8l1-1.9l0.5,0.9c0,0.4,0,0.8,0,1.2
	c0.2,0.4,0.2,0.9,0,1.2c0,0.4,0.2,0.8,0.5,1c0.5,0.6-0.5,0-0.7,0.7c-0.1,0.3-0.1,0.7,0,1c0,0.3-0.7,0.7,0,0.9c0.5,0,0.9-0.1,1.2-0.5
	l1.6-1.7v1.3c0,0.6,0.5,0.7,0.9,0.9c0.4,0.2,0,1.8,0,1.8s0.6-1.8,0.8-1.6c0.2,0.2,0.9,0,1.3,0h0.8c0.1,0.6-0.1,1.2-0.5,1.6
	c-0.4,0.5-0.7,1.1-0.8,1.7c0,0.5,0,1.2-0.5,1.2h-1.7c-0.6,0-1-0.7-1.4-1.5v-1h-1l-0.7-0.9v1h-0.5l-0.6,0.6l-1.2-0.6l-0.5-0.9h-0.7
	l-0.8,1.3c-0.3-0.3-0.8-0.4-1.2-0.1c0,0,0,0-0.1,0.1c-0.6,0.7-1,0-1.5,0s-1.2,0-0.7,0.7s0,1,0,1.6c0,0.6-0.5,1.1-1,1.2
	c-0.4-0.6-0.6-1.4-0.5-2.1l-0.6-0.6v-0.5h-1.5v-0.7l-2.7-1.2v-2l0.7-0.6l-0.9-1.3v-0.8l0.7-1l-1-0.5c-0.7-0.1-1.4-0.1-2.1,0
	c-0.5,0-1.3-0.8-1-1c0.3-0.3,0-1.4-0.5-1.9c-0.5-0.5-0.6-0.9-0.7-0.9s-0.6,0-0.6,0.9s-1.2,1.2-1.2,1.8c-0.1,0.3-0.1,0.6,0,1
	c0.3,0.3,0.6,0.7,0.9,1h-1l-1.9,0.9l0.9,0.6l1,1h1.9v0.6l-1,1.3l-1.2,1c-0.6,0-1.1,0.2-1.5,0.6c-0.4,0.6-0.4,1.3,0,1.9
	c0,0.5,0.5,1.4,0,1.5c-0.6-0.2-1.2-0.6-1.6-1.1c0-0.6-1.4-1.6-1.7-1.6c-0.8-0.2-1.5-0.5-2.1-1c0,0-1.2-1.3-1.4-1s0,0.8,0,1v3.5h-1.2
	l-1-2.1c0,0-0.7,0-0.7,0.9s-0.8,0.6-0.6,1.2c0.2,0.7,0,1.4-0.5,1.9c-0.6,0.5-0.9,1.2-1,1.9c0,0.7-0.6,1.2-1.2,0.6
	c-0.3-0.5-0.3-1.1,0-1.6c0.1-0.3,0.1-0.7,0-1c-0.7-0.9,0-1.2,0-1.9s0-0.7-1,0s-0.7,1.4-1.3,0.9l-1.2-0.7c-0.7,0-0.9,0-1.2-1.5
	c-0.4-1.5,0-1.6,0-2.5c0-0.9-0.6-1.2-1,0c-0.4,1.2,0,1.4,0,2.3c0,0.9-1.6,2.2-1.6,2.2s-0.7,0.8-0.5,1.4c0.2,0.7,1.2,0.9,0.7,1.4
	s-1.2,1-1.3,1.7c-0.1,0.7-1,1.2-0.8,1.7c0.2,0.4,0.7,0.7,1.2,0.6c-0.3,0.5-0.6,1-0.9,1.5c-0.2,0.5-0.2,1,0,1.4c0,0,2.6-1.2,2.1,0
	c-0.5,0.8-1.1,1.6-1.8,2.3c0,0-1.5,1.1-0.9,1.1c0.5-0.1,1.1-0.1,1.6,0c0,0,1.5,0.7,1.5,0s0.9-1.9,1.4-1.7c0.6,0.2,0.7,0,0.5,1
	c-0.1,0.7-0.1,1.4,0,2.1c0.5-0.2,1-0.2,1.4,0c0.5,0.5,0.9,0.5,1,0c0.2-0.5,0,0,1.3-1s1-1.4,0.9-1.9c-0.2-0.5-0.9-1.6,0.6-0.8
	c1.4,0.9,1.2,0.8,1.9,0.6s1.5,0,0.7,0.5c-0.9,0.5-1.2,0.6-1.3,1.4c0,0.6,0,1.1,0,1.7c0,0.7-0.9,0.9,0,1.2c0.9,0.4,0.9,1.2,1.9,1
	c1-0.2,2.3-0.7,1.6,0s0,2.6-1.4,2.8c-1.4,0.2-1.7,0-2.5-1c-0.8-1,0,1.7-1.3,1.2s0-1.6-1.8-1.8c-0.8-0.1-1.6-0.1-2.4,0
	c-1.2,0-2.3,1-0.7,1s1.7,0.8,0.9,1c-0.9,0.3-3.5,0.9-2.7,1.6c0.9,0.8,1.8-1,2.5,0c0.7,1,0.7,1.4,0,2.1c-0.7,0.7,0,0.7-0.7,0.9
	c-0.7,0.2-1.9,0.8-0.8,0.9c0.7,0,1.4,0,2.1,0c0.6,0.3,1.2,0.4,1.9,0.5c1,0,1.6,0.5,1,1.4c-0.6,1-0.7,0.9,0,1.7c0.7,0.9,0,1,0,1.5
	s-0.9,1.8,0,1.4l0,0l-0.6,0.8l0,0c0,0-1.9,0.6-1.9,1s1.5,1.6,1.5,1.6h-0.9l0.6,1.2h1.3v1.4c1-0.2,1.9-0.4,2.8-0.9l0.8,0.5v0.9
	c0,0-1.2,0-1.6,0.6c-0.1,0.6-0.4,1.2-0.9,1.5c-0.7,0.6,0,2.1,0,2.1l-1,1v1.2l-1.1,0.9v2.3h1l0.7-0.9l0.7-1.1l0.6,0.7
	c0.5-0.6,1.1-1.2,1.7-1.7c0.7-0.3,1.4-0.5,2.1-0.6c-0.3,0.4-0.5,0.9-0.7,1.4c-0.1,0.6-1,0.9-1,0.9v1.5h-1.5l1,1.2v1.2l-0.6,0.9
	l0.9,0.7l2.3-0.7c0.8,0,0,2.2-0.5,3.2c-0.5,1,0,1.4,1,1c1-0.4,1,0,1.3,0.9c0.3,0.9,0.6,1.8,1.2,1.4s0.6-1.2,1.4-1.2
	c0.9,0,0,0,0.9-1.1c0.9-1.1,0.5,0,1.2,0c0.8,0,0.5-0.6,1.1-1.6c0.7-1,0.6,0,1.4,0h1.9c1.3,0,0-0.7,0-1.5s1.7,0,1.1-1.2
	c-0.6-1.2-1-0.6-2.8-0.7c-1.8-0.1,0-0.8,0.8-1c0.8-0.2,0.9-0.5,2-1.1c1.1-0.7,1.4,0.7,3,0.7s0-0.7,2-2.5s0.8,0,2-1.1
	c1.2-1.1,0,0,0,0.7v2.6c0,0.5,0,0-0.6,1.6c0.1,0.7,0.1,1.5,0,2.2c-0.6,1.4-1.4,3.5-1,3c0.7-0.3,1.5-0.3,2.2,0c0.8-0.2,1.7-0.2,2.5,0
	c0.5,0.6-0.7,1.4-1.9,1.6c-1.2,0.2,0,0-0.7-0.6s0,0-0.8,1.4c-0.8,1.4-0.5,0-1,0h-1.1c-0.5,0,0,0.7,0,2.3c0,1.6,0,1.1-0.7,2.2
	c-0.7,1-1.2,0-1.7,0h-1.2c-0.5,0,0-0.7-1.4-0.7s0,0.7,0.6,2.1c0.6,1.4,0,1.1,0,3s-1.4,2.9-1.4,3.3s-1,1-0.7,2.1c0.4,1,0,0,2.4,0
	c2.4,0,0.8,0,1-0.9s0-1,1.2-1.3s0.6,0,0.9,1.3s0,0.6,0,1.7c0,1.1-2,1.6-2,1.6c-0.1,0.4-0.1,0.8,0,1.2c0,0.7,0,1.1,0,1.9
	s0.7,0,1.9-0.6c1.2-0.6,0,0,0.9,1.6c0.9,1.6,0,1,0,1.9s-1.7,1.5-1.1,1.5h1.5c1.2,0,0.7,0,0.7-0.9s0-0.7,0.9-1c0.9-0.4,0,0,1.4,0
	c1.4,0,0.6,0.9,1,1c0.5,0.2-0.7,2.6-0.7,2.6c0.7-0.2,1.4-0.5,1.9-1c0.9-0.9,0-0.7,0-1.2c0-0.6,0.9,0,1.2-0.7c0.4-0.7,0-0.7,0.7-1
	c0.7-0.4,0.9,0,2.1,0c1.2,0,0.5-0.8,1.3-1c0.9-0.3,0,0,0.6,0c0.6,0,0.5,0,0.9-1.2c0.4-1.2,1,0,2.3,0s0,0,0.5-0.9c0.5-0.9,0,0,0-1
	c0-1,0.5,0,1-0.7c0.6-0.7,0-0.8-0.6-1.8s0.6-1.3,0.7-1.7c0.1-0.4,1.2,0,1.4,0.7c0.2,0.7,0,0.8,0,1.4c-0.1,0.6-0.1,1.2,0,1.7
	c0,1.4,0-0.7,1-1c1-0.4,1,0,1.5,0c0.5,0,1.6-0.8,1.9,0c0.3,0.8-0.5,1.6-1.2,1.9c-0.8,0.3,0,0.9,0,1.6c0,0.8,1,0.9,0.9,1.9
	c-0.2,1-0.9,2.6,0,2.4c0.7-0.5,1.5-0.9,2.4-1.1h0.7c0.7,0,0.8,0.7,1.4,0.7s0,0,1.2,1.4s0,1.1,0,1.5s0.7,0,1.4,1.2
	c0.8,1.2,1,0,1.3-1.2c0.4-1.2-0.7-0.9,0-1.2c1.1-0.4,2.3-0.4,3.3,0c1.2,0,0,0,0,0.7c0,0.7,0,0.9,1,0.9c0.5-0.1,1-0.1,1.4,0h0.7
	c0.4,0.2,0.8,0.2,1.2,0h4.5c1,0,0.6,0,0.9-1c0.3-1,0,0,0.8,0c0.8,0,0.7,0,1-0.9c0.4-0.9-1.2,0-1.6-0.6c-0.4-0.6,0,0,1.4-1.3
	s0-0.6,0-1.6s0.6,0,1.7-0.5c1.1-0.5,0.8,0,0.6,1s0,0.7,0,1.7v1.6c0,0,1-1.6,1.4-2.3c0.4-0.7,0.5-0.9,1.4-0.9s0.9-0.8,1-1
	c0.2-0.3,1.1,0,1,0.9c-0.1,0.9-2.5,3.4-2.1,4.2c0.4,0.8,0-0.6,0.9-0.9c0.9-0.3,1,0,1.3-1c0.3-1,0,0,1.6,0s0.7,0.9,0.7,0.9h0.7
	c0.5,0,1,0,1.4,0c0.7,0,0.9-0.5,1.4-0.9c0.6-0.4,0.5,0,0.9,0c0.4,0,0-1,1-1.9c1-0.9,1,0.5,1.2,1c0.2,0.6,0.5,0,0.5,0.9
	s-0.7,0.7-1.4,1.1c-0.6,0.6-1.2,1.3-1.7,2c-0.9,1.1,0,0-0.5,1.7c-0.5,1.7-0.9,1.3-1.6,1.9c-0.8,0.6,0,1.2,0.9,0.5h1
	c0.8-0.6,0-0.6,0.9-0.8c0.9-0.2,0,0,1,0c0.5-0.1,0.8-0.6,0.8-1c0.3-0.3,0.8-0.3,1.1,0c0.8,0-0.5,1-0.9,1.7c-0.4,0.7,0,0.9,0.9,0.6
	c0.9-0.3,0,0,0.6,1s0,0,1.4,0c1.4,0,0-1,0-2v-1c-0.3-0.5-0.3-1,0-1.5c0.7-0.9,0.6-1.2,0-2.5c-0.6-1.2,0.6,0,1.4-0.7
	c0.9-0.7,0.5,0,1,0.9s0,0.6,0,1.8c0,1.2,0,0,2.1-0.6c2.1-0.6,0,0,0.6,1.4c0.6,1.4,0,0,1.9,0s0,0,0,1.9s0.8,0,1.4-0.6s0,0,0.7,0h1.2
	c0.7,0,0-1-0.5-3c-0.5-1.9,0,0,1.3-1.5s0-0.6,0.6-0.6v6c0,41.7-6.7,46.4-29.8,49.5l-9.1,1c-2.1,3.1-1.8,7.3,0.8,10.1
	c18.6-0.9,36.2-1,52.7-1c13.9,0,39.4,3.1,65,3.1c30.7,0.9,61.2-5.7,88.9-19.1c43.8-23,70.9-68.8,69.8-118.2
	C479.9,158,445.9,110.2,395.2,94.3z M178.9,142c0.3-0.3,0.5-0.6,0.8-0.9c0.2-0.3,0.2,1.6-0.8,0.6V142z M181.8,155.5
	c0.3,0,0.7,0.2,0.8,0.6c0.2,0.6-1.2-1-0.8-0.9V155.5z M147.3,231.7L147.3,231.7c0,0,0.2-0.8,0-0.6V231.7z M156.8,207c0,0,1,0,0,0.5
	c-1,0.5,0.2-1,0.4-1L156.8,207z M154.9,203.1v0.9h-0.8C154.1,204,155.5,201.2,154.9,203.1z M153.5,199.9c0,0,0.9,0.6,0.5,0.8
	S153.4,199.9,153.5,199.9z M151.4,221.3c0,0,0.5,0.8,0,0.6c-0.3-0.2-0.4-0.5-0.3-0.8c0.1-0.1,0.1-0.2,0.3-0.3V221.3z M149.4,202.3
	c0.7,0-0.8,0.9-0.6,0s0.4-0.4,0.6-0.4V202.3z M149.4,236.8c-1.9,0,0-1.4,0.9-1.4c2.4,0.5,0.9,1-0.9,1V236.8z M152.8,225.2
	c-3.2,2.7-3.1-0.7,0-1.3c3,1.1,5.3-3.1,5.3-1s-3.2,0.5-5.3,2V225.2z M163.7,206.2c-2.4,0,0.8-2.3,0.6,0c0.1-0.1,0.1-0.1-0.6-0.3
	V206.2z M164.7,200.7l-0.3-0.9v0.6L164.7,200.7z M165.7,212.9c0.1-1,0.5-2,1.1-2.8c1,1-0.3,2-1.1,2.5V212.9z M171.7,257.9
	L171.7,257.9c0,0-0.3-0.9,0-0.3V257.9z M168.8,266.6c-1,0,0-1,0.6-0.9C169.9,265.9,169,266.6,168.8,266.6z M171.1,262.2
	c-1,0-0.9-0.9-2.1,0c0-0.5,1.2-1.3,1.4-1.7s0.9,0,1.7,0c-0.7,0.6-1.3,0.8-1,1.4V262.2z M175.8,268.3L175.8,268.3c0,0,0.1-0.3,0-0.3
	V268.3z M176.5,232.7v-0.9c0-0.1,0.5,0.6,0,0.6V232.7z M177.6,227c0.2-0.1,0.4-0.1,0.7,0c0,0-1-0.1-0.7-0.3V227z M213.2,173.8
	c-1.7,3.1-1.7,0-2.4-1.5c-0.7-1.5,1.2,1.2,2.4,1.2V173.8z M210.6,109.2c0,0,1.4,0,1.2,0.9c-0.2,0.9-1.8-0.8-1.2-1.1V109.2z
	 M208.7,109.9c0,0-0.6,0.7-0.7,0c-0.1-0.7,0.7-0.9,0.7-0.3V109.9z M206.2,110.8v0.9c0,0.9-0.3-0.9,0-1.1V110.8z M202.5,115
	c-1.6,0,0-2.8,2.4,0C204.9,115.8,203.7,114.7,202.5,115z M204.6,123.9L204.6,123.9c0.6,0,0.3-0.2,0.3-0.2L204.6,123.9z M200.6,133.9
	L200.6,133.9c0,0,0.3-0.2,0.3,0H200.6z M196.9,150.9c-0.2-0.3-0.3-0.6-0.5-0.9c0-0.1,0.8,0.7,0.8,0.9H196.9z M194.6,142.7
	c0,0,1,0,0.7,0.6S194.4,142.7,194.6,142.7z M194.6,154.7h-2c-1-3.3,4.6-0.9,2.3-0.4L194.6,154.7z M190.5,157.7c0,0,0,1.2,1,1.2
	c1,0,1.3,0.6,0.9,1.4c-1.4-0.1-2.7-0.5-4-1c-0.5-1.2,1.6-1.8,2.4-2L190.5,157.7z M186.5,164.5c1.9,0,0-1.6,1.3-1.4
	c4.6,1.4-0.7,7.1-1.7,1.7L186.5,164.5z M187.4,197.2c1,0,0.7-1,1.2-1.5c1.3,4,2.6,0.5,3.2-1.6c1,1-2.1,8,1.8,3
	c0.7,1.9,0,4.1-1.6,5.2c0-1-1.5-1.5-1.9-2.3c-2.3,0-3,0.6-4.2-1.7c1-1,0.3-1.9,1.7-1.4L187.4,197.2z M193.1,236.8
	c-0.9,0,0-0.6,0-0.6s0.7,0.2-0.1,0.2L193.1,236.8z M191.6,236.8c-1.4,0.7-2.9,1.1-4.4,1c-0.7,0,0-0.7,0-0.7c2.4-2.5,2.8-2.5,4.7-1
	L191.6,236.8z M187.7,206.5c0.6-1.4,0.6,0,1.6-1.2v1c0-0.4-1-0.2-1.3-0.4L187.7,206.5z M191,210.8h0.9c-0.2,0-1-0.4-0.6-0.6
	L191,210.8z M191,202.8h0.7v-0.6L191,202.8z M187.2,261.1c-0.8,0.2-1.5,0.2-2.3,0c0.8-0.6,1.9-0.9,3-0.6L187.2,261.1z M180.7,264.6
	v-0.9c0-0.2,1.1,0.3,0.7,0.3L180.7,264.6z M179.8,238v-1.2c0-0.4,0.7,1.6,1.3,0c0-2.7,1.9,1,3.1,0C188.3,237.2,180.7,238,179.8,238z
	 M184.9,270.4c-1,0-0.6-0.9,0-1.4c0.6-0.6,2.1,1.4,3.6,0.6c1.5-0.9-3.1,1.1-3.6,1.1V270.4z M189,251.9c0-0.9-2.1,0-1.9-1.7
	c0.2-1.7,2.3,0.7,3,1.2s-0.9,1.1-1,0.8L189,251.9z M190,248.5c0-0.8,0.9,0,0.8,0.5c-0.1,0.5-0.9,0.1-0.8-0.2V248.5z M192.3,269.6
	c-2.4,0-1.7,0,0-1.5s1,0,2.1-0.9s0,1.2,1,1.2c1,0,1.8-0.8,2.5-0.6c-2,1.3-4,1.1-5.6,2V269.6z M197.4,134.6c0-2.1,3.6,1.5,3.5-1
	c1.5,1.5,3.2,3.4,3.4,0c1,0,1-1.7,1.6-2.8c0.6-1,1.3,0,1-1.2c-2.5-3.1,0.7-1.2,1.5-1.8c0.9-0.6,1,1.2,1.7,1.2s0,0.6,0,0.9
	c-2,1.2,0,2.7-3,3c0.5,3.1-2.3,2.5-1,3.9c1.2,1.4-1.8,1.5,0,1.9c0.7,2.4-2.1-1-2.7-1s0,0.9-2.1,0c-0.3-0.4-0.8-0.4-1.2-0.1
	c0,0-0.1,0.1-0.1,0.1c-0.6,0-1.2-1.2,0-1.9s-2.1-0.5-2.7-0.8L197.4,134.6z M203.9,202.2c0-0.8,1.1,0.5,0.5,0.7s-0.7,0.1-0.5-0.4
	V202.2z M203.1,206.3c-0.9,0.2-1.9-0.3-2.1-1.2c-0.1-0.3-0.1-0.6,0-0.9c0-0.9,4.4,2.8,2.1,2.4V206.3z M204.3,177.7
	c0-1.6-1.9-2-2.4-3.1c-0.5-1.1-1-2.3,0.7,0c3,0-1.2-4.4-2.5-4.7c-1.2-0.3,0-1.8,0.9,0c0.9,1.8,2.7,0,3.7,0s0.7,1.2,1,1.8
	c0.3,1.1-0.1,2.2-1,2.8c-1,0.6,2.1,1.7,2.1,3c0,1.2,0,1.2-0.9,0.9s-1.4,0.7-1.6,0L204.3,177.7z M202,149.1c-2.4,0.5-1.3-1.2-1.5-2.7
	c-0.2-1.4,1.9,0,2.5,0c-1.4,1.8,0.3,3.4-0.5,3.6L202,149.1z M206.4,148.1c0,0,0.9,0.7,0,0.7c-0.9,0-1,0.6,0,0.3V148.1z M207.3,236.5
	c1.7,0,3.8,1,0.6,0.9c-3.2-0.2-3.3,0.7-0.6,0.1V236.5z M207.3,210.6v-1c0-0.4,0.9,1.9,0.2,1.9L207.3,210.6z M199.3,147.9
	c0,0.9-1.4,0-1-0.6c0.7,0.2,1.1,0.8,1.2,1.5L199.3,147.9z M199.9,191c-1,0-0.9,0-1.7-0.7s0-0.8,0-1.2c-0.9-2.8,2.1,1.5,1.9-1
	c-0.7-0.7,0-0.9,0.6-1.2c2.3,0.6,0,1,1,2.1c1,1,1-1,1.7-1c2.3,1.9-3.6,1.2-1.9,3.3c0,0-0.6,0-0.7,0.5c-0.1,0.5-0.4,0.5-0.8,0.3
	L199.9,191z M202.5,262.7c0.3-0.4,0.6-0.8,0.9-1.2C205.4,263,204.5,264.9,202.5,262.7z M213.2,241.2c-3.3-1.2-2.9,2.6-6.1,2.6
	c-0.8,0-0.8-0.7-1-0.7s-0.8,0-0.8-0.5c0-0.5-2.1-0.8-3-1.6c-0.9-0.9-2.3-1.7-0.9-1.7c2.4,0.4,4.8,0.6,7.1,0.7
	C211.1,239.8,215.5,238,213.2,241.2L213.2,241.2z M222.7,125.1c-0.4-0.5-0.8-0.9-1.1-1.4c5.8-1-0.5,5.2,3,4.3
	c2.5,1.8-2.1,2.3-3.2-2.2c0.3,0.4,1.5,0.2,1.1-0.7L222.7,125.1z M223.3,155.6c-0.3-0.4-0.8-0.6-1.2-0.7l0,0c0,0,0-1,0.7-0.7
	s0.9,0,1,0c0.2,0-0.3,1.3-0.8,1.3L223.3,155.6z M221.6,154.9c0,0-0.5,0.7-0.7,0C220.7,154.2,221.6,154.9,221.6,154.9z M220,121.7
	c0.5,0,0.7,1,1,1.3s-1.6-0.9-1.2-1.3H220z M220.5,190.4c0-1.5,1,0,2.1-1.4c1-1.4,2.1,2.5,1,2.7C223.1,189,220.7,192.6,220.5,190.4z
	 M226.8,221.2h-2.3c-0.9-1.9-1-1.4-2.4-0.6c0-1,0.9-3,0-3.8c0.9-0.9-0.6-0.9,0.5-3.1c0.4,0.5,1,0.7,1.6,0.6c1-0.3-0.8,0.9,0,1.5
	c0.8,0.7-1.4,1-0.6,1.9c0.9,0.9,1.2-1,2-1.1c2.4,1.5-3,1.9,1.9,3.6c0.3,0.2-0.1,1.4-0.8,1.4V221.2z M234.4,189.3L234.4,189.3
	c0,0,0,0,0,0.4V189.3z M228.3,124.4c0-1,1,0,1.6,0.7c-0.6,2.1-1.6,1-1.6-0.3V124.4z M230,238c0-0.6,0-0.9-0.8-0.9h1
	C230.1,237.1,227.9,240,230,238z M230.8,235.9h0.7c-0.2,0-0.4,0.5-0.4,0.3L230.8,235.9z M230.8,192.1c0,0,0-0.8,0.6-1
	c0.6-0.2,0-0.7,1.3-0.9c1.9-1.7,0.6,1.6,3.5,1.4c-0.8,3-3.3,1.2-3.1,3.3c-0.7,0-0.7-2.1-0.9-2.7c-0.2-0.6-1.1-0.8-1.1,0L230.8,192.1
	z M235.2,236.8h-0.6c-0.6,0,0.4-0.2,0.4,0.3L235.2,236.8z M238.6,246.3c-0.5-0.5-1.9-2.2-2.2-0.7c0,4.2-4-1.3-2.9-1.9
	c1.1-0.6-0.9-2.6-1.1-3.5c2.2-2.6,1,1.2,2,2.3c0.1,0.4,0.6,0.6,1,0.4c0.2-0.1,0.4-0.2,0.4-0.4c2.3-1,1.2,3,3.3,3.8
	c0.3,0.5-0.4,0.7-0.8,0.5L238.6,246.3z M243.9,138.2L243.9,138.2c0,0.6,0,0.5-0.2,0.5L243.9,138.2z M261.1,142.1
	c-0.3,0.1-0.7,0.1-1,0c0.4-0.6,1.9-0.6,0.9,0.7L261.1,142.1z M259.2,257.1l-1,1.2c0-0.1,0.3-1.3,0.9-0.8L259.2,257.1z M257.5,267.5
	h0.5c0.5,0-0.7,0.9-0.7,0.5L257.5,267.5z M252.1,142.7L252.1,142.7C250.8,142.7,251.5,143.2,252.1,142.7z M246.8,109.9
	c-0.1-0.6,0.2-1.3,0.7-1.7c0.7-0.6,0-2.1,1.4-2.5c1.4-0.4,0-1.7,1.2-1.1c1.7,2.6,0.9,0.7,0,2.8c-0.9,2.1,0.8,5.4-2.1,4.4
	c-0.7-0.6-2,0-2-1C246.1,109.8,246.6,110.3,246.8,109.9z M248.5,140C249.6,137,250.2,140.8,248.5,140
	C246.9,139.1,248.3,140.1,248.5,140z M248.5,136h0.7c0,0-1.1,0.3-1,0H248.5z M246.7,155c0,0,0-1,0.6,0s-0.5,0.2-0.9,0.1L246.7,155z
	 M246.7,159.5h-1.4c1.2-0.6,0.8-2.3,2.5-2c1.7,0.3,4.7-2.6,5.2-1.1C251.9,158.7,250.2,156.2,246.7,159.5L246.7,159.5z M265.8,290.6
	c0,22.3-1.3,33.4-6,39.2c-0.5-0.4-0.9-0.9-1.2-1.4c-6.9-9.5-5.4-21.7-5.4-42.8v-5.6c0-0.5,0,0,1.2,0s0,1,1.5,2.3
	c1.5,1.2,0,0,1.2-1.2c1.2-1.2,0.6,0,1.2,0c0.7,0,0-0.8-1.2-1.9c-1.2-1.1,0,0,1.2,0s0,0,0.7-0.8c0.7-0.8-0.7-0.7,0.6-1.1
	c1.2-0.5,0.5,0.9,0.7,1.9c0.2,1,0.7,0,1.7,0s0,0,0-0.8c0-0.8,1.5,0.8,3.1,0h0.5L265.8,290.6z M267.8,254.6c-0.8,0-2.5,0-2.3-0.8
	c0.2-0.8,3,0.9,1.9,0.9L267.8,254.6z M266,158.3c0-2.6,1.7-2.1,2.8-0.7C268.1,157.9,266.2,160,266,158.3z M272.9,90.1
	c0,0,1-1.2,1.4-0.9C274.7,89.6,273.1,91.2,272.9,90.1z M287.4,103.8c-0.1,0.3-0.3,0.5-0.6,0.6C286.8,104.4,287.4,103.2,287.4,103.8z
	 M287.4,181.3c0,0.8,1.3,0,2,0c0.7,0,1,2.6,0,4c-1,1.4,1.4,0,1.8,0.9c0,3.1-4-1-3.9-2.4c1.9,2.1,2.1-0.8,0.8-1.8
	c-1.3-1-2.1-1.1-2.1-2.1s1,1,1.6,1.4H287.4z M295,150.3c0,0.6,2.1,0.8,1.4,1.2c-0.7,0.5-2.7,1-2.3,0c0.4-1,0.4-1.9,1-1.2H295z
	 M304.6,147.4c1,0,3.1,0.9,3.3,1.7c0.2,1.6-1,3-2.5,3.1c0,0,0,0,0,0c-2,0-1-1.3-1.4-2.2c-0.4-0.9,1.8-0.4,0.9-2.7H304.6z
	 M316.9,123.7c-0.6,0.9-1.6,0-2.1,1.5s0,0-0.7,0c-0.7,0,0,0.6-0.6,0c-0.6-0.6,1-0.9,0-1.6c-1-0.8-1.5,0-2.5,0c-1,0,1.2-1.4,1.9-1.9
	c0.7-0.5,2.7-3.1,2.5,0C315.2,124.8,317.8,121.3,316.9,123.7z M318.6,180.8c0.6,0.8-0.7,0.9-1.2,0.9c-0.6,0-0.9,0,0-0.9
	c0.9-0.9,0-0.9-0.6-0.9s0-2.3,0.8-2.3s1.1,0,1.1,1.4c0,1.4-0.3,0.7-0.5,1.7H318.6z M319.1,241.4c-1.2,0-1.2,0-1.4,1.6s0,1,0,1.5
	s-1.1,0-1.5,0c-0.4,0-1.2-1.2-3-0.9c-1.7,0.4-0.7-1.2,0-1.6c0.7-0.4,2.8,0.9,3-0.9c0.2-1.7-0.7-0.9,0.6-1.9c1.2-1,1,0.7,1.5,0
	s-1.4-1.3,0.5-1.3s0,0.6,0,1c-0.2,0.7-0.2,1.3,0,2L319.1,241.4z M317.7,268.8c0-0.5,0-1.2-1.2-0.9c0.4-0.6,2.1-0.2,0.9,0.5
	L317.7,268.8z M311.8,211.1c-0.9,0,0.7-0.9,0.7-0.5c0,0.4-0.9,0.1-1,0.1L311.8,211.1z M314.2,215.7c-0.4,0-0.7-0.3-0.7-0.7
	c0-0.4,0.3-0.7,0.7-0.7c1.1-0.2,1,1.2-0.4,1L314.2,215.7z M315.6,219.7c0,0.5-1,0-1,0l0.7-0.8L315.6,219.7z M311.4,143.5v1.5
	c0,0.5,0,0.6-1,0.6c-1,0-4-1-3.8-2.5c2.4-2.3,2.1,0.1,4.5-0.4L311.4,143.5z M303.2,129.4c0.6-0.8,1.2-0.6,1.4,0
	c0.2,0.6-1.4-0.5-1.8-0.6L303.2,129.4z M304,177c0,0.5,0,1.5,1,1.2s2.2,1.3,1.7,1.5s-2.5,0.9-2.3,0c0.2-0.9-1.5-1.6-2.6-1.2
	c-1,0.4,0-1,0-0.8s0.5-1.8,1.7-1L304,177z M306.2,229.6h-0.5c0,0,0.3-1.1,0.1-0.2L306.2,229.6z M306.2,202.6c0.5,0,0.5,0,0,0.5
	s-0.5-0.7-0.5-0.7L306.2,202.6z M306.7,266.1c0,0,0,1.6-0.5,1.6s-0.7-1.9,0-1.8L306.7,266.1z M303.5,189.9c-0.7,0,0,1.7-0.7,1.5
	c-2.1-0.7-8.2-1.9-2.5-3.1c0.2-0.1,0.5-0.1,0.8,0c-0.5,2.1,1.9,0.6,1.9,2.1L303.5,189.9z M300.6,196.3c-3.6,5-2.6,3.3-5,0
	c2.7-1.1,0.9-1.7,0-3l0,0c1.6,1,3.1,2.1,4.6,3.2L300.6,196.3z M300.6,208.8c0,0-1.3,0-0.7-0.9c0.7-0.9,0.2,0.7,0,1.4L300.6,208.8z
	 M295.9,183.4h1.2c-0.2,0-2.3,1.6-1.9,0.2L295.9,183.4z M294.8,265.4c-0.6,0-0.9-0.9-1.2-1.4c-0.4-0.6,2,1.6,0.6,1.6L294.8,265.4z
	 M292.5,149.9c-0.8,0.7-1.6,0-0.9-0.8c0.3,0.2,0.7,0.2,1,0c0,0,0,1,1.5,0C294,150.2,292.9,149.3,292.5,149.9z M290.2,218.1
	c0,0-1.2-0.9-0.6-1C290.3,216.8,291.6,217.4,290.2,218.1z M285.5,102.8c0-0.2,0.1-0.3,0.3-0.3s0.3,0.1,0.3,0.3c0,0,0,0,0,0v1.2
	c0,0.2-1,0-1-0.9S285.3,103.2,285.5,102.8z M285.5,228.9c0,1.4,1.2,1,2,0.6c0.8-0.5,0,3.4,2.4,3.4c0,2.1-1.2,0.5-2.3,1.5
	c-1.5,2.9-0.9,0.8-3,1.6c-0.3-0.9-0.5-1.8-0.6-2.8c1.4-2.5-2.5-0.7,1.5-4.8L285.5,228.9z M282.5,184.8c0.7,0,0.9,0,0,0.5
	S281.8,184.8,282.5,184.8L282.5,184.8z M324,336.4c-21.1,0-29.3-6.2-36.4-16.3c-6.1-10.7-8.8-22.9-7.8-35.2c0.9-0.6,0,0.9,0,1.5
	c0,0.7,0.7,0,1.9-0.9c1.2-0.9,0,0.9-0.5,2.1s0,1.3,0.7,0.5c0.7-0.9,0.7,0,1.2-0.7c0.6-0.7,0-0.7,0-1.2c0-0.6,0.6,0,1-0.5
	c0.5-0.5,0,0,0-1s0,0,0.9-1.4s-0.9-2.1-1-3c-0.2-0.9,1.2,0,1.8,0s0,0,1.2,0.5c5.7-5.7,6.6,0.6,7.8-4.5c0-1,2.6,1,3.2,0.9
	c0.7-0.2,2.1,0,1.8-0.9c-0.5-0.8-1-1.6-1.6-2.3l0,0c0.8,0.2,1.6,0.4,2.4,0.9c1,0-0.9,0.8-0.9,0.8c0.2,0.4,0.5,0.7,0.9,0.9l1.6,0.9
	c-0.2,0.3-0.2,0.6,0,0.9c0,0.6,1,0.6,1.5,0.9c0.7,0.2,1.3,0.2,2,0c0.7,0,0,0.9,0.9,1.2c0.2,0.4,0.2,0.9,0,1.3c1.6,0.6,2.1,0,3.1,0
	s0,0,1,0.7c1,0.7,2.7,0,1.9-1.1c-0.8-1.1-0.7,0-1.5-1c-0.9-1-1.9-0.6-1.7-0.9c0.2-0.3,0,0,0-1s0,0,1.3,0c1.3,0,0.7,0,0-0.7
	c-0.7-0.7-0.5-1-1.4-1.5c-1-0.5-0.7,0-0.9-0.8s-0.7,0-1,0h0.6c1.3,0,0.9,0,1.2-0.6c0.4-0.6,0.7-1,1.5,0c0.9,1,0,1.6,1.2,0.7
	c1.2-1,0-1,1-0.7c1,0.4,0,0,1.5,0c0.9,0,1.7,0.5,2.2,1.2c0,0,0.9,0,0.7,1.2s0.8,1,1.4,1h2.5c0.4,0-0.9-0.6-1.4-2.7c-0.6-2.1,0,0,1-1
	s0.5,0,1,1.2s0.5,1.9,0.7,0c0.2-1.9,0.8,0,1.6-0.8c0.9-0.8,0-1.5,0-1.3c0.8,0.2,1.5,0.2,2.3,0c1.2,0,1,0,1.7,0.9
	c0.7,0.9,0,0.7,0.8,1.2l0.9,0.7c0,0.5,1.1,0,2.1,0h1l1,1.9c0,1,0,0.6,0.5,0c0.5-0.6,0-0.7,1-1.4c1-0.8,1,0,1.4,1.9
	c0.4,1.9,0,0.8,1.9,1.2c1.9,0.5,1.3,0,2.4,0s0.9,0.9,1.8,1c1,0.2,0-0.6,0-1.2c-0.1-0.7-0.1-1.4,0-2.1c0-1-2.1-0.9-3.1-0.5
	c-1,0.4-1.8,0-2.1-1.2s0-0.6,0.9,0c0.9,0.6,0,0,1.3,0s0-0.8,0-2.3c0-1.5,0.6,0,1.4,1s0,0,1,0.9c0.7,0.5,1.4,1.1,2.1,1.7
	c1,1,1,3,1,2.3c0-0.7,0.9-1,1.9-1.6c1-0.6,0,0,0-0.5c0-0.5,0-0.7-1.4-1.5c-1.4-0.9,0-0.8,0.6-1.2c0.6-0.5,0.9,0,1.7,0s0.7,0,1.9-0.9
	c1.2-0.9,0.8-0.7,1.8-0.7c1,0,0.9,0,0.7-1.4s-0.7-0.9,0-1.2s0.7,0,2.3,1s1,0,1.2,0.6c0.2,0.6,0.5,0,2.8,0s1.3,0,1.3,0.6
	c0.6-0.7,0,0-0.9-1c-0.9-1,0-0.9,1.2-1.9c1.2-1,0.9-0.5,1.2-2.3c0.4-1.8,0,0,1,0s0,0,0-0.7c0-0.7,0-0.7,1-1.2c1-0.6,0.7,0,1,0.8
	c0.4,0.8,1.2,1.3,1.5,0.7c0.3-0.7,0.8,0.9,1.2,1.2c0.4,0.3,1,0.3,1.3-0.1c0.2-0.3,0.3-0.6,0.2-1c0-0.9,0.8-1.4,0-1.9
	c-0.8-0.7-0.9-1.9-0.2-2.7c0.1-0.1,0.1-0.1,0.2-0.2c1-1-1.2-1-1.7-1.7c-0.5-0.7,0-1.5,0-2.3s0,0,1,0s0,0,0-1.1c0-1.1-0.7-1-1.2-1.2
	s0-1.4,1.2-2.8c1.2-1.3,1.2,0,0.7,1.7s0,1.9,0.7,1.9c0.7,0,1-1.4,2.3-1.4c1.2,0,0-0.9,0-1.5s0-1.2,1.2-1c1.2,0.2,0.6,0.9,1.2,1.5
	c0.7,0.7,0.7,0,0.7-1.7c0-1.7,0-0.7,0.8-0.5c0.8,0.2,0.7,0.5,0.9,0c0.2-0.5,0-0.7,0-2.2s0.7,0.5,1.7,0.9s0-1,0-1.6s-0.7-0.7,0-1.5
	c0.7-0.9,0-0.9,0-1.6s0-1.1,1-1.3c0.7-0.1,1.3-0.3,1.9-0.6c0.9,0,2.1,1.2,3.3,1c1.2-0.2,0-0.7-0.8-1c-0.8-0.4-0.9-1-1.7-1.7
	s-1-1.4,0-2.1c1-0.7,1.6,0.9,2.5,0c0.9-0.9-1.7-1.4-2.6-1.7s-0.8-1,0.9-1s0,0-0.8-1c-0.8-1-1,0-2.4,0c-1.3,0-0.8,1-1.8,1.7
	s-0.7-2.8-1.3-1c-0.7,1.7-1.2,1-2.5,1c-1.2,0,0-1.2-1.3-2.7c-1.3-1.4,0.7-0.7,1.5-0.5c0.9,0.2,1,0,1.9-1s0-0.7,0-1.4v-1.5
	c0-0.9-0.6-0.9-1.2-1.4c-0.7-0.6,0-0.9,0.9-0.7c0.9,0.2,0.6,0,1.7-0.5s0.8,0,0.6,0.7c-0.2,0.7,0,1,0.9,1.9c0.9,0.9,1,0,1.4,0.9
	c0.4,0.9,0.5,0.7,1.1,0c0.5-0.2,1-0.2,1.4,0c0.1-0.7,0.1-1.4,0-2.1V229c0.7,0.4,1.2,1,1.4,1.7c0.2,0.9,1.6,0,1.6,0
	c0.5-0.1,1-0.1,1.5,0c0.9,0,0-0.9-0.9-1c-0.8-0.7-1.4-1.6-1.9-2.5c-0.6-1,2.1,0,2.1,0c0.1-0.4,0.1-0.9,0-1.3
	c-0.2-0.6-0.4-1.1-0.8-1.6c0.4,0.2,0.9,0.2,1.2,0c0.1-0.7-0.2-1.4-0.7-1.9c-0.7-0.9-0.9-1-1.4-1.8c-0.6-0.8,0.6-0.9,0.6-1.3
	c0-0.5-0.2-1-0.6-1.4l-1.5-2.3c-0.6-0.7,0-0.9,0-2.2s-0.6-1-0.9,0s0,1.1,0,2.4c0,1.2,0,1.6-1.2,1.6c-1.2,0-0.5,0-1.3,0.7
	s-0.6,0-1.4-0.9c-0.9-0.9,0-0.7-0.9,0l-0.7,2.3c-0.6,1.3,0,0,0,0.9v1.5c0,0.7-0.7,0-1.2-0.5s-0.5,0-1.4,0c-1,0,0,0.9-0.9,2.6
	c-0.9,1.7-0.7,0-1.1-1.4c-0.2-0.8-0.4-1.6-0.8-2.4c-0.8-1.9,0-1.2-1.2-1c-1.2,0.2,0,1-0.9,2.4s-1-0.7-1.3-1.3c-0.3-0.7,0-0.8,0-1.2
	s0-0.7-0.6-1.9c-0.6-1.2-0.5-1.2,0-1.9c0.1-0.6,0.1-1.3,0-1.9c0-1-1.9-1-3-1.9c-1-0.9,0,0,1.2-0.6c1.2-0.6,0-0.9-0.7-1.5
	c-0.3-1.3-0.5-2.6-0.6-3.9c0-1.1-0.7-0.5-1.2-0.5c-0.6,0-1.3-1.2-2.1-2.1c-0.4-0.4-0.7-0.8-0.9-1.2c0-0.9-0.2-1.9-0.5-2.8
	c-0.5-1.2,0-1.7,0-1.7c0.3-0.1,0.6-0.1,0.9,0c0.1,1,0.4,1.9,1,2.7c1,1.2,0,0,1.3,0.9s0,0,0.9,1.2c0.9,1.2,1,0.7,1,0s0,0,0-0.7
	s0-0.5,0.9-1.2s0-0.5-0.6-2.1s0-0.7-0.9-1.7c-0.9-1,0-0.9,1.4-0.9l0,0v0.7l0,0v1.2c0,1.3,0,0.5,1,0s0.6,0,0.8,0
	c0.2,0.4,0.7,0.5,1,0.3c0.1-0.1,0.2-0.2,0.3-0.3v-2.1c0-1.5-1-0.7-1-1.2s0.9-0.9,1.2-1.3c0.4-0.5,0,0,1.4-0.6c0.7-0.1,1.4-0.1,2.1,0
	c1.3,0,0-0.8,0-1.4s-0.6-0.9-1.4-2.1c-0.9-1.2-1.2,0-2.3-0.7c-1-0.7,0-1.8-0.9-0.9c-0.9,1-0.9,0-1.5-1.2c-0.7-1.2-1.9,0-2.7-1.2
	s0-1.7,0.6-1.7s1-0.6,1.5-1.8c0.5-1.2,1-1,0.8-1.9c-0.4-1.2-1.1-2.3-2.1-3.1c-1-0.7-0.6-1,0-2.6c0.6-1.5,0-0.9-0.8-0.9
	c-0.8,0-0.9,1.7-1.7,0.7c-0.9-1,0-1-0.5-1.3c-0.8,0.3-1.6,0.2-2.3-0.3c0-1.1-0.7-0.9-1.5-1.1s-1.2,0-2,0s0-0.6,0-1.8s-1-1.3-1.6-1.9
	c-0.5-0.5-0.7-1.2-0.7-1.9c0-1,0,0,1.4,0c1.4,0,1.9,0.6,1.3-0.9s-0.7-1.6,1-1.7s0.7-0.6,0.5-2.1c-0.2-1.5-0.5,0-1.4-0.8
	c-1-0.8,0-2.1-1.1-1.5c-1.1,0.6-0.8,0.7-1.6,0c-0.9-0.7,0,0.7-1.2,2.1c-1.2,1.4-0.9,0.9-1.9,0c-1-0.9-1,0-1.9,0
	c-0.7,0.1-1.4-0.4-1.7-1c0-1,1-1,1.2-1.7s0-1-1.2-1.7c-1.2-0.7-1.4-1.2-0.7-2.7c0.8-1.4,1.1,1.4,1.1,1.4c-0.1-0.6,0.1-1.3,0.6-1.7
	c1,0,0.6,0,0.6-1.2v-0.9c0.3-0.3,0.5-0.8,0.6-1.2c0-0.7,0,0,1.4,0c1.4,0,0.9,0.6,1.3,0c0.5-0.6,0.6,0,0-1.3c-0.6-1.3,0,0,0-0.8v-1.7
	c0-1-0.9-1-1.2-1.3c-0.4-0.3,0-1.2,0-1.2h2.8c2.1,0,1.2,1,2.7,1s0,0,0-1.4c0-1.4-0.7-1.5,0-2.4s2.1,0,1.7-0.7c-0.4-0.7,0.7-1,0-1.4
	c-0.7-0.5-1.2,0-1.4-1.4c-0.2-1.4-1.4,1-2.8,0c-1.3-1-0.9,0-1.2,1.2c-0.3,1-1.3,1.6-2.3,1.4c-0.1,0-0.2-0.1-0.3-0.1
	c-1.3,0,0-0.7,0.8-1.2s0-0.9-1.4-1.3c-1.4-0.5-2.8,0-5-0.8c-2.3-0.8,0-0.7,1.2-0.7c1.2,0,1-0.9,2.5-1.9s3,1.7,3,1.7
	c0.4-0.5,0.4-1.2,0-1.7c-0.3-0.7-0.8-1.3-1.5-1.6c-0.9,0-0.6-1.9,0-3c0.6-1-1-2.4-2.8-2.4c-1.7,0,0-1.9-1.6-1.8
	c-1.6,0.1-1.1-0.9-2-1.1s-1.4,0-3.3,1.1c-1.9,1.1-0.9,0-1.9,0c-1,0-0.9,0-1.4,2.3s-1.4,0-1.5,1.1c-0.1,1.1-1.8,2.7-2.7,2.3
	s-3.2-1.4-3.8-2.6c-0.6-1.1,2.1,0.9,3.3,0.9s0.7-1.2,0-2.7c-0.7-1.4,0,0,0-0.9c0.5-0.8,0.9-1.8,1-2.8c0.6-2.1-2.1-1.5-2.3-1.9
	c-0.2-0.4,0-1,0-1.7s1.2-0.6,2.1-0.6c0.9,0,0.7,0,2.4-1.2s1.4,0.6,2.5,1.4c1,0.9,1,0,2.5,0c1.4,0-0.6-1-0.9-2.1
	c-0.3-1,1.5-1.8,2.6-2.7c0.5-0.6,0.4-1.5-0.3-2c-0.3-0.2-0.6-0.3-1-0.3c-1.2,0-1.3,0-1.3-1c0-1-2,0-0.8-1.8c1.2-1.8-0.7,0-1.5-0.7
	c-0.9-0.7-0.8-1.2-1.2-2.3c-0.5-1-1.5,0.9-3.1,1c-1.6,0.2-1-1.5-1-3.3c0-1.8-1.3-0.7-1.5,0c-0.2,0.7-1.9,0-2.7,0s-1,0.8-1.3,1.4
	c-0.5,0.4-0.8,0.9-1,1.5c-0.8,1.2,0,0,2.1,0c2.1,0,0,0.7-0.8,1.5c-0.8,0.9-2.2,0-3.8,0h-1.5c-0.7,0-0.9,0-1.4-1.2
	c-0.6-1.2,0,0-1,1.9s-0.9,0-2.4,0c-1.1-0.4-2.4,0.2-2.8,1.4c0,0.1-0.1,0.2-0.1,0.3c0,0.5,1,0.7,1.4,1.7c0.3,0.6,0.7,1.1,1.2,1.4
	c0.7,0.5,0.9,0.5,0.9,1.1s0,0.8,1.3,2c1.3,1.2,0,0.9,0,1.5h0.8c0,0,0-0.7,0.6-0.7l0,0v0.9c0,0.3,0,0.6,0.7,0.8c0.7,0.2,0,0,0-0.8
	h0.9v0.8c0,0.7-0.6,0.7-0.9,0.7c-0.2-0.1-0.5-0.1-0.7,0l0,0v0.8l0,0c0,0,0,0.6-0.9,0.6c0-0.2,0-0.4,0-0.6v-0.7
	c-0.4,0-0.7-0.3-0.7-0.6c0,0,0,0,0,0l0,0c-0.6,0.4-1.2,0.7-1.9,0.8c-1.2,0.2-1.7,0-2.3-1.4c-0.6-1.4,0.8-1.4,0.8-3.1s-0.8-0.9-1.8-1
	c-1-0.2-1.7-1.2-2.2-1c-0.5,0.7-0.8,1.6-0.9,2.5c0,1.3-0.8,0.9-2.5,0c-1.7-0.9-0.7-1.4-1.9-0.6c-1.2,0.9-1.2,0.6-1.2,1.2v1.4
	c0,0.9-0.9,0.9-2.1,1c-1.2,0.2,0,0,0,0.7c0,0.7,1.9,1,1.7,2.3c-0.2,1.2-1.2,0.5-3.1,0s-0.7-0.7-1.7-1.3s-1-0.9-0.8-2.7s1.4,0,2-1.1
	c0.6-1.1,0-1-0.6-2.5c-0.6-1.5,0-2.1-0.7-2.8c-0.7-0.7-1.2,0-1.6-1.4c-0.4-1.4,0-1.2-0.9,0c-0.5,0.8-1,1.4-1.7,2
	c-0.9,1.1-2,2-3.3,2.5c-1.3,0.7-2.3-0.5-2.8-1s0.9,0,1.4-0.9s-0.6-0.7-0.6-1.4c0-0.7,0.3-1.3,0.9-1.7c0.8-0.7,2.1,0,3,0s0-1-0.7-2.4
	c-0.1-1-0.5-2.1-1-3c-0.4-0.8-0.6-1.6-0.9-2.5c0-0.6,1.2,0,2.1,0s0-2.3,1.3-3.1s0-0.7-0.7-0.7h16.8c104,1,124.9,73.9,124.9,117.7
	C435.7,286.1,401.3,336.4,324,336.4L324,336.4z M322.1,119.8h0.6c-0.3-0.3-0.8-0.3-1,0C320.9,120,321.7,119.6,322.1,119.8
	L322.1,119.8z M326.4,112.4L326.4,112.4z M326.4,227.5c0.2,0.3,0.4,0.7,0.5,1C326.9,228.9,326.4,227.8,326.4,227.5z M331.2,146.5
	c-0.7,0,0-1-1-1.2c1,0,0-2.3,1.2-1.9c1.2,0.4,0.9,0,0,1c-0.9,1,1.7,2.3,0.2,2.1H331.2z M342.7,142c0.8,0,1.4,0,0.8,1
	c-0.7,1-0.6,1.5-1.6,0.5c1.6-0.7,0.4-1.4,1.2-1.4H342.7z M346.2,223.1c-1,0-5.2-1.7-4.4-2.6c0,0.9,1.4,0.5,1.9,0.7s3.9,1.7,2.9,1.9
	L346.2,223.1z M344.1,181.3c0.6-0.5,1,1,0,1c-1-0.1,0-0.8,0.4-1H344.1z M347.9,183.4c-0.9,0-2.1,0.6-2.1-0.9c0.1-0.8,0.5-1.5,1-2.1
	c0,0,2.3,0,1.8,0.8c-0.4,0.7-0.5,1.4-0.4,2.2L347.9,183.4z M347.2,217.5c0.9,0,2.8,3.9,0.5,3.1v-1c0-2.8-3.1,2-3,0s2.3-0.7,2.9-2.1
	H347.2z M352.7,255.6c0,0,0.7,1,0.9,1.4c0.2,0.4-1.2,0-1.8,0c-0.6,0-0.5,0,0-0.8c0.5-0.8,1.4,0.8,1.3-0.3L352.7,255.6z M352.7,215.4
	c0.5,0.2,0.9,0.7,1,1.2c0,0-1.2-0.5-1-0.9V215.4z M352,217.7L352,217.7c0,0.6-0.4,1.2,0,0.4V217.7z M352,183.4c0.5,0,0.5,0,0.5,0.9
	c0,0.9-2.5-0.5-0.9-0.5L352,183.4z M352,222.9c0,0-0.7,0-0.7-0.6s0.3,0.4,0.1,1L352,222.9z M352,225.7c1.2,0-0.5,1.2-0.7,1.9
	c-0.2,0.7-1,0-1.6,0s-1-0.7,0-0.7s1-0.8,1.7-0.6c0.7,0.2-0.7-0.3,0-0.3L352,225.7z M350.1,265.5c0,1.2-0.9,0-0.7,0
	c0.2,0,0.3-0.1,0.1,0.4L350.1,265.5z M347.8,251.1c0,0-0.7,0,0-0.6c-0.1,0.4-0.3,0.7-0.6,1L347.8,251.1z M345.4,135.8L345.4,135.8z
	 M345.4,227.3c-1.5-0.7-2.6-2-3.1-3.5C343.1,224.2,344.3,226.3,345.4,227.3z M342.9,182.9L342.9,182.9c0-0.7-0.3-1-0.3,0H342.9z
	 M343.7,218.2c0.6,0-1,2.3-1.2,1.9c-0.7-1.9-3-0.5-3.1,0.8c-0.2,1.2-1.3,0-1.7-0.6c-0.4-0.6,0.9-0.7,0-1.5c2-0.2,3.9-0.5,5.8-1
	L343.7,218.2z M339.6,257.1c-0.7,1.2-0.6,0,0-0.6C340.2,255.9,340,256,339.6,257.1z M338.6,185.8c-2.7,0,0-3.2,1.5,0
	c-0.3,1.1-0.9-0.5-1.5-0.5V185.8z M335.1,226.8c-2.8,0,0.6-1,1.2-1.4c0.7-0.4,0.6,0,0.9,0s-1.2,1.1-2.1,1V226.8z M336.7,231.6
	c0,0-0.8,1-1.2,0.9c-0.5-0.2-0.5-1.2,0-1c0.5,0.2,1.2-0.7,1.2-0.3V231.6z M334.4,263.4c1.2,0,1.5-1.5,2.8-1.1c3.3,0,1.6,2.6,4,3.2
	c2.4,0.7,3.5,0.9,0.9,1.2s-2.2-1.4-3.6-1.4c-2.2-0.1-4.4-0.4-6.5-1c0.4-1.4,1.6-1.4,2.5-1.4L334.4,263.4z M330.8,230.1v1.3
	c0,0.5,0,0.7-0.6,0.9s1.2,1.6,1.5,2.3c-0.7,2.6-4-1.9-4-3.1c2,1,1.2-1.9-0.7-2.3c2.5-0.1,1.8-0.7,3.7,0.5V230.1z M358.1,254.8
	c0.9,0.5-1,1.9,1.7,2.5c0.7,1.1-0.6,0-1,0s-2.7,0-2.3-1.3c0.4-1.3,1,1.1,1.6-1.6L358.1,254.8z M366.4,244.7v-1.2c0-0.4,1,0.6,0,0.8
	V244.7z M368.3,249.5c0,0.6-1.1,0.6-1.7,1c-0.6,0.5,0,1,0,0c0-1,0-4.1,1.7-1.5V249.5z M366.4,220.3c-0.5,0.8-1,0-1.7,0.6
	c-0.9,0.9-1.9,1.6-3,2.4c-0.6,0-0.7-1-1.4-0.9s0-1,0-1.5s-0.9-2.3,0-3.3c0.9-1,1.7,0.9,2.4,0c0.7-0.9,1.7-2.1,2.8,0.6s1.5-1.9,1,1.7
	L366.4,220.3z M361.5,252.9c4.4,1.5,1-1,4,0c0,0,0.6,0.5,0,0.7s-1.7,1-2.5,1.3c1.4-2.1-4.3-1.8-1.5-2.5V252.9z M361.5,260.5
	c0,0,1.1,0,1.3-0.7c0.2-0.7-2.2,1-1.8,0.2L361.5,260.5z M360.8,230.4h0.6c-0.4-0.1-0.7-0.3-1-0.5L360.8,230.4z M359.7,262.8v-0.7
	c0-0.2-0.3,0.2-0.5,0.2L359.7,262.8z M358.4,260.9c0-0.6,0-0.9,0.7,0c0.7,0.9-1.3,0.6-1.1-0.5L358.4,260.9z M373.5,244.5v0.8
	c0,0-0.7-1.2-0.5-1.2L373.5,244.5z M351.8,141c0,0-1,0.9-0.9,0C351.2,140.1,352,140.4,351.8,141z"/>
<path class="st0" d="M109,398.9c-20.4-0.7-37.4,15.3-38.1,35.6c0,0.6,0,1.2,0,1.8c-0.3,19.7,15.5,35.8,35.2,36.1c1,0,2,0,2.9-0.1
	c20,0.4,36.5-15.5,36.9-35.5c0-0.5,0-1,0-1.5c0.7-19.4-14.4-35.7-33.9-36.4C111,398.9,110,398.9,109,398.9z M110.3,469.1
	c-21.1,0-28.6-20.4-28.6-36.2c0-23.2,14.4-30.9,25.4-30.9c20.2,0,28,19.1,28,36.4C135.1,459.5,123.1,469.1,110.3,469.1z
	 M220.5,400.5c0.9,0,0.7,1.9,0,2.6H218c-2.1-0.1-4,0.9-5.2,2.6c-1.3,7.1-1.7,14.4-1.4,21.6v12.2c0.7,9-2,18-7.4,25.2
	c-5.5,5.2-12.8,7.9-20.4,7.6c-7,0.5-14-1.5-19.7-5.7c-6.5-6.6-9.6-15.9-8.3-25.1v-25.1c0-11.1,0-12.9-6.3-13.4h-2.8
	c-0.8,0-0.6-2.2,0-2.6h26.2c0.6,0,1,2.1,0,2.6H170c-6.1,0.6-6.3,2.3-6.3,13.4v23c0,17.1,5.2,28.6,21.4,28.6s21.2-12.2,21.4-28.6v-12
	c0.3-7.4-0.4-14.9-2.1-22.1c-0.8-1.2-2.7-1.9-5.4-2.1h-2.6c-0.7-0.7-0.7-1.8,0-2.6c0,0,0,0,0,0h12.2
	C212.9,400.7,216.9,400.8,220.5,400.5z M265.1,433.1c-1.2,0-2.1-0.6-2.1-1.6c6.4-1.9,10.9-7.8,11-14.5c0.2-5.6-2.9-10.8-8-13.1
	c-5.7-2.4-11.8-3.4-17.9-3c-7.6-0.2-15.3,0.1-22.9,1c-0.7,0.5-0.8,1.6-0.3,2.3c0.1,0.1,0.2,0.2,0.3,0.3h3.3
	c4.7,0.5,5.2,2.4,5.2,10.4v40.5c0,11.1,0,12.3-5.7,13.1h-1.9c-0.8,0.7-0.6,2.5,0,2.6h25c19.1,0,28.6-8,28.6-20.3
	C279.8,442,273.6,434.6,265.1,433.1z M242.4,407.3c0-1.9,0.6-2.4,1.6-2.8c1.6-0.5,3.2-0.7,4.9-0.6c8.2,0,15.8,3.9,15.6,14.3
	c-0.2,10.4-5.7,13.2-16.7,13.6c-5.4,0-5.6,0-5.6-3.1L242.4,407.3z M252.9,468.1c-3.1,0.2-6.1-0.8-8.4-3c-1.8-3.6-2.6-7.7-2.3-11.7
	v-15.3c0-2.3,0.6-2.8,6.1-2.8c17,0,21.2,9.5,21.2,18.1C269.2,463.7,262.4,468.1,252.9,468.1z M341.7,456.6c-1.1,5-2.6,10-4.6,14.8
	h-49.9c-0.7,0-0.9-1.9,0-2.6h3.3c6.1,0,6.3-2.2,6.3-13.1v-38.1c0-11.1,0-12.9-6.9-13.3h-2.6c-0.6-0.6,0-2.5,0-2.7h26.8
	c0.7,0,0.9,2.3,0,2.7h-2.6c-6.3,0-6.5,2.1-6.5,13.3v37c0,6.8,0,9.5,2.1,11.4c2.1,1.9,3.1,2.7,11.6,2.7c8.5,0,11.3-0.6,12.9-1.6
	c3.3-2.7,5.8-6.3,7.1-10.4C339.6,455.3,341.7,455.9,341.7,456.6z M402.6,457.1c-1.1,5-2.6,9.9-4.7,14.6h-52.5c-0.7,0-0.9-1.9,0-2.6
	h3.5c6.1,0,6.6-2.2,6.6-13.1v-38.1c0-11,0-12.5-6.4-13.3h-1.8c-0.7-0.6,0-2.5,0-2.7h32.6c4.8,0.3,9.5,0.3,14.3,0
	c0.7,1.8,1.1,9.5,1.7,14.1c-0.6,0.6-2.1,1-2.7,0c-1.5-5-2.4-8.7-8-10.1c-3.4-0.5-6.8-0.8-10.2-0.7h-7.7c-3.1,0-3.1,0-3.1,4.2v21.2
	c0,3,0,3,3.5,3h6.3c3,0.1,6.1-0.1,9.1-0.6c1.2,0,1.9-1,2.6-3.6l0.9-4.4h2.9v20.9c0,2.2-2.3,0.8-2.9,0l-0.9-4
	c-0.2-1.9-1.5-3.5-3.2-4.1c-2.7-0.5-5.5-0.7-8.2-0.6h-6.1c-3.1,0-3.5,0-3.5,3v15c0,5.6,0,9.5,2.1,11c2.1,1.4,3.5,2.7,12.9,2.7
	c4.6,0.4,9.3-0.3,13.5-2.1c3.4-2.7,6-6.2,7.6-10.2C400.9,455.5,402.6,455.9,402.6,457.1z M37,391.1c-8.9-2.9-18.1-4.2-27.4-3.8
	c-10.7,0-21,0-31.5,1c-0.9,0.6-1.1,1.8-0.5,2.6c0.1,0.2,0.3,0.4,0.5,0.5h2.8c5.2,0.8,5.9,3.3,5.9,12v47.6c0,13.2,0,14.6-7.6,15.8h-3
	c-0.6,1-0.6,2.2,0,3.1h15.6c5.2,0,12.4,1,20.4,1c9.7,0.6,19.5-1.2,28.4-5.1c13.7-7.4,22-21.9,21.5-37.4
	C63.1,411.8,52.9,396.5,37,391.1z M14.6,467.3c-7.9,0-12.8-1.3-15.3-5.2c-2.2-4.2-3-8.9-2.5-13.5v-46.1c0-5.6,0-8.9,1.4-9.5
	c3.9-1.5,8.2-2.1,12.4-1.7c32.9-0.1,39.4,23.2,39.4,37.3c0,23.2-11.1,39.2-35.4,39L14.6,467.3z M421.7,388.5h61.8
	c0,5-0.9,11.8-0.9,15.8c0,1-2.7,0.9-3.1,0c0.1-3.4-1-6.8-3.1-9.5c-4.4-2.5-9.5-3.6-14.6-3.1h-9c-3.8,0-3.6,0-3.6,4.2v55.6
	c0,13.2,0,15.1,7.5,15.9h4c0.7,0.6,0,2.9,0,3.1h-34.2c-0.8-0.5-1.1-1.7-0.5-2.5c0.1-0.2,0.3-0.4,0.5-0.5h4.5
	c7.1-0.7,7.8-2.6,7.8-15.8v-55.9c0-4,0-4-3.8-4h-7c-5.4-0.6-10.8,0.5-15.5,3c-2.3,2.5-4,5.6-5,8.9c-0.9,0.8-3.4,0-3.2-0.9
	c1-5.7,1.1-9.5,1.9-14.8C406.3,388.2,415.8,388.5,421.7,388.5z M611.3,456.4c-1.6,4-4.2,7.5-7.4,10.3c-4.3,1.7-8.9,2.2-13.5,1.7
	c-9.5,0-11.6-1.3-12.9-2.6c-1.8-3.4-2.5-7.2-2.1-11v-15c0-2.8,0-3,3.6-3h6.1c2.7-0.2,5.5-0.2,8.2,0c1.9,0.6,3.2,2.2,3.3,4.2l0.9,4
	c0.8,0.7,2,0.7,2.8,0V435c0-3.6,0.6-8.2,0.6-10.8c-0.8-0.7-2-0.7-2.8,0l-0.9,4.4c-0.6,2.6-1.2,3.2-2.5,3.6c-3.1,0.6-6.3,0.8-9.5,0.6
	h-6.1c-3.1,0-3.6,0-3.6-3v-20.9c0-4,0-4.2,3.2-4.2h7.7c3.4-0.1,6.9,0.1,10.3,0.7c5.3,1.4,6.4,5,8,10.1c0,0.7,2.2,0,2.6,0
	c-0.1-4.7-0.6-9.5-1.5-14.1c-4.8,0.3-9.7,0.3-14.5,0H559c-0.7,0-0.9,2.3,0,2.7h1.8c6.2,0.8,6.2,2.3,6.2,13.4v38.1
	c0,11.1,0,13.1-6.6,13.4h-4.2c-2.6,0.3-5.2-0.4-7.3-1.8c-8.6-8.3-15.8-18-21.2-28.6c-0.5-0.7-1-1.9-0.5-2.6
	c7.4-2.6,12.5-9.3,13.1-17.1c0.2-6.3-3.2-12.2-8.8-15.1c-5.6-2.4-11.6-3.5-17.7-3.1c-7.9-0.3-15.8,0.1-23.6,1
	c-0.7,0.5-0.8,1.6-0.3,2.3c0.1,0.1,0.2,0.2,0.3,0.3h3.4c4.4,0,4.8,2.4,4.8,12.5v38.1c0,11.1,0,12.3-6.5,13.1h-2.6
	c-0.6,0.9,0,2.5,0,2.6H515c0.7,0,0.9-2,0-2.6h-2.3c-6.1-0.9-6.5-2.2-6.3-13.1v-13.1c0-2.3,0-2.3,5-2.3c2.9-0.5,5.9,0.8,7.5,3.3
	c3.2,4.7,7.6,12,10.4,16c7.5,10.8,12.6,13.4,21.6,13.4c2-0.2,4.1-0.5,6.1-1h52c2-4.6,3.6-9.3,4.8-14.2
	C613.3,456.4,612.3,456.1,611.3,456.4L611.3,456.4z M514.3,436.6c-2.5,0.3-4.9,0.1-7.3-0.5v-28.4c0-3,0-3.3,7-3.3
	c8.6-0.7,16.1,5.7,16.8,14.3c0.1,0.7,0.1,1.4,0,2.1c0.5,4.9-1.4,9.8-5.1,13.1C522.2,436,518.3,436.9,514.3,436.6z M678.1,457.1
	c-1.2,5-2.8,9.9-4.7,14.7h-52.5c-0.6,0-0.9-1.9,0-2.6h3.6c6.1-0.6,6.7-2.3,6.7-13.2v-38.1c0-11,0-12.6-6.5-13.4H623v-2.6h32.1
	c4.8,0.3,9.6,0.3,14.4,0c0.6,1.7,1.2,9.5,1.8,14.1c-0.6,0-2.1,0.9-2.7,0c-1.5-5-2.4-8.8-8-10.1c-3.4-0.7-6.8-1-10.3-1h-7.6
	c-3.1,0-3.1,0-3.1,4.1v21.2c0,3,0,3,3.5,3h6.1c3.2,0.2,6.4,0,9.5-0.5c1.1,0,1.9-1,2.6-3.7l0.9-4.3c0.8-0.7,2-0.7,2.8,0v20.9
	c0,0.7-2.1,0.7-2.9,0l-0.9-4c-0.2-1.9-1.5-3.6-3.3-4.2c-2.7-0.4-5.4-0.6-8.1-0.5h-6.1c-3.1,0-3.5,0-3.5,3v15c0,5.5,0,9.5,2.1,11
	c2.1,1.4,3.5,2.6,12.7,2.6c4.4,0.4,8.9-0.2,13.1-1.7c3.4-2.7,5.9-6.3,7.4-10.3C676.3,455.9,677.5,456.2,678.1,457.1z M192.3,524.5
	c-4.2,0.1-8.1,1.8-11.1,4.7v-19.6H169v2.2l3,0.6v45.1l-3,0.6v2.2h12.2v-1.9c2.6,1.8,5.6,2.7,8.8,2.7c10.6,0,16.5-6.9,16.5-19.1
	C206.4,531.5,200.5,524.5,192.3,524.5z M188.9,557.4c-2.8-0.1-5.6-1.1-7.7-3v-22.3c1.9-1,4-1.6,6.1-1.7c5.9,0,9.5,5,9.5,13.2
	S193.9,557.4,188.9,557.4z M234.2,525h10.1v2.5h-2.9l-14.1,34.5c-3.1,7.9-6.1,14.3-12.7,14.3c-2,0-4-0.2-5.9-0.7v-7.6h2.1l1.2,3.5
	c0.9,0.6,1.9,1,3,1c4.2,0,7.1-6.3,8.8-10.3v-0.9l-14.2-32.6l-2.9-0.6v-2.4h15.5v2.6l-3.1,0.6l9.1,21.4l8.6-21.6l-3.1-0.6v-2.8
	L234.2,525z M291.9,510.9h16.6v2.5l-3.3,0.5V557l3.3,0.6v2.5h-16.6v-2.5l3.5-0.6v-19.6h-21.2V557l3.3,0.6v2.5h-16.2v-2.5l3.2-0.6
	v-42.7l-3.2-0.5v-2.5h16.2v2.5l-3.3,0.5v18.5h21.2v-18.5l-3.5-0.5V510.9z M327.8,557.2l3.1,0.6v2.3h-15.3v-2.3l3.1-0.6v-29.4h-3.1
	v-2.3h12.2L327.8,557.2z M318.3,514.2c-0.2-2.9,1.9-5.4,4.8-5.6c2.9-0.2,5.4,1.9,5.6,4.8c0,0.2,0,0.4,0,0.6c0.2,2.9-2,5.5-4.9,5.7
	c-0.1,0-0.2,0-0.3,0c-2.8,0.1-5.2-2.1-5.3-4.9C318.2,514.6,318.2,514.5,318.3,514.2L318.3,514.2z M349.6,557.2l3.1,0.6v2.3h-15.4
	v-2.3l3.1-0.6v-45.1l-3.1-0.5v-2.1h12.2L349.6,557.2z M377.2,556.1c1.6,0.1,3.2,0.1,4.9,0v2.4c-3.6,1.4-7.3,2.2-11.1,2.3
	c-7,0-8.7-3.1-8.7-9.5v-22.8h-6.5v-3.3h6.6v-7.3l9-2.6v9.5h8.1v3.3h-8.2v20.7C371.2,554.4,372.3,556.1,377.2,556.1L377.2,556.1z
	 M402.6,523.8c-9.8-0.8-18.3,6.5-19.1,16.3c-0.1,0.9-0.1,1.9,0,2.8c-1.3,8.7,4.7,16.8,13.3,18.1c1.6,0.2,3.2,0.2,4.8,0
	c9.5,1,18-6,19-15.5c0.1-0.9,0.1-1.7,0.1-2.6c1.2-9.2-5.2-17.7-14.5-19C405.1,523.8,403.8,523.7,402.6,523.8z M402.6,557.9
	c-5,0-8.4-4.5-8.4-15.6s3.3-15.8,8.4-15.8c5,0,8.6,4.9,8.6,15.8c0,11-3.8,15.9-9.4,15.9L402.6,557.9z M461.5,556.9l3.1,0.6v2.3h-16
	v-2.3l3-0.6v-19.5c0-5.5-2.1-8-6.1-8c-2.6,0.3-5.1,1.4-7.1,3v24.9l3.1,0.6v2.3h-15.3v-2.3l3.1-0.6v-29.3h-3.1v-2.5h12.2v4.9
	c3.3-3.3,7.8-5.3,12.5-5.5c6.9,0,9.5,4,9.5,11.8v20.6L461.5,556.9z M464.4,510.4h9.5v2.1h-0.9v-1h-3.8v8.6h1v0.7h-4.6V520h1.2v-8.6
	h-2.6v1h-0.9v-2.1L464.4,510.4z M487,511.4v8.8h1v0.7h-4.2v-0.7h1v-7.7l-3.8,8.8l0,0l-3.7-8.6v7.7h1v0.8h-3v-0.8h0.9v-8.8h-0.9V511
	h3.6l3,6.8l3-6.8h3.4v0.7L487,511.4z"/>
</svg>
