<?xml version="1.0" encoding="utf-8"?>
<!-- Generator: Adobe Illustrator 22.1.0, SVG Export Plug-In . SVG Version: 6.00 Build 0)  -->
<svg version="1.1" id="Layer_1" xmlns="http://www.w3.org/2000/svg" xmlns:xlink="http://www.w3.org/1999/xlink" x="0px" y="0px"
	 viewBox="0 0 400 400" style="enable-background:new 0 0 400 400;" xml:space="preserve">
<style type="text/css">
	.st0{fill:#0067B1;}
	.st1{fill:#FFFFFF;}
</style>
<g>
	<polygon class="st0" points="0,0 400,0 400,400 0,400 0,0 	"/>
	<polygon class="st1" points="56.8,211.1 69.2,211.1 69.2,77.6 87.8,77.6 87.8,66.3 38.2,66.3 38.2,77.6 56.8,77.6 56.8,211.1 	"/>
	<path class="st1" d="M147.1,130.3V77.6h7c6.4,0,10.5,1.4,10.5,9.8v32.5c0,8.6-3.4,10.4-9.2,10.4H147.1L147.1,130.3z M165.1,211.1
		h12.4v-62c0-10-5.3-12.8-14.1-13.4v-0.4c9.6-0.6,13.6-4.4,13.6-15.6V83c0-14.4-7.4-16.7-19.2-16.7h-23.2v144.8h12.4v-69.6h8.3
		c5.8,0,9.8,1.8,9.8,8.8V211.1L165.1,211.1z"/>
	<polygon class="st1" points="248.2,132.1 247.8,132.1 236,66.3 223.6,66.3 241.8,148.2 241.8,211.1 254.2,211.1 254.2,148.2 
		272.5,66.3 260.1,66.3 248.2,132.1 	"/>
	<path class="st1" d="M321.3,211.1h12.4V146h7.4c16,0,20.7-5.6,20.7-22.1V88.4c0-16.4-4.7-22.1-20.7-22.1h-19.8V211.1L321.3,211.1z
		 M333.8,134.8V77.6h6c5.6,0,9.6,1.6,9.6,9v39.1c0,7.4-4,9.1-9.6,9.1H333.8L333.8,134.8z"/>
	<path class="st1" d="M35.9,370.8v-25.7h9.6c4.1,0,7.5,1.1,7.5,6.6c0,2.9-1.5,5.1-4.4,5.7v0.1c3.8,0.5,4.8,3,4.8,6.5
		c0,6.5-5.7,6.8-7.9,6.8H35.9L35.9,370.8z M41.3,355.6h3.6c1.2,0,2.8-0.7,2.8-3.3c0-1.9-1.3-3.3-3.1-3.3h-3.3V355.6L41.3,355.6z
		 M41.3,366.9h3c1.2,0,3.7,0,3.7-3.6c0-2.3-0.9-3.7-3.6-3.7h-3.1V366.9L41.3,366.9z"/>
	<polygon class="st1" points="74.8,361.9 68.1,345.1 74,345.1 77.8,355.9 81.9,345.1 87.4,345.1 80.2,361.9 80.2,370.8 74.8,370.8 
		74.8,361.9 	"/>
	<polygon class="st1" points="120.5,345.1 126,345.1 129.3,363.2 129.4,363.2 133.5,345.1 139.8,345.1 143.6,363.2 143.7,363.2 
		146.9,345.1 152.2,345.1 146.5,370.8 140.6,370.8 136.5,352 136.5,352 132,370.8 126.2,370.8 120.5,345.1 	"/>
	<polygon class="st1" points="171.6,361.9 164.9,345.1 170.8,345.1 174.6,355.9 178.7,345.1 184.2,345.1 177,361.9 177,370.8 
		171.6,370.8 171.6,361.9 	"/>
	<polygon class="st1" points="199.2,370.8 199.2,345.1 206.5,345.1 213.3,362.9 213.4,362.9 213.4,345.1 218.4,345.1 218.4,370.8 
		211.3,370.8 204.3,352 204.2,352 204.2,370.8 199.2,370.8 	"/>
	<path class="st1" d="M235.5,345.1h9c7,0,8.4,4.7,8.4,12.7c0,4,0.6,13-8.6,13h-8.8V345.1L235.5,345.1z M240.9,366.9h2.6
		c3.3,0,3.9-2.5,3.9-8.9c0-4.7,0-8.9-3.7-8.9h-2.8V366.9L240.9,366.9z"/>
	<polygon class="st1" points="281.4,355.4 281.4,345.1 286.8,345.1 286.8,370.8 281.4,370.8 281.4,359.4 275.2,359.4 275.2,370.8 
		269.8,370.8 269.8,345.1 275.2,345.1 275.2,355.4 281.4,355.4 	"/>
	<path class="st1" d="M301.9,370.8l7.1-25.7h7.1l7,25.7h-5.7l-1.4-5.7h-7.4l-1.5,5.7H301.9L301.9,370.8z M312.3,350.1L312.3,350.1
		l-2.5,11.1h5.1L312.3,350.1L312.3,350.1z"/>
	<polygon class="st1" points="338,370.8 338,345.1 346.7,345.1 350.7,362.6 350.8,362.6 355.1,345.1 363.4,345.1 363.4,370.8 
		358.2,370.8 358.2,351 358.1,351 353.2,370.8 348,370.8 343.3,351 343.3,351 343.3,370.8 338,370.8 	"/>
</g>
</svg>
