<svg width="205" height="54" viewBox="0 0 205 54" fill="none" xmlns="http://www.w3.org/2000/svg">
<g clip-path="url(#clip0_33_167)">
<path fill-rule="evenodd" clip-rule="evenodd" d="M22.6405 1.96146e-05C23.8018 -0.00494306 24.7472 0.932425 24.7522 2.09369C24.7571 3.25496 23.8197 4.20037 22.6585 4.20533C21.4972 4.2103 20.5518 3.27293 20.5468 2.11166C20.5419 0.950397 21.4792 0.00498234 22.6405 1.96146e-05ZM44.5351 26.1161H47.6837L47.6783 25.5392C47.6783 24.183 47.6797 22.8268 47.6811 21.4705C47.6839 18.758 47.6867 16.0455 47.6783 13.333C47.6474 12.572 47.9894 11.8436 48.5949 11.3813C48.9413 11.1022 49.324 10.8713 49.7324 10.6948C51.1502 10.1026 52.7237 9.99457 54.2091 10.3875C54.9463 10.5506 55.6362 10.8807 56.2255 11.3526C56.8186 11.8432 57.178 12.456 57.178 13.2486C57.187 13.4641 57.187 13.6797 57.187 13.8953V25.541C57.187 25.6732 57.2006 25.8053 57.2137 25.9333C57.2197 25.9916 57.2256 26.0491 57.2301 26.1053C57.9095 26.2042 60.0642 26.17 60.3913 26.0568V25.6848V13.263C60.3947 12.1111 59.9969 10.9941 59.2663 10.1036C58.6617 9.34941 57.9 8.73612 57.0342 8.30642C55.9683 7.76634 54.8097 7.43338 53.6197 7.32518C51.6949 7.13108 49.8367 7.36112 48.0665 8.17522C47.9994 8.20695 47.9289 8.2304 47.8344 8.26188C47.7897 8.27675 47.7396 8.29342 47.6819 8.3136V7.76368V0.560729C47.6819 0.446727 47.6716 0.332726 47.6617 0.222848V0.221801C47.6572 0.172683 47.6529 0.124392 47.6496 0.0772967C46.9253 -0.0215461 44.7651 0.0143967 44.483 0.124023C44.3877 1.21309 44.4363 25.7872 44.5351 26.1161ZM18.1261 26.1449H17.5959C17.3224 26.1449 17.0488 26.143 16.7753 26.1412C16.1146 26.1367 15.4538 26.1323 14.7942 26.1539C14.4654 26.1863 14.1522 26.0066 14.0142 25.7064C12.1524 22.6512 10.2816 19.6021 8.40174 16.5589C8.38011 16.5236 8.35794 16.4889 8.33585 16.4543C8.28828 16.3798 8.24093 16.3055 8.20046 16.2282C8.12188 16.0538 7.94181 15.9479 7.75118 15.9641H3.61775C3.50475 15.9735 3.39249 15.9903 3.28168 16.0144V26.0406C2.92225 26.1664 0.550025 26.1862 0.0827675 26.0856C-0.0016983 25.7621 -0.0250611 0.605657 0.0665932 0.068311C0.103536 0.0647927 0.141626 0.059935 0.180428 0.0549866C0.260543 0.0447696 0.343693 0.0341653 0.426022 0.0341653C1.73368 0.0341653 3.04153 0.0329673 4.34945 0.0317693C6.96549 0.0293729 9.5818 0.0269765 12.1973 0.0341653C13.5721 0.0341653 14.7295 0.618237 15.7089 1.55814C16.9567 2.7516 17.768 4.32922 18.0129 6.03842C18.3031 7.7754 18.1881 9.55594 17.6768 11.2412C17.2457 12.6688 16.3784 13.9257 15.1967 14.8355C14.3515 15.5195 13.3025 15.9027 12.2153 15.9245C12.1719 15.9245 12.1286 15.9281 12.0859 15.9353C12.0382 15.9493 11.9914 15.9661 11.9457 15.9856C11.9703 16.0324 11.9935 16.079 12.0164 16.125C12.0603 16.2135 12.1034 16.3001 12.1542 16.3828L17.4719 25.0522C17.6678 25.3901 17.8673 25.719 18.1261 26.1449ZM3.29247 12.7238H7.75837H11.6366C12.0981 12.7442 12.5556 12.6306 12.9539 12.3967C13.6906 11.9609 14.2476 11.2765 14.5246 10.4666C15.0788 8.87997 15.0864 7.1536 14.5462 5.56218C14.2994 4.80524 13.8107 4.15042 13.1552 3.69854C12.7339 3.39295 12.2253 3.23158 11.7049 3.23847H3.7759C3.68059 3.23847 3.58528 3.24407 3.48386 3.25002C3.42273 3.25361 3.35938 3.25733 3.29247 3.26004V12.7238ZM66.2528 8.06806L66.2266 7.67202C65.763 7.58576 63.4087 7.59834 63.0816 7.65765C62.9792 8.1285 63.0043 25.7765 63.1068 26.0766C63.7034 26.17 65.9247 26.1377 66.25 26.0209V25.5177C66.25 24.1684 66.2512 22.8188 66.2524 21.4693V21.4681V21.4669V21.4657C66.2548 18.7634 66.2572 16.06 66.25 13.3582C66.2181 12.5529 66.5886 11.7844 67.2384 11.3077C67.5969 11.0459 67.9818 10.8225 68.3868 10.6409C69.0076 10.3703 69.6714 10.2116 70.3475 10.1719C71.6707 10.0282 73.0068 10.2829 74.1844 10.9033C75.2411 11.4856 75.791 12.341 75.7802 13.599C75.7566 16.6801 75.7588 19.7622 75.761 22.8437V22.8463V22.8474C75.7616 23.7456 75.7623 24.6448 75.7623 25.5428C75.7623 25.6352 75.7688 25.727 75.7752 25.8172V25.8183C75.7814 25.9048 75.7874 25.9906 75.7874 26.073C76.3733 26.17 78.6018 26.1449 78.9612 26.0317V25.4512C78.9612 24.1196 78.9628 22.788 78.9644 21.4563C78.9676 18.7927 78.9708 16.1289 78.9612 13.4642C78.9228 12.51 79.4042 11.6097 80.2192 11.1118C81.0824 10.5602 82.0721 10.2379 83.0946 10.1755C84.4856 10.0658 85.8209 10.2743 87.0393 10.9932C87.9846 11.5575 88.4771 12.3554 88.4771 13.5092C88.4563 16.404 88.4599 19.2998 88.4635 22.1951V22.1977V22.1988V22.1999V22.201C88.4649 23.3138 88.4663 24.4267 88.4663 25.5392C88.4663 25.6291 88.4703 25.719 88.4744 25.8088C88.4784 25.8987 88.4825 25.9885 88.4825 26.0784C88.9946 26.1736 91.3309 26.1557 91.6706 26.055C91.6724 26.0244 91.6751 25.9927 91.6778 25.9603C91.6831 25.8979 91.6886 25.8332 91.6886 25.7693V13.263C91.6897 12.0771 91.2671 10.9299 90.497 10.0281C89.6687 9.03912 88.5872 8.29373 87.3682 7.87151C85.6546 7.25986 83.814 7.09231 82.0181 7.38448C80.3198 7.63249 78.7797 8.25969 77.4911 9.42963C77.4409 9.4643 77.3866 9.49267 77.3294 9.5141C75.8252 8.1285 74.028 7.49411 72.0152 7.30002C70.0024 7.10592 68.1118 7.54443 66.2805 8.48972L66.2528 8.06806ZM144.115 0.127617V8.32259C144.083 8.31199 144.055 8.30287 144.03 8.29476C143.932 8.26304 143.882 8.2466 143.836 8.21656C141.762 7.24251 139.59 7.04123 137.354 7.43121C135.751 7.70976 134.295 8.32978 133.102 9.46557C132 10.5151 131.405 11.7857 131.405 13.3348C131.413 14.9355 131.41 16.5362 131.408 18.1368C131.407 18.9371 131.405 19.7375 131.405 20.5378C131.401 21.4955 131.679 22.4333 132.205 23.2335C132.777 24.1021 133.554 24.8172 134.466 25.3164C135.95 26.1629 137.571 26.5025 139.261 26.5223C140.762 26.5338 142.244 26.1934 143.59 25.5285C143.672 25.4891 143.757 25.4524 143.846 25.4136H143.847C143.921 25.3816 143.998 25.3483 144.079 25.311C144.106 25.6147 144.126 25.8537 144.144 26.0802C144.605 26.1808 146.967 26.1646 147.301 26.064V0.0952682C146.827 -0.00537181 144.46 0.0125996 144.115 0.127617ZM144.115 13.3043V16.8788H144.113C144.113 17.2527 144.111 17.6265 144.108 18.0001C144.103 18.7757 144.098 19.5507 144.115 20.3257C144.138 21.3483 143.692 22.0869 142.88 22.644C142.15 23.1251 141.317 23.4297 140.449 23.5336C139.208 23.7252 137.939 23.5844 136.77 23.1257C136.299 22.9476 135.863 22.6858 135.485 22.3529C134.946 21.9049 134.633 21.2407 134.631 20.5396V13.2162C134.631 12.3877 135.034 11.7659 135.665 11.2753C136.384 10.7439 137.225 10.3999 138.111 10.2743C139.347 10.0509 140.62 10.1581 141.802 10.5852C142.33 10.7668 142.818 11.048 143.24 11.4137C143.804 11.8781 144.126 12.5738 144.115 13.3043ZM94.3168 15.7342C94.3146 16.1232 94.3124 16.5122 94.3124 16.9004C94.3124 17.2752 94.3139 17.6499 94.3153 18.0248V18.0259V18.0273V18.0284V18.0298V18.0312C94.3185 18.8332 94.3216 19.6365 94.3106 20.4407C94.289 21.8551 94.8084 23.0448 95.7591 24.0656C96.5244 24.8726 97.4687 25.4882 98.5159 25.8627C100.538 26.6124 102.739 26.7376 104.833 26.2222C106.333 25.8753 107.674 25.2158 108.752 24.0925C109.72 23.1237 110.257 21.8063 110.242 20.4372V13.2791C110.248 12.2065 109.905 11.161 109.266 10.2995C108.516 9.28863 107.498 8.50747 106.328 8.04403C104.29 7.19219 102.184 7.06279 100.027 7.48512C98.6029 7.73308 97.2732 8.36501 96.1814 9.31282C94.9612 10.4001 94.2782 11.7354 94.3124 13.4067C94.3256 14.1783 94.3212 14.9563 94.3168 15.7342ZM107.013 13.2378V16.9004V16.9076C107.013 17.2491 107.012 17.5905 107.011 17.9319V17.939C107.008 18.7734 107.005 19.6075 107.018 20.4425C107.039 21.2023 106.701 21.9277 106.107 22.4014C105.469 22.9208 104.712 23.2734 103.904 23.4276C102.497 23.7662 101.021 23.6607 99.6769 23.1257C99.266 22.9562 98.8783 22.7352 98.5231 22.4679C97.8739 22.0124 97.4934 21.2642 97.5077 20.4713V13.3187C97.5034 12.5127 97.8907 11.7548 98.5465 11.2861C99.2767 10.7442 100.13 10.3922 101.03 10.2617C102.267 10.0421 103.54 10.1543 104.72 10.587C105.335 10.7929 105.893 11.1422 106.348 11.606C106.778 12.0398 107.017 12.6271 107.013 13.2378ZM116.593 8.2507L116.117 8.47535L116.106 8.37305C116.078 8.11353 116.053 7.88173 116.033 7.64147H112.913C112.821 8.21656 112.848 25.7962 112.938 26.0982C113.484 26.1808 115.707 26.1557 116.051 26.0514L116.054 25.9878L116.06 25.8872C116.068 25.7505 116.076 25.6098 116.076 25.4692V13.741V13.1803C116.082 12.5835 116.324 12.0133 116.748 11.5934C117.099 11.2312 117.52 10.9434 117.984 10.747C119.295 10.1734 120.749 10.0129 122.154 10.2869C122.908 10.4078 123.629 10.6824 124.273 11.0938C125.121 11.6563 125.565 12.4057 125.565 13.4678C125.546 16.4179 125.549 19.367 125.552 22.3166V22.3178V22.3189V22.3229C125.553 23.3962 125.554 24.4694 125.554 25.5428V26.1323C126.659 26.1467 127.698 26.1539 128.756 26.1323C128.76 26.0633 128.764 26.0027 128.767 25.9472C128.773 25.8523 128.778 25.7725 128.778 25.692V13.2306C128.778 12.1875 128.444 11.1718 127.826 10.3318C127.079 9.29878 126.049 8.50465 124.86 8.04583C122.085 6.9298 119.32 6.97114 116.593 8.2507ZM42.3749 10.5672L39.7673 12.005C39.7504 12 39.7347 11.9967 39.7208 11.9938C39.6946 11.9884 39.6749 11.9843 39.6666 11.9726C39.0053 11.1064 38.0726 10.6391 37.0284 10.3875C35.4992 9.98376 33.8778 10.117 32.4349 10.7649C32.0454 10.9463 31.6826 11.1803 31.3567 11.4604C30.8038 11.916 30.4943 12.6027 30.5192 13.3187C30.5318 15.6909 30.5354 18.0631 30.5192 20.4354C30.4984 21.2108 30.8464 21.9502 31.4573 22.4284C32.0776 22.924 32.807 23.2646 33.5851 23.4222C34.8496 23.7259 36.1726 23.683 37.4148 23.2982C38.3242 23.0196 39.1275 22.5614 39.7062 21.7419L42.4432 23.2551C42.358 23.3586 42.2788 23.4592 42.2021 23.5565C42.0526 23.7463 41.9122 23.9245 41.7567 24.0872C40.6784 25.214 39.3432 25.8843 37.8425 26.2276C35.7323 26.7443 33.5151 26.6102 31.4825 25.843C30.3811 25.4476 29.3963 24.7828 28.6178 23.9092C27.7578 22.9641 27.286 21.7293 27.2969 20.4515C27.2969 19.6719 27.2991 18.8939 27.3013 18.1167V18.1156C27.3057 16.5643 27.3101 15.0163 27.2969 13.466C27.2807 11.7659 27.9457 10.4001 29.1983 9.29484C30.2846 8.36291 31.6008 7.73923 33.01 7.48872C35.0464 7.05015 37.1664 7.21375 39.1113 7.95957C40.2782 8.38933 41.3088 9.12337 42.0964 10.0856C42.1773 10.1862 42.2527 10.2941 42.3246 10.4001C42.3471 10.4539 42.364 10.5099 42.3749 10.5672ZM204.862 26.0856C204.807 26.1017 204.751 26.1149 204.695 26.1251C203.87 26.179 203.699 26.0514 203.507 25.2391C203.388 24.7377 203.271 24.2363 203.147 23.69C203.053 23.7441 202.963 23.8041 202.876 23.8697C202.72 24.0046 202.565 24.1433 202.411 24.2811C202.266 24.4112 202.121 24.5411 201.977 24.6658C200.682 25.8033 199.069 26.5148 197.355 26.7038C195.199 26.9572 193.146 26.6032 191.263 25.4692C190.431 24.9698 189.688 24.3344 189.067 23.5893C188.117 22.4712 187.596 21.0522 187.595 19.5853C187.576 17.89 187.576 16.1941 187.595 14.4976C187.615 12.5621 188.411 10.9716 189.827 9.67764C191.272 8.33688 193.12 7.51223 195.084 7.33236C196.745 7.12946 198.431 7.3457 199.988 7.96136C201.481 8.55386 202.778 9.55317 203.731 10.8458C204.478 11.8274 204.882 13.027 204.882 14.2604V25.7297C204.882 25.843 204.882 25.949 204.862 26.0856ZM188.99 17.037C188.99 17.315 188.988 17.593 188.986 17.871C188.982 18.4267 188.979 18.9821 188.99 19.5368C188.996 19.938 189.049 20.3372 189.146 20.7265C189.516 22.1265 190.391 23.1724 191.559 23.9793C194.572 26.0162 198.555 25.8709 201.411 23.6199C202.804 22.4895 203.568 21.0392 203.527 19.2025C203.509 18.3102 203.512 17.4173 203.515 16.5242V16.5204C203.517 15.8911 203.519 15.2618 203.514 14.6324C203.512 14.2305 203.468 13.83 203.383 13.4373C203.097 12.1272 202.326 11.1154 201.287 10.3174C199.143 8.67124 196.724 8.3136 194.144 8.93182C192.528 9.2929 191.088 10.2054 190.071 11.5125C189.339 12.4132 188.951 13.5455 188.979 14.7061C188.997 15.2699 188.994 15.8366 188.992 16.4068V16.4078V16.409V16.4102C188.991 16.6186 188.99 16.8275 188.99 17.037ZM166.216 26.1107C165.92 26.1262 165.624 26.1262 165.328 26.1107C165.039 26.082 164.906 25.931 164.874 25.6255C164.847 25.3682 164.834 25.1096 164.836 24.8509C164.836 23.8292 164.832 22.8074 164.829 21.7855C164.821 19.4012 164.813 17.0168 164.848 14.6342C164.879 12.5908 163.984 11.1046 162.37 9.98854C159.613 8.07998 155.697 8.24172 153.163 10.348C152.2 11.1513 151.499 12.1326 151.267 13.3924C151.219 13.6894 151.197 13.99 151.201 14.2909V25.5428C151.201 25.6708 151.194 25.7988 151.186 25.9403V25.9415L151.182 26.0014C151.18 26.0397 151.178 26.079 151.176 26.1197C151.075 26.1197 150.978 26.1218 150.884 26.1239C150.705 26.1278 150.536 26.1315 150.369 26.1197C150.009 26.0892 149.86 25.9274 149.814 25.5806C149.805 25.4513 149.805 25.3217 149.814 25.1924V14.2424C149.782 12.7431 150.323 11.2882 151.327 10.1737C152.764 8.5119 154.799 7.48441 156.99 7.31439C159.391 7.09874 161.601 7.60733 163.524 9.08458C164.949 10.1791 165.889 11.615 166.18 13.4247C166.215 13.6518 166.232 13.8814 166.229 14.1112V25.7082C166.239 25.7893 166.233 25.8695 166.225 25.9709C166.222 26.0132 166.219 26.0595 166.216 26.1107ZM185.135 7.83377V7.29462C184.834 7.28006 184.534 7.28486 184.234 7.309C183.889 7.34854 183.771 7.5013 183.74 7.84814C183.724 8.03505 183.724 8.22914 183.724 8.40885C183.733 11.9169 183.733 15.4249 183.724 18.9329C183.726 19.335 183.69 19.7364 183.616 20.1316C183.404 21.2387 182.797 22.1139 181.981 22.8561C179.384 25.2247 175.105 25.4116 172.299 23.2695C170.835 22.1498 170.031 20.7157 170.058 18.8C170.094 16.2458 170.086 13.6907 170.078 11.1354V11.1342C170.074 10.0386 170.071 8.94202 170.071 7.84635C170.071 7.72473 170.063 7.60391 170.055 7.47443C170.05 7.40875 170.046 7.34084 170.042 7.26946C169.959 7.26946 169.88 7.26795 169.805 7.26649C169.663 7.26376 169.533 7.26125 169.404 7.26946C168.881 7.30541 168.709 7.48512 168.685 8.02426V8.36932V12.3374V19.1091C168.654 20.4586 169.085 21.7783 169.907 22.8489C170.803 24.0207 171.994 24.9341 173.358 25.4961C174.62 25.992 175.975 26.2067 177.328 26.1251C179.222 26.0568 180.958 25.4925 182.439 24.31C184.148 22.937 185.151 21.1884 185.135 18.9186C185.123 16.4553 185.127 13.992 185.131 11.5287C185.133 10.2971 185.135 9.06541 185.135 7.83377ZM21.0662 7.63788H24.1699C24.2723 7.95597 24.3029 25.5141 24.2076 26.0694C23.8967 26.1611 21.6215 26.1844 21.0878 26.1017C20.9925 25.8106 20.962 8.21656 21.0662 7.63788ZM44.8585 46.7737L44.9372 46.6894C44.9799 46.6436 45.0237 46.5966 45.0689 46.5478L45.1046 46.5879C45.2963 46.8029 45.4646 46.9916 45.617 47.193C46.3791 48.1097 47.4581 48.7063 48.6398 48.8644C49.2972 48.9542 49.9649 48.9366 50.6166 48.8122C52.2736 48.4888 53.4238 47.5668 53.9863 45.9494C54.2048 45.3085 54.3135 44.6353 54.308 43.9582V36.2826C54.308 36.2116 54.3029 36.1406 54.2979 36.0706C54.293 36.0023 54.2882 35.9348 54.2882 35.8692C53.5352 35.7452 53.3896 35.8584 53.3896 36.5503V36.8954V43.5808C53.4083 44.2565 53.3296 44.9313 53.156 45.5846C52.867 46.6983 51.9824 47.5587 50.8611 47.8166C50.2891 47.9621 49.6979 48.0179 49.1088 47.982C47.371 47.8957 46.0375 46.8138 45.6619 45.1299C45.5606 44.6235 45.513 44.1079 45.5199 43.5915V36.3455C45.5199 36.2262 45.5121 36.103 45.5037 35.9702C45.5007 35.9229 45.4976 35.8743 45.4948 35.8243H45.1048C44.6699 35.8441 44.5585 35.9609 44.5477 36.4066V36.7085C44.5477 37.4897 44.5487 38.2715 44.5497 39.0533V39.0545V39.0556C44.5517 40.6181 44.5537 42.1805 44.5477 43.7371C44.5512 44.125 44.5193 44.5124 44.4524 44.8945C44.1541 46.4526 43.2466 47.4716 41.6956 47.867C40.9219 48.0485 40.1161 48.043 39.345 47.8508C38.0438 47.556 37.2351 46.7563 36.8937 45.4678C36.7478 44.8667 36.6802 44.2494 36.6924 43.6311V36.3868C36.6911 36.2624 36.6821 36.138 36.6731 36.0136C36.6691 35.9583 36.6651 35.903 36.6618 35.8477C35.8765 35.765 35.7633 35.8584 35.7633 36.5665V36.6959V43.6401C35.7592 44.0849 35.7887 44.5295 35.8513 44.97C36.0957 46.5425 36.8379 47.7789 38.3404 48.4564C39.3239 48.8786 40.4072 49.012 41.4638 48.841C42.693 48.6739 43.6905 48.0539 44.5189 47.1409C44.628 47.0203 44.7393 46.9012 44.8585 46.7737ZM144.844 53.0823V46.3807L144.976 46.307C145.082 46.3983 145.189 46.4876 145.297 46.5767C145.474 46.7241 145.651 46.8714 145.82 47.0259C146.449 47.5777 147.196 47.9775 148.004 48.194C148.779 48.4166 149.586 48.5053 150.39 48.4564C152.003 48.404 153.535 47.7366 154.671 46.591C155.485 45.819 155.948 44.7476 155.953 43.6257C155.968 42.4743 155.968 41.3248 155.953 40.177C155.955 39.158 155.569 38.1763 154.874 37.4309C154.02 36.4861 152.897 35.8252 151.656 35.5368C150.939 35.3837 150.204 35.3269 149.472 35.3678C147.994 35.4017 146.577 35.9647 145.479 36.9547C144.466 37.7954 143.892 39.0529 143.921 40.3693V52.4389C143.921 53.0355 144.038 53.1452 144.629 53.12C144.701 53.112 144.773 53.0994 144.844 53.0823ZM154.997 40.3118V41.9508L154.993 43.5916C154.987 44.4059 154.679 45.1889 154.129 45.7895C153.26 46.7941 152.132 47.326 150.847 47.5273C149.573 47.7429 148.264 47.5272 147.127 46.9145C146.09 46.3609 145.299 45.5738 144.983 44.3985C144.915 44.1487 144.878 43.8916 144.873 43.6329C144.864 42.5115 144.855 41.39 144.873 40.2704C144.891 39.2335 145.362 38.396 146.106 37.7005C148.193 35.738 151.963 35.8261 153.954 37.8802C154.616 38.5167 154.992 39.3937 154.997 40.3118ZM90.7468 42.8403C90.7208 42.8884 90.7015 42.9398 90.6893 42.9931C90.6893 43.2083 90.6868 43.4234 90.6842 43.6385V43.6402C90.679 44.0713 90.6738 44.5022 90.6893 44.9322C90.7343 45.8452 91.2177 46.5227 91.9348 47.0475C92.5009 47.4454 93.1475 47.7141 93.8289 47.8346C94.9595 48.0687 96.1293 48.033 97.2435 47.7304C97.9848 47.5378 98.6627 47.1542 99.2096 46.6179C99.3318 46.4975 99.4576 46.3807 99.5924 46.2585C99.681 46.3124 99.7656 46.3724 99.8458 46.4382C100.16 46.7365 100.166 46.9774 99.8458 47.2793C99.3702 47.7417 98.8068 48.104 98.1888 48.345C96.3841 49.0748 94.3735 49.1132 92.5422 48.4528C91.1494 47.9712 90.2059 47.0151 89.8698 45.545C89.7866 45.1521 89.7444 44.7516 89.744 44.3499C89.7345 43.2967 89.7377 42.2428 89.7409 41.189V41.1813V41.1801C89.7425 40.6566 89.744 40.1323 89.744 39.6091C89.744 38.13 90.4162 37.0248 91.6526 36.252C92.3885 35.7957 93.2202 35.5164 94.0824 35.4361C95.5201 35.2923 96.9344 35.3391 98.2769 35.9106C99.3839 36.3814 100.218 37.1686 100.495 38.3798C100.903 40.177 100.119 41.5644 98.6974 42.2742C97.8402 42.7056 96.9164 42.8134 95.9765 42.8134H91.277C91.1719 42.8145 91.0642 42.8214 90.9571 42.8284H90.9558C90.8857 42.8329 90.8155 42.8375 90.7468 42.8403ZM90.763 41.8375C90.8215 41.8553 90.8818 41.8667 90.9427 41.8717C92.9196 41.8717 94.909 41.8717 96.8931 41.8609C97.3558 41.8445 97.8084 41.7215 98.2158 41.5015C99.0613 41.1155 99.6174 40.2862 99.6535 39.3575C99.7453 38.4141 99.2773 37.5042 98.4566 37.0302C98.2018 36.8686 97.9284 36.7383 97.6425 36.642C96.4472 36.255 95.1726 36.1807 93.9404 36.4263C93.2425 36.5356 92.5763 36.7936 91.9869 37.1829C91.3741 37.6053 90.9086 38.157 90.7666 38.8956C90.6019 39.7654 90.6501 40.6502 90.698 41.5308L90.7062 41.6826L90.7109 41.771C90.7117 41.7732 90.7127 41.7752 90.7139 41.7773C90.7151 41.7793 90.7164 41.7812 90.7179 41.7833L90.7217 41.7881L90.7314 41.7995C90.7393 41.8085 90.7496 41.8204 90.763 41.8375ZM57.1125 43.5793C57.1165 43.33 57.1205 43.0754 57.1205 42.8134L57.7567 42.8152H62.3682C63.2793 42.8134 64.1725 42.7092 65.0154 42.3228C66.0481 41.8548 66.7794 40.9027 66.9652 39.7842C67.151 38.6658 66.7668 37.5283 65.9409 36.7516C65.5036 36.3343 64.9847 36.0119 64.4169 35.8045C63.8321 35.6054 63.2248 35.4798 62.609 35.4307C61.2935 35.3103 59.9977 35.3678 58.7577 35.8944C57.4494 36.4515 56.0997 37.5765 56.1393 39.8158C56.1539 40.6576 56.1509 41.4989 56.148 42.3402V42.3412C56.1459 42.9508 56.1437 43.5603 56.1483 44.1702C56.144 44.5583 56.1722 44.946 56.2327 45.3294C56.5041 46.8875 57.4404 47.9047 58.8961 48.4438C60.42 48.9955 62.0752 49.0732 63.6441 48.6667C64.6052 48.4495 65.4925 47.9841 66.2176 47.317C66.604 46.9576 66.5968 46.7545 66.2051 46.3951C66.1387 46.3428 66.067 46.2976 65.9912 46.2603L65.942 46.3063L65.9411 46.3072C65.8207 46.4198 65.7105 46.5228 65.603 46.6287C65.0124 47.2032 64.2729 47.601 63.468 47.7771C62.3186 48.0581 61.1184 48.0581 59.969 47.7771C59.2333 47.6162 58.5521 47.2669 57.9921 46.7635C57.5374 46.3394 57.1798 45.8362 57.1349 45.2144C57.095 44.6808 57.1035 44.1438 57.1125 43.5793ZM62.9702 41.8717H57.1205H57.1187C57.1187 41.5721 57.1137 41.2795 57.1087 40.9922C57.0975 40.3383 57.0867 39.7114 57.1367 39.0897C57.1888 38.3241 57.6561 37.7329 58.2671 37.2764C58.8774 36.8405 59.5806 36.5519 60.3212 36.4335C61.4674 36.2108 62.6492 36.252 63.7771 36.5539C64.2355 36.6772 64.6678 36.8824 65.0531 37.1596C66.4746 38.1893 66.3614 40.4358 64.8967 41.3451C64.3177 41.7002 63.6494 41.8829 62.9702 41.8717ZM169.055 48.4451C168.995 48.4522 168.945 48.4582 168.901 48.4582C168.466 48.4582 168.342 48.3684 168.232 47.9478C168.172 47.7177 168.118 47.4862 168.061 47.2441V47.2426L168.06 47.241V47.2394L168.059 47.2345L168.058 47.2301C168.024 47.0834 167.988 46.9327 167.95 46.7761C167.859 46.8223 167.771 46.8752 167.688 46.9342C167.556 47.0432 167.426 47.1556 167.297 47.2679C167.177 47.3722 167.057 47.4764 166.935 47.5776C164.672 49.4538 160.825 49.3424 158.596 47.1463C157.667 46.2843 157.144 45.0696 157.158 43.8018C157.158 43.4471 157.16 43.0924 157.162 42.7378V42.7353V42.7342C157.166 42.0264 157.169 41.3186 157.158 40.6119C157.109 39.1937 157.724 37.8336 158.821 36.9331C159.922 35.9653 161.327 35.4146 162.793 35.3768C164.23 35.3157 165.564 35.5889 166.775 36.3832C167.334 36.739 167.83 37.1847 168.243 37.7023C168.831 38.4211 169.157 39.3185 169.167 40.2471C169.174 42.01 169.172 43.7722 169.169 45.5346V45.5357C169.168 46.4173 169.167 47.2996 169.167 48.1815C169.167 48.2237 169.162 48.266 169.157 48.3178L169.154 48.345L169.151 48.3728L169.148 48.4049L169.145 48.4349C169.113 48.4383 169.083 48.4418 169.055 48.4451ZM158.107 42.0927C158.107 42.2645 158.109 42.4365 158.111 42.6086C158.114 42.953 158.117 43.2988 158.107 43.6437C158.061 44.8873 158.587 45.8685 159.504 46.6575C161.535 48.4061 164.818 48.3989 166.845 46.6431C167.744 45.8595 168.243 44.8819 168.225 43.6616C168.216 42.9734 168.219 42.2844 168.222 41.5957V41.5934C168.224 41.2487 168.225 40.9042 168.225 40.5598C168.222 40.2304 168.185 39.9022 168.116 39.5803C167.902 38.653 167.329 37.9629 166.593 37.4004C165.754 36.7589 164.742 36.3834 163.688 36.3221C162.07 36.2071 160.611 36.6276 159.394 37.7311C158.548 38.4984 158.066 39.4455 158.115 40.6245C158.12 40.9238 158.116 41.2199 158.112 41.5154V41.517V41.5187V41.5204C158.11 41.7111 158.107 41.9017 158.107 42.0927ZM132.834 45.9476C132.877 45.9862 132.918 46.0224 132.958 46.0573C133.033 46.1233 133.103 46.1849 133.17 46.2495C134.001 47.06 135.025 47.4249 136.152 47.5507C137.252 47.6881 138.369 47.6272 139.448 47.3709C140.055 47.2353 140.614 46.9379 141.065 46.5101C141.553 46.0585 141.807 45.408 141.754 44.745C141.702 44.0821 141.347 43.4801 140.794 43.1117C140.18 42.7026 139.469 42.4655 138.732 42.4252C138.089 42.3695 137.442 42.3533 136.797 42.3461C135.992 42.3548 135.189 42.2624 134.407 42.0712C133.747 41.9109 133.145 41.5698 132.669 41.0863C131.49 39.8715 131.634 38.0438 132.631 36.9367C133.089 36.4152 133.68 36.0271 134.34 35.8135C136.124 35.2061 138.058 35.2061 139.841 35.8135C140.468 36.03 141.049 36.3602 141.556 36.7876C141.634 36.8504 141.708 36.9176 141.779 36.9888C142.028 37.2566 142.027 37.422 141.768 37.6915C141.679 37.7758 141.584 37.8544 141.486 37.927C141.394 37.8577 141.306 37.784 141.221 37.7059C140.402 36.863 139.374 36.4479 138.235 36.3149C137.192 36.1792 136.133 36.2297 135.108 36.4641C134.556 36.5756 134.041 36.8226 133.609 37.1829C132.897 37.7621 132.594 38.7062 132.836 39.5911C132.969 40.177 133.355 40.5706 133.842 40.8815C134.294 41.1636 134.803 41.3427 135.332 41.4062C135.787 41.4673 136.249 41.4889 136.707 41.5087C137.021 41.5235 137.335 41.5325 137.65 41.5416C138.097 41.5544 138.543 41.5672 138.989 41.5967C139.886 41.6447 140.746 41.9714 141.448 42.5312C143.565 44.2152 142.587 46.7114 141.126 47.5938C140.477 47.9677 139.763 48.2147 139.022 48.3216C137.544 48.5714 136.076 48.5822 134.633 48.1114C133.918 47.8841 133.256 47.5177 132.683 47.0331C132.169 46.5928 132.198 46.3196 132.834 45.9476ZM102.914 46.1507C102.836 46.0802 102.754 46.0142 102.669 45.953C102.051 46.3484 102.026 46.591 102.527 47.0241C103.109 47.5195 103.785 47.8913 104.515 48.1168C105.945 48.5786 107.399 48.5642 108.862 48.3234C109.531 48.2197 110.179 48.0117 110.783 47.707C112.553 46.7959 113.43 44.0247 111.143 42.4072C110.459 41.916 109.647 41.6326 108.806 41.5913C108.351 41.5683 107.896 41.5557 107.44 41.5431C107.005 41.531 106.57 41.5189 106.136 41.4979C105.343 41.4601 104.561 41.3577 103.843 40.9839C102.121 40.0907 102.405 38.0078 103.483 37.1632C103.916 36.8278 104.417 36.591 104.951 36.4695C105.977 36.2354 107.035 36.1843 108.079 36.3185C109.208 36.413 110.268 36.9038 111.071 37.7041C111.15 37.7824 111.234 37.8562 111.322 37.9252C111.941 37.4992 111.96 37.2656 111.401 36.7983C110.951 36.415 110.439 36.1112 109.886 35.8998C107.981 35.1755 106.062 35.2133 104.145 35.8315C103.514 36.0418 102.949 36.4136 102.506 36.9098C101.474 38.0258 101.361 39.8787 102.497 41.0612C102.98 41.5572 103.594 41.9078 104.267 42.073C105.05 42.2612 105.853 42.3523 106.659 42.3443C107.304 42.3515 107.951 42.3695 108.594 42.4234C109.315 42.4743 110.011 42.7034 110.621 43.0901C111.923 43.9294 111.849 45.7373 110.844 46.582C110.393 46.965 109.858 47.2365 109.283 47.3745C108.105 47.6524 106.884 47.6982 105.688 47.5093C104.637 47.3797 103.66 46.9013 102.914 46.1507ZM114.236 45.9278C114.315 45.988 114.391 46.0521 114.464 46.1201C115.204 46.8771 116.178 47.3631 117.228 47.5003C118.45 47.7012 119.7 47.6553 120.905 47.3655C121.45 47.2288 121.958 46.9715 122.391 46.6125C122.937 46.1594 123.23 45.4709 123.18 44.7633C123.129 44.0558 122.74 43.4161 122.136 43.0452C121.544 42.6863 120.875 42.4737 120.184 42.4252C119.541 42.3713 118.894 42.3515 118.249 42.3443C117.444 42.3531 116.641 42.262 115.858 42.073C115.705 42.0332 115.555 41.9852 115.407 41.9292C114.297 41.5015 113.524 40.7449 113.319 39.5552C113.103 38.2972 113.562 37.2692 114.554 36.4767C115.234 35.9641 116.035 35.6354 116.879 35.5224C118.153 35.2799 119.465 35.321 120.721 35.6428C121.574 35.86 122.366 36.268 123.038 36.8361C123.543 37.2728 123.503 37.5549 122.883 37.9144C122.856 37.8902 122.826 37.8664 122.796 37.8424C122.738 37.7951 122.678 37.747 122.628 37.6933C121.807 36.8487 120.774 36.4479 119.634 36.3203C118.605 36.19 117.562 36.2405 116.55 36.4695C115.984 36.5839 115.456 36.8412 115.017 37.2171C114.275 37.8874 114.047 38.7159 114.289 39.6792C114.411 40.0971 114.669 40.4622 115.023 40.7161C115.529 41.1 116.13 41.3391 116.762 41.408C117.204 41.4652 117.647 41.5 118.092 41.5123C118.43 41.5279 118.768 41.5378 119.106 41.5476C119.544 41.5604 119.981 41.5731 120.418 41.5985C121.271 41.6457 122.091 41.9418 122.777 42.4504C125 44.084 124.111 46.7635 122.418 47.68C121.806 48.0013 121.146 48.2187 120.463 48.3234C118.985 48.5732 117.517 48.5858 116.074 48.1186C115.429 47.9145 114.825 47.5981 114.289 47.184C114.162 47.0881 114.042 46.983 113.93 46.8695C113.671 46.6018 113.673 46.4454 113.93 46.1704C114.026 46.0828 114.128 46.0017 114.236 45.9278ZM77.4642 48.4546C77.5251 48.4448 77.5852 48.4304 77.6439 48.4115L77.6205 47.9299C77.6205 47.0959 77.6229 46.2622 77.6253 45.4285C77.6301 43.7616 77.6349 42.0942 77.6205 40.4268C77.5938 39.3147 78.0836 38.2529 78.9468 37.5513C80.8608 35.898 83.9465 35.9106 85.8496 37.5783C86.6988 38.2718 87.1781 39.3201 87.1472 40.416C87.1364 41.3542 87.14 42.2931 87.1436 43.2319V43.238C87.1454 43.7052 87.1472 44.1723 87.1472 44.6393V47.9173C87.1472 48.3306 87.273 48.4564 87.6863 48.4564C87.8143 48.4535 87.9421 48.4439 88.0691 48.4277C88.071 48.3928 88.0731 48.3596 88.0751 48.3277C88.0762 48.3114 88.0773 48.2954 88.0783 48.2798L88.0784 48.2783L88.0785 48.2772C88.085 48.1797 88.0907 48.0931 88.0907 48.0071V40.2039C88.0954 39.9312 88.0701 39.6588 88.0152 39.3916C87.7482 38.1989 87.0318 37.1549 86.015 36.4767C84.8055 35.6266 83.4433 35.3085 81.9768 35.3786C80.3292 35.4269 78.7803 36.1746 77.7176 37.4345C77.0506 38.183 76.6895 39.1549 76.7058 40.1572C76.7154 42.6864 76.7154 45.2156 76.7058 47.7447C76.704 48.2911 76.7202 48.4995 77.4642 48.4546ZM75.6994 47.8598C75.7874 48.4546 75.6221 48.6523 75.0758 48.5696C74.8238 48.5303 74.5806 48.4476 74.3569 48.3252C73.2211 47.7016 72.7395 46.6701 72.5921 45.4354C72.5685 45.1779 72.5583 44.9194 72.5616 44.6609V31.3818V31.123C72.5777 30.6809 72.6892 30.5712 73.133 30.5587C73.1966 30.5587 73.261 30.5631 73.3413 30.5687L73.4218 30.5741C73.4337 30.5749 73.4459 30.5757 73.4586 30.5765C73.4696 30.5771 73.4809 30.5778 73.4925 30.5784C73.4925 30.6678 73.4951 30.7599 73.4978 30.8522C73.5005 30.9452 73.5033 31.0392 73.5033 31.1302V44.6662C73.4861 45.1566 73.5673 45.6455 73.7423 46.104C74.0296 46.886 74.6562 47.4954 75.446 47.7609C75.5002 47.7806 75.5603 47.8046 75.6194 47.8281C75.6335 47.8337 75.648 47.8395 75.6619 47.845C75.6746 47.85 75.6871 47.8549 75.6994 47.8598ZM71.769 48.2264C71.7753 48.1246 71.7753 48.0226 71.769 47.9209C71.7529 47.9032 71.7424 47.8902 71.7347 47.8807C71.7245 47.868 71.7195 47.8618 71.7133 47.8598L71.6595 47.8376C71.5983 47.8122 71.5368 47.7868 71.4743 47.7645C70.5128 47.4356 69.9287 46.7419 69.6628 45.7877C69.5662 45.4127 69.5214 45.0264 69.5298 44.6393V31.1032V30.609C68.73 30.4886 68.5935 30.609 68.5935 31.3278C68.5839 35.7955 68.5839 40.2644 68.5935 44.7345C68.5894 45.1655 68.6315 45.5957 68.7193 46.0177C68.9493 47.0978 69.5352 47.9478 70.5667 48.4133C70.8472 48.5123 71.1428 48.5616 71.4401 48.5589C71.636 48.5714 71.7493 48.4205 71.769 48.2264ZM125.419 41.6942C125.427 41.7017 125.436 41.7113 125.448 41.7243C125.469 41.7268 125.494 41.7303 125.52 41.7341C125.587 41.7438 125.668 41.7554 125.748 41.7567H129.38C129.495 41.7539 129.609 41.7449 129.723 41.7297C129.89 41.7233 130.023 41.5905 130.031 41.4242C130.039 41.3125 130.036 41.2047 130.034 41.0882C130.032 41.0265 130.031 40.9624 130.031 40.894C129.965 40.8884 129.905 40.8818 129.849 40.8757C129.745 40.8644 129.654 40.8545 129.563 40.8545H126.072C125.407 40.8581 125.295 41.0001 125.398 41.665C125.399 41.6733 125.405 41.68 125.419 41.6942Z" fill="#4D5255"/>
</g>
<defs>
<clipPath id="clip0_33_167">
<rect width="205" height="54" fill="white"/>
</clipPath>
</defs>
</svg>
