<svg width="1142" height="622" viewBox="0 0 1142 622" fill="none" xmlns="http://www.w3.org/2000/svg">
<path fill-rule="evenodd" clip-rule="evenodd" d="M1067 0.0819827C1063.97 0.250983 1061.07 0.813983 1060.55 1.33198C1060.03 1.85098 1058.12 2.27498 1056.3 2.27498C1054.49 2.27498 1053 2.72498 1053 3.27498C1053 3.82498 1051.75 4.27498 1050.22 4.27498C1048.59 4.27498 1046.85 5.10098 1046 6.27498C1045.21 7.37498 1044.24 8.27498 1043.85 8.27498C1042.3 8.27498 1036.08 12.853 1036.04 14.025C1036.02 14.713 1035.32 15.275 1034.5 15.275C1033.68 15.275 1033 15.613 1032.99 16.025C1032.99 16.437 1031.21 18.575 1029.04 20.775C1026.87 22.975 1025.08 25.562 1025.05 26.525C1025.02 27.488 1024.55 28.275 1024 28.275C1023.45 28.275 1023 28.924 1023 29.718C1023 30.511 1022.08 32.726 1020.95 34.638C1019.82 36.551 1018.66 39.389 1018.38 40.945C1015.76 55.364 1016.6 68.273 1020.8 77.775C1022.25 81.075 1023.79 83.925 1024.22 84.108C1024.65 84.292 1025 85.098 1025 85.901C1025 87.563 1025.82 88.648 1031.75 94.807C1034.09 97.235 1036 99.684 1036 100.249C1036 100.813 1036.9 101.275 1038 101.275C1039.1 101.275 1040 101.725 1040 102.275C1040 102.825 1040.68 103.275 1041.5 103.275C1042.32 103.275 1043 103.642 1043 104.09C1043 105.085 1049.5 108.275 1051.53 108.275C1052.34 108.275 1053 108.725 1053 109.275C1053 109.825 1054.58 110.275 1056.5 110.275C1058.42 110.275 1060 110.725 1060 111.275C1060 111.892 1065.17 112.275 1073.5 112.275C1081.83 112.275 1087 111.892 1087 111.275C1087 110.725 1088.35 110.275 1090 110.275C1091.65 110.275 1093 109.825 1093 109.275C1093 108.725 1094.12 108.275 1095.5 108.275C1096.88 108.275 1098 107.798 1098 107.216C1098 106.634 1098.37 106.384 1098.82 106.662C1099.27 106.94 1100.27 106.292 1101.04 105.221C1101.81 104.151 1103.24 103.275 1104.22 103.275C1105.2 103.275 1106 102.825 1106 102.275C1106 101.725 1106.49 101.275 1107.08 101.275C1108.78 101.275 1120 89.617 1120 87.855C1120 86.986 1120.45 86.275 1121 86.275C1121.55 86.275 1122 85.6 1122 84.775C1122 83.95 1122.45 83.275 1123 83.275C1123.55 83.275 1124 82.375 1124 81.275C1124 80.175 1124.36 79.275 1124.81 79.275C1126.03 79.275 1130.82 58.496 1130.17 55.973C1130.06 55.532 1129.49 51.707 1128.9 47.473C1128.32 43.239 1127.43 39.625 1126.92 39.442C1126.41 39.258 1126 37.796 1126 36.192C1126 34.588 1125.55 33.275 1125 33.275C1124.45 33.275 1124 32.375 1124 31.275C1124 30.175 1123.55 29.275 1123 29.275C1122.45 29.275 1122 28.6 1122 27.775C1122 26.95 1121.55 26.275 1121 26.275C1120.45 26.275 1120 25.683 1120 24.959C1120 23.496 1108.69 11.275 1107.34 11.275C1106.87 11.275 1105.27 10.15 1103.78 8.77498C1102.3 7.39998 1100.39 6.27498 1099.54 6.27498C1098.69 6.27498 1098 5.82498 1098 5.27498C1098 4.72498 1096.88 4.27498 1095.5 4.27498C1094.12 4.27498 1093 3.87398 1093 3.38398C1093 1.76798 1075.84 -0.412017 1067 0.0819827ZM147 221.275V434.275H155.571C161.73 434.275 164.551 434.684 165.595 435.727C166.827 436.959 166.986 442.957 166.648 475.477C166.414 497.957 165.767 516.666 165.083 520.775C164.442 524.625 163.669 530.137 163.366 533.025C163.063 535.913 162.407 538.275 161.907 538.275C161.408 538.275 161 540.048 161 542.216C161 544.384 160.55 546.435 160 546.775C159.45 547.115 159 548.524 159 549.905C159 551.287 158.325 553.093 157.5 553.918C156.675 554.743 156 556.286 156 557.346C156 558.407 155.55 559.275 155 559.275C154.45 559.275 154 560.4 154 561.775C154 563.15 153.55 564.275 153 564.275C152.45 564.275 152 565.4 152 566.775C152 568.15 151.55 569.275 151 569.275C150.45 569.275 150 570.01 150 570.908C150 571.806 149.164 573.268 148.143 574.158C147.122 575.047 145.966 576.788 145.576 578.025C145.185 579.262 144.446 580.275 143.933 580.275C143.42 580.275 143 580.982 143 581.846C143 583.633 140.668 586.275 139.09 586.275C138.512 586.275 137.77 587.342 137.443 588.647C137.115 589.951 135.757 591.602 134.424 592.316C133.091 593.029 132 593.987 132 594.444C132 594.901 131.53 595.275 130.955 595.275C130.38 595.275 128.826 596.287 127.503 597.525C123.638 601.138 122.14 602.275 121.242 602.275C119.759 602.275 115.016 604.748 115.008 605.525C115.004 605.938 113.425 606.275 111.5 606.275C109.575 606.275 108 606.725 108 607.275C108 607.83 105.221 608.294 101.75 608.319C98.313 608.343 93.477 608.752 91.004 609.229C88.531 609.706 86.281 609.799 86.004 609.436C85.727 609.072 81 608.617 75.5 608.424C70 608.232 65.35 607.669 65.167 607.174C64.983 606.68 63.83 606.275 62.604 606.275C61.379 606.275 58.404 605.322 55.994 604.158C53.584 602.994 51.102 601.966 50.477 601.875C49.853 601.783 48.14 600.506 46.671 599.037C44.149 596.515 44 595.832 44 586.82C44 581.123 44.403 577.275 45 577.275C45.55 577.275 46 575.502 46 573.334C46 571.166 46.45 569.115 47 568.775C48.33 567.953 48.33 547.275 47 547.275C46.45 547.275 46 545.7 46 543.775C46 541.85 45.634 540.275 45.187 540.275C44.739 540.275 43.755 538.7 43 536.775C42.245 534.85 41.327 533.275 40.962 533.275C40.596 533.275 38.836 531.879 37.05 530.172C35.264 528.465 33.285 526.99 32.651 526.894C32.018 526.798 30.978 526.392 30.34 525.993C28.406 524.784 21.009 524.866 19.765 526.11C19.124 526.751 17.995 527.275 17.255 527.275C16.515 527.275 14.784 528.4 13.409 529.775C12.034 531.15 10.48 532.275 9.955 532.275C9.43 532.275 9 532.902 9 533.668C9 534.434 8.325 535.32 7.5 535.637C6.675 535.953 6 537.126 6 538.244C6 539.361 5.55 540.275 5 540.275C4.45 540.275 4 541.175 4 542.275C4 543.375 3.55 544.275 3 544.275C2.423 544.275 2 547.414 2 551.692C2 556.689 1.592 559.273 0.75 559.613C-0.25 560.016 -0.25 560.133 0.75 560.196C1.602 560.25 2 562.184 2 566.275C2 569.575 2.337 572.277 2.75 572.279C3.163 572.281 4.332 574.306 5.349 576.779C6.366 579.252 7.604 581.275 8.099 581.275C8.595 581.275 9 582.219 9 583.374C9 584.528 10.35 586.734 12 588.275C13.65 589.816 15 591.379 15 591.748C15 592.617 17.658 595.275 18.527 595.275C18.896 595.275 20.459 596.625 22 598.275C23.541 599.925 25.536 601.275 26.433 601.275C27.329 601.275 28.322 601.95 28.638 602.775C28.955 603.6 29.841 604.275 30.607 604.275C31.373 604.275 32 604.725 32 605.275C32 605.825 32.9 606.275 34 606.275C35.1 606.275 36 606.725 36 607.275C36 607.825 37.125 608.275 38.5 608.275C39.875 608.275 41 608.725 41 609.275C41 609.825 42.688 610.282 44.75 610.29C47.539 610.302 48.116 610.554 47 611.275C45.751 612.082 45.835 612.261 47.5 612.343C50.657 612.499 53.23 612.996 56.993 614.178C58.915 614.781 62.177 615.275 64.243 615.275C66.31 615.275 68 615.682 68 616.178C68 617.142 103.187 616.927 111.167 615.915C113.734 615.589 117.784 614.643 120.167 613.813C122.55 612.983 125.4 612.288 126.5 612.267C127.6 612.247 129.625 611.351 131 610.275C132.375 609.199 134.738 608.309 136.25 608.297C137.762 608.285 139 607.88 139 607.396C139 606.913 140.35 605.958 142 605.275C143.65 604.592 145 603.637 145 603.154C145 602.67 145.66 602.275 146.467 602.275C147.273 602.275 149.508 600.7 151.433 598.775C153.358 596.85 155.623 595.275 156.467 595.275C157.31 595.275 158 594.793 158 594.204C158 592.819 160.544 590.275 161.929 590.275C162.518 590.275 163.007 589.262 163.015 588.025C163.024 586.696 163.331 586.241 163.765 586.914C164.298 587.74 164.855 587.671 165.789 586.664C166.635 585.753 166.697 585.275 165.968 585.275C165.259 585.275 165.335 584.792 166.179 583.94C166.905 583.206 168.394 581.406 169.487 579.94C170.58 578.474 172.043 577.275 172.737 577.275C173.432 577.275 174 576.15 174 574.775C174 573.4 174.45 572.275 175 572.275C175.55 572.275 176 571.375 176 570.275C176 569.175 176.45 568.275 177 568.275C177.55 568.275 178 567.375 178 566.275C178 565.175 178.338 564.272 178.75 564.269C179.756 564.26 183 558.478 183 556.694C183 555.914 183.45 555.275 184 555.275C184.55 555.275 185 554.375 185 553.275C185 552.175 185.45 551.275 186 551.275C186.55 551.275 187 549.7 187 547.775C187 545.85 187.45 544.275 188 544.275C188.55 544.275 189 543.345 189 542.209C189 541.073 189.529 539.161 190.175 537.959C191.443 535.603 192.849 530.022 193.686 524.025C193.974 521.963 194.613 520.275 195.105 520.275C195.597 520.275 196 517.838 196 514.858C196 511.879 196.433 509.292 196.961 509.108C198.296 508.646 199.028 415.777 199.439 194.59C199.74 32.187 199.602 9.33599 198.31 8.83999C197.499 8.52899 185.623 8.27498 171.918 8.27498H147V221.275ZM888.667 8.94198C888.3 9.30798 888 11.333 888 13.442C888 15.55 887.55 17.275 887 17.275C886.444 17.275 886 19.942 886 23.275C886 26.608 885.556 29.275 885 29.275C884.45 29.275 884 31.075 884 33.275C884 35.475 883.55 37.275 883 37.275C882.45 37.275 882 38.458 882 39.904C882 42.954 876.924 58.614 875.775 59.108C875.349 59.292 875 60.754 875 62.358C875 63.963 874.55 65.275 874 65.275C873.45 65.275 873 66.4 873 67.775C873 69.15 872.648 70.275 872.218 70.275C871.788 70.275 870.839 72.3 870.108 74.775C869.377 77.25 868.466 79.275 868.082 79.275C867.699 79.275 866.551 81.187 865.531 83.525C864.512 85.863 863.391 88 863.041 88.275C862.691 88.55 861.234 90.8 859.803 93.275C858.373 95.75 855.807 99.233 854.101 101.016C852.396 102.798 851 104.711 851 105.266C851 105.821 850.663 106.276 850.25 106.278C849.837 106.279 848.6 107.628 847.5 109.275C846.4 110.922 844.712 112.271 843.75 112.272C842.788 112.274 842 112.95 842 113.775C842 114.6 841.55 115.275 841 115.275C840.45 115.275 838.2 117.075 836 119.275C833.8 121.475 831.362 123.275 830.583 123.275C829.804 123.275 829.017 123.613 828.833 124.025C828.65 124.437 825.575 126.067 822 127.646C818.425 129.226 814.719 130.913 813.764 131.396C812.809 131.88 810.896 132.275 809.514 132.275H807V144.275V156.275H830.809C848.336 156.275 855.04 156.605 856.218 157.525C857.671 158.66 857.874 176.708 858.431 354.275C858.776 464.312 859.45 553.054 859.973 557.275C861.286 567.876 862.161 572.697 862.879 573.275C863.476 573.756 866.932 582.717 867.314 584.775C867.416 585.325 867.725 586 868 586.275C869.506 587.781 873 593.343 873 594.235C873 594.807 873.462 595.275 874.026 595.275C874.591 595.275 877.04 597.188 879.468 599.525C885.345 605.181 886.721 606.275 887.958 606.275C888.531 606.275 889 606.725 889 607.275C889 607.825 889.873 608.275 890.941 608.275C892.009 608.275 893.16 608.725 893.5 609.275C893.84 609.825 895.329 610.282 896.809 610.29C898.914 610.302 899.173 610.517 898 611.275C896.773 612.068 896.886 612.247 898.624 612.26C899.793 612.268 902.568 612.917 904.791 613.701C909.01 615.19 914.379 616.076 924.5 616.954C927.8 617.241 930.831 617.993 931.235 618.625C931.769 619.462 931.974 619.435 931.985 618.525C932.005 616.856 939.664 616.856 940.338 618.525C940.741 619.525 940.858 619.525 940.921 618.525C940.97 617.746 942.509 617.275 945 617.275C947.525 617.275 949.006 617.736 949.015 618.525C949.027 619.458 949.22 619.477 949.778 618.601C950.232 617.886 953.944 617.319 959.262 617.153C964.068 617.002 968 616.542 968 616.129C968 615.717 970.362 615.244 973.25 615.077L978.5 614.775L978.802 609.525C978.986 606.326 978.693 604.275 978.052 604.275C977.474 604.275 977 604.725 977 605.275C977 605.825 974.75 606.275 972 606.275C969.25 606.275 967 606.685 967 607.186C967 608.409 956.841 609.414 944 609.46C932.601 609.501 925 608.585 925 607.17C925 606.678 923.65 606.275 922 606.275C920.35 606.275 919 605.937 919 605.523C919 605.11 916.975 603.697 914.5 602.384C912.025 601.071 910 599.589 910 599.091C910 597.929 905.37 593.275 904.214 593.275C903.732 593.275 902.736 592.15 902 590.775C901.264 589.4 900.288 588.275 899.831 588.275C899.374 588.275 899 587.375 899 586.275C899 585.175 898.55 584.275 898 584.275C897.45 584.275 897 583.375 897 582.275C897 581.175 896.55 580.275 896 580.275C895.45 580.275 895 579.15 895 577.775C895 576.4 894.66 575.275 894.245 575.275C893.434 575.275 891.849 571.015 889.457 562.409C888.284 558.19 888.022 551.883 888.232 532.909L888.5 508.775H897C902.975 508.775 905.943 508.353 906.991 507.355C908.109 506.291 908.171 505.832 907.241 505.522C905.621 504.982 905.628 498.592 907.25 497.937C908.25 497.534 908.25 497.417 907.25 497.354C906.476 497.305 906 495.783 906 493.358C906 491.161 906.549 489.22 907.25 488.937C908.25 488.534 908.25 488.417 907.25 488.354C906.476 488.305 906 486.783 906 484.358C906 482.161 906.549 480.22 907.25 479.937C908.25 479.534 908.25 479.417 907.25 479.354C906.476 479.305 906 477.783 906 475.358C906 473.161 906.549 471.22 907.25 470.937C908.25 470.534 908.25 470.417 907.25 470.354C906.509 470.307 906 468.883 906 466.858C906 464.979 906.563 463.215 907.25 462.937C908.25 462.534 908.25 462.417 907.25 462.354C905.777 462.261 905.533 458.275 907 458.275C908.451 458.275 908.229 453.534 906.75 452.937C905.75 452.534 905.75 452.417 906.75 452.354C907.744 452.291 908 422.088 908 304.882C908 171.401 908.149 157.432 909.582 156.882C910.452 156.548 932.952 156.275 959.582 156.275H1008V145.857C1008 140.127 1007.73 134.727 1007.39 133.857C1006.85 132.444 1001.51 132.275 957.393 132.275H908V70.882C908 15.822 907.837 9.42599 906.418 8.88199C904.272 8.05899 889.5 8.10798 888.667 8.94198ZM1048.25 25.771C1047.31 26.843 1047 34.923 1047 58.733V90.275H1052.5C1055.53 90.275 1058 89.825 1058 89.275C1058 88.725 1058.62 88.275 1059.38 88.275C1061.39 88.275 1061.85 85.453 1061.66 74.235C1061.52 65.755 1061.75 64.171 1063.15 63.728C1065.6 62.95 1072.84 66.183 1073.53 68.368C1073.86 69.417 1074.55 70.275 1075.07 70.275C1075.58 70.275 1076 70.95 1076 71.775C1076 72.6 1076.45 73.275 1077 73.275C1077.55 73.275 1078 74.076 1078 75.054C1078 76.033 1078.9 77.482 1080 78.275C1081.1 79.068 1082 80.073 1082 80.51C1082 82.125 1086.54 88.251 1087.75 88.263C1088.44 88.269 1089.01 88.838 1089.02 89.525C1089.03 90.358 1089.35 90.275 1090 89.275C1090.65 88.275 1090.97 88.192 1090.98 89.025C1091.01 91.001 1100.76 90.654 1102.81 88.605C1104.03 87.391 1104.14 86.823 1103.24 86.522C1102.56 86.294 1102 85.471 1102 84.692C1102 83.912 1101.55 83.275 1101 83.275C1100.45 83.275 1100 82.375 1100 81.275C1100 80.175 1099.55 79.275 1099 79.275C1098.45 79.275 1098 78.815 1098 78.254C1098 76.548 1092.73 68.966 1089.29 65.726C1086.09 62.716 1086.07 62.656 1088.04 60.976C1089.13 60.041 1090.47 59.275 1091.03 59.275C1092.83 59.275 1097.94 52.831 1097.97 50.525C1097.99 49.287 1098.45 48.275 1099 48.275C1100.78 48.275 1100.06 40.308 1097.88 35.985C1095.41 31.096 1092.73 28.275 1090.54 28.275C1089.69 28.275 1089 27.825 1089 27.275C1089 26.725 1086.97 26.275 1084.5 26.275C1082.03 26.275 1080 25.825 1080 25.275C1080 24.65 1074.27 24.289 1064.75 24.313C1052.87 24.343 1049.22 24.665 1048.25 25.771ZM1062.6 39.025C1061.75 41.818 1061.55 49.156 1062.3 49.907C1063.66 51.266 1081.06 50.358 1082.57 48.85C1084.69 46.729 1084.31 43.135 1081.63 40.025C1079.42 37.448 1078.76 37.275 1071.2 37.275C1064.39 37.275 1063.05 37.547 1062.6 39.025ZM1017.76 223.422C1016.16 224.413 1016.45 233.56 1018.11 234.385C1018.87 234.766 1022.2 235.853 1025.5 236.801C1028.8 237.748 1032.28 238.918 1033.24 239.399C1034.19 239.881 1035.91 240.275 1037.05 240.275C1038.19 240.275 1038.84 240.725 1038.5 241.275C1038.15 241.842 1038.99 242.275 1040.44 242.275C1041.85 242.275 1043 242.725 1043 243.275C1043 243.825 1043.9 244.275 1045 244.275C1046.1 244.275 1047 244.725 1047 245.275C1047 245.825 1047.6 246.275 1048.34 246.275C1049.08 246.275 1052.21 248.713 1055.28 251.692C1061.02 257.246 1065 263.618 1065 267.235C1065 268.357 1065.45 269.275 1066 269.275C1066.64 269.275 1067 279.906 1067 299.168C1067 325.504 1066.81 329.133 1065.42 329.668C1064.55 330.002 1060.61 330.282 1056.67 330.29C1052.73 330.299 1048.82 330.742 1048 331.275C1047 331.921 1046.92 332.249 1047.75 332.26C1048.46 332.268 1049 333.533 1049 335.192C1049 336.796 1048.44 338.335 1047.75 338.613C1046.75 339.016 1046.75 339.133 1047.75 339.196C1048.52 339.245 1049 340.767 1049 343.192C1049 345.389 1048.45 347.33 1047.75 347.613C1046.75 348.016 1046.75 348.133 1047.75 348.196C1049.36 348.298 1049.61 570.275 1048 570.275C1047.45 570.275 1047 571.823 1047 573.716C1047 575.609 1046.55 577.435 1046 577.775C1045.45 578.115 1045 579.266 1045 580.334C1045 581.402 1044.63 582.275 1044.17 582.275C1043.71 582.275 1042.7 583.475 1041.92 584.941C1040 588.539 1035.18 593.275 1033.42 593.275C1032.64 593.275 1032 593.725 1032 594.275C1032 594.825 1031.1 595.275 1030 595.275C1028.9 595.275 1028 595.725 1028 596.275C1028 596.825 1026.88 597.275 1025.5 597.275C1024.12 597.275 1023 597.632 1023 598.068C1023 599.206 1014.36 601.564 1008.52 602.021C1003.41 602.42 1001.53 603.201 1003.75 603.995C1005.27 604.538 1005.44 611.275 1003.93 611.275C1003.34 611.275 1003.57 611.99 1004.44 612.863C1005.87 614.284 1012.94 614.436 1071.77 614.313C1107.92 614.238 1138.53 614.195 1139.8 614.218C1141.98 614.258 1142.08 613.954 1141.8 608.143L1141.5 602.026L1137 601.711C1131.09 601.298 1122 599.095 1122 598.078C1122 597.636 1121.1 597.275 1120 597.275C1118.9 597.275 1118 596.874 1118 596.383C1118 595.893 1116.92 595.22 1115.59 594.888C1112.24 594.046 1102 583.826 1102 581.319C1102 580.195 1101.55 579.275 1101 579.275C1100.45 579.275 1100 577.963 1100 576.358C1100 574.754 1099.44 573.254 1098.75 573.025C1097.76 572.693 1097.57 547.742 1097.86 451.441L1098.22 330.275H1089.11H1080V298.275C1080 277.608 1080.35 266.275 1081 266.275C1081.55 266.275 1082 265.527 1082 264.613C1082 262.836 1086.5 254.646 1088.69 252.454C1089.78 251.358 1090.01 251.358 1090.07 252.454C1090.1 253.18 1090.59 252.828 1091.16 251.67C1091.72 250.513 1093.97 248.488 1096.16 247.17C1098.35 245.853 1100.75 244.213 1101.5 243.525C1102.25 242.838 1103.79 242.275 1104.93 242.275C1106.07 242.275 1107 241.825 1107 241.275C1107 240.725 1108.35 240.275 1110 240.275C1111.65 240.275 1113 239.9 1113 239.442C1113 238.984 1116.49 237.758 1120.75 236.718C1125.01 235.677 1128.83 234.364 1129.23 233.8C1130.38 232.207 1130.13 224.473 1128.91 223.721C1127.51 222.855 1019.15 222.564 1017.76 223.422ZM358.015 230.025C358.005 230.836 356.435 231.275 353.547 231.275C351.098 231.275 348.06 231.674 346.797 232.162C345.534 232.65 340.45 234.318 335.5 235.87C330.55 237.421 326.35 239.047 326.167 239.483C325.983 239.918 324.971 240.275 323.917 240.275C322.863 240.275 322 240.633 322 241.07C322 241.507 320.047 242.67 317.66 243.655C315.272 244.639 312.698 246.307 311.939 247.36C311.18 248.413 309.983 249.275 309.279 249.275C308.576 249.275 308 249.725 308 250.275C308 250.825 307.325 251.275 306.5 251.275C304.839 251.275 293 262.683 293 264.284C293 264.839 291.722 266.63 290.161 268.264C288.599 269.898 286.506 273.044 285.509 275.255C284.512 277.466 283.315 279.275 282.848 279.275C282.382 279.275 282 280.625 282 282.275C282 283.925 281.64 285.275 281.199 285.275C280.758 285.275 279.821 288.537 279.116 292.525C277.278 302.916 278.622 324.275 281.113 324.275C281.601 324.275 282 324.969 282 325.817C282 326.665 282.434 327.903 282.965 328.567C287.859 334.691 290.422 337.275 291.604 337.275C292.372 337.275 293 337.725 293 338.275C293 338.868 296.686 339.275 302.059 339.275C307.844 339.275 310.895 338.914 310.5 338.275C310.16 337.725 310.584 337.275 311.441 337.275C312.298 337.275 313 336.75 313 336.108C313 335.467 313.288 335.23 313.641 335.583C314.59 336.531 319.813 330.273 321.199 326.525C321.861 324.737 322.761 323.275 323.201 323.275C323.64 323.275 324 321.925 324 320.275C324 318.625 324.45 317.275 325 317.275C325.588 317.275 326 313.775 326 308.775C326 303.775 325.588 300.275 325 300.275C324.45 300.275 324 299.15 324 297.775C324 296.4 323.556 295.275 323.013 295.275C321.745 295.275 317 287.794 317 285.795C317 284.959 316.55 284.275 316 284.275C315.45 284.275 315 282.25 315 279.775C315 277.3 315.45 275.275 316 275.275C316.55 275.275 317 273.925 317 272.275C317 270.625 317.36 269.275 317.799 269.275C318.239 269.275 319.168 267.7 319.864 265.775C320.56 263.85 321.582 262.275 322.136 262.275C323.285 262.275 326 259.772 326 258.713C326 257.395 331.492 253.277 333.25 253.276C334.212 253.276 335 252.825 335 252.275C335 251.725 335.863 251.275 336.917 251.275C337.971 251.275 338.983 250.938 339.167 250.525C339.735 249.246 346.94 246.275 349.475 246.275C350.799 246.275 352.16 245.825 352.5 245.275C353.279 244.014 391.985 243.917 395.203 245.168C396.466 245.659 400.313 246.897 403.75 247.918C407.188 248.939 410 250.112 410 250.525C410 250.937 410.9 251.275 412 251.275C413.1 251.275 414 251.725 414 252.275C414 252.825 414.675 253.275 415.5 253.275C416.325 253.275 417 253.725 417 254.275C417 254.825 417.432 255.275 417.96 255.275C420.895 255.275 432 269.495 432 273.254C432 274.365 432.45 275.275 433 275.275C433.55 275.275 434 276.1 434 277.108C434 278.117 434.308 279.25 434.685 279.627C435.062 280.004 436.05 281.991 436.881 284.044C438.158 287.2 438.445 297.488 438.744 350.761C438.939 385.403 438.843 414.765 438.53 416.011C438.179 417.41 437.205 418.275 435.981 418.275C434.447 418.275 434 417.599 434 415.275C434 413.625 433.55 412.275 433 412.275C432.45 412.275 432 411.402 432 410.334C432 409.266 431.55 408.115 431 407.775C430.45 407.435 430 406.476 430 405.645C430 404.813 429.438 403.505 428.75 402.738C425.639 399.27 425 398.26 425 396.817C425 395.969 424.55 395.275 424 395.275C423.45 395.275 423 394.6 423 393.775C423 392.95 422.55 392.275 422 392.275C421.45 392.275 421 391.375 421 390.275C421 389.175 420.647 388.275 420.216 388.275C419.784 388.275 418.696 387.03 417.797 385.508C416.898 383.987 414.776 381.291 413.081 379.518C411.387 377.744 410 376.032 410 375.713C410 374.939 407.307 372.275 406.526 372.275C405.638 372.275 401.005 367.516 400.973 366.57C400.958 366.133 399.158 364.672 396.973 363.324C394.788 361.976 393 360.513 393 360.074C393 359.635 392.363 359.275 391.583 359.275C390.804 359.275 390.017 358.9 389.833 358.442C389.321 357.16 376.523 350.275 374.654 350.275C373.744 350.275 373 349.825 373 349.275C373 348.725 371.875 348.275 370.5 348.275C369.125 348.275 368 347.874 368 347.384C368 346.895 366.538 346.275 364.75 346.007C362.962 345.739 358.8 344.965 355.5 344.288C348.562 342.863 324.909 343.392 321 345.059C319.625 345.646 316.363 346.707 313.75 347.418C311.137 348.13 309 349.063 309 349.493C309 349.923 307.875 350.275 306.5 350.275C305.125 350.275 304 350.676 304 351.166C304 351.657 302.313 352.742 300.25 353.578C298.188 354.414 295.506 356.038 294.292 357.186C293.077 358.335 291.594 359.275 290.996 359.275C290.398 359.275 288.872 360.288 287.604 361.525C284.388 364.664 279.705 368.275 278.85 368.275C278.457 368.275 277.856 369.152 277.516 370.224C277.176 371.296 276.021 372.451 274.949 372.791C273.877 373.131 273 373.824 273 374.331C273 375.221 272.096 376.434 267.2 382.109C265.935 383.575 264.151 386.013 263.235 387.525C262.318 389.037 261.216 390.275 260.784 390.275C260.353 390.275 260 391.175 260 392.275C260 393.375 259.55 394.275 259 394.275C258.45 394.275 258 394.95 258 395.775C258 396.6 257.618 397.275 257.152 397.275C256.685 397.275 255.492 399.075 254.5 401.275C253.508 403.475 252.315 405.275 251.848 405.275C251.382 405.275 251 406.175 251 407.275C251 408.375 250.55 409.275 250 409.275C249.45 409.275 249 410.4 249 411.775C249 413.15 248.55 414.275 248 414.275C247.45 414.275 247 415.106 247 416.121C247 417.137 246.323 419.325 245.496 420.983C244.668 422.642 243.594 426.125 243.108 428.724C242.623 431.323 241.725 433.95 241.113 434.562C240.501 435.174 240 437.385 240 439.475C240 441.565 239.55 443.275 239 443.275C238.45 443.275 238 445.525 238 448.275C238 451.025 237.55 453.275 237 453.275C236.358 453.275 236 462.942 236 480.275C236 497.608 236.358 507.275 237 507.275C237.55 507.275 238 509.75 238 512.775C238 515.8 238.45 518.275 239 518.275C239.55 518.275 240 519.227 240 520.391C240 521.554 240.723 524.817 241.607 527.641C244.381 536.504 245 538.867 245 540.596C245 541.519 245.45 542.275 246 542.275C246.55 542.275 247 543.175 247 544.275C247 545.375 247.45 546.275 248 546.275C248.55 546.275 249 547.85 249 549.775C249 551.7 249.45 553.275 250 553.275C250.55 553.275 251 554.175 251 555.275C251 556.375 251.348 557.275 251.773 557.275C252.198 557.275 253.393 558.85 254.43 560.775C255.467 562.7 256.694 564.275 257.157 564.275C257.621 564.275 258 565.175 258 566.275C258 567.375 258.45 568.275 259 568.275C259.55 568.275 260 568.842 260 569.535C260 570.228 261.143 572.028 262.54 573.535C263.938 575.042 264.815 576.275 264.489 576.275C264.163 576.275 265.045 577.339 266.448 578.64C267.852 579.94 269.001 581.403 269.001 581.89C269.003 583.128 273.54 588.275 274.629 588.275C275.122 588.275 276.392 589.429 277.45 590.838C280.95 595.499 282.721 597.275 283.867 597.275C284.49 597.275 285 597.725 285 598.275C285 598.825 285.675 599.275 286.5 599.275C287.325 599.275 288 599.725 288 600.275C288 600.825 288.469 601.275 289.042 601.275C290.132 601.275 291.491 602.274 295.503 606.025C296.826 607.262 298.583 608.275 299.407 608.275C301.511 608.275 306 610.427 306 611.436C306 611.897 307.039 612.275 308.309 612.275C309.579 612.275 311.491 612.936 312.559 613.743C313.626 614.551 315.936 615.226 317.691 615.243C319.446 615.261 321.16 615.725 321.5 616.275C321.84 616.825 324.341 617.275 327.059 617.275C329.777 617.275 332 617.725 332 618.275C332 618.871 335.833 619.275 341.5 619.275C346.725 619.275 351 618.87 351 618.376C351 617.881 352.913 617.239 355.25 616.948C365.35 615.693 374.725 612.811 378.096 609.925C379.156 609.017 380.918 608.275 382.011 608.275C383.105 608.275 384 607.825 384 607.275C384 606.725 384.563 606.274 385.25 606.274C385.938 606.273 387.807 605.148 389.406 603.774C391.004 602.399 392.736 601.275 393.254 601.275C393.773 601.275 395.459 599.925 397 598.275C398.541 596.625 400.522 595.275 401.401 595.275C402.281 595.275 403 594.805 403 594.23C403 593.655 404.125 592.059 405.5 590.684C406.875 589.309 408 587.755 408 587.23C408 586.705 408.9 586.275 410 586.275C411.333 586.275 412 585.608 412 584.275C412 583.175 412.45 582.275 413 582.275C413.55 582.275 414 581.805 414 581.23C414 580.655 415.012 579.101 416.25 577.778C419.64 574.152 421 572.425 421 571.746C421 571.408 421.679 570.453 422.509 569.623C423.339 568.793 423.763 567.7 423.45 567.194C423.138 566.689 423.359 566.275 423.941 566.275C424.523 566.275 425 565.375 425 564.275C425 563.175 425.337 562.275 425.75 562.274C426.81 562.273 432 552.81 432 550.878C432 549.996 432.45 549.275 433 549.275C433.55 549.275 434 548.12 434 546.709C434 544.499 434.382 544.186 436.75 544.459C439.822 544.812 439.538 543.503 440.61 562.275C440.94 568.05 441.613 572.925 442.105 573.108C442.597 573.292 443 575.204 443 577.358C443 579.512 443.45 581.275 444 581.275C444.55 581.275 445 582.4 445 583.775C445 585.15 445.399 586.275 445.887 586.275C446.374 586.275 446.982 587.512 447.237 589.025C448.028 593.708 448.442 594.722 450.25 596.392C451.212 597.282 452 598.744 452 599.642C452 600.54 452.45 601.275 453 601.275C453.55 601.275 454 601.745 454 602.32C454 603.472 458.507 608.275 459.587 608.275C459.96 608.275 461.094 609.23 462.106 610.398C464.084 612.678 472.481 617.275 474.669 617.275C475.401 617.275 476 617.725 476 618.275C476 618.825 478.587 619.32 481.75 619.375C486.138 619.451 486.908 619.664 485 620.275C483.309 620.816 485.333 621.108 491.25 621.175C496.483 621.235 500 620.873 500 620.275C500 619.725 501.538 619.275 503.417 619.275C505.296 619.275 507.06 618.712 507.338 618.025C507.731 617.051 507.86 617.059 507.921 618.064C507.973 618.913 508.747 618.657 510.189 617.314C511.392 616.193 513.18 615.275 514.162 615.275C515.144 615.275 517.972 613.25 520.447 610.775C522.922 608.3 525.333 606.275 525.805 606.275C526.276 606.275 527.264 605.15 528 603.775C528.736 602.4 529.712 601.275 530.169 601.275C530.626 601.275 531 599.925 531 598.275C531 596.625 531.344 595.275 531.764 595.275C532.901 595.275 536.161 587.418 537.158 582.275C537.638 579.8 538.473 577.625 539.015 577.442C539.557 577.258 540 573.325 540 568.692C540 563.747 540.413 560.275 541 560.275C541.55 560.275 542 558.298 542 555.882C542 551.041 541.112 550.275 535.5 550.275C529.366 550.275 529 550.759 529 558.882C529 563.144 528.576 566.275 528 566.275C527.45 566.275 527 567.598 527 569.216C527 570.834 526.55 572.435 526 572.775C525.45 573.115 525 574.716 525 576.334C525 577.952 524.55 579.275 524 579.275C523.45 579.275 523 579.893 523 580.649C523 581.405 521.425 583.743 519.5 585.845C517.575 587.946 516 590.028 516 590.47C516 590.913 515.325 591.275 514.5 591.275C513.675 591.275 513 591.725 513 592.275C513 592.839 510.167 593.275 506.5 593.275C501.28 593.275 500 592.968 500 591.716C500 590.859 499.55 590.435 499 590.775C498.45 591.115 498 590.691 498 589.834C498 588.977 497.601 588.275 497.114 588.275C495.966 588.275 493.022 582.062 492.494 578.523C492.269 577.012 491.527 573.3 490.845 570.275C489.902 566.088 489.553 534.353 489.383 437.302C489.225 347.122 488.843 309.723 488.08 309.468C487.486 309.27 487 307.121 487 304.692C487 302.263 486.55 300.275 486 300.275C485.45 300.275 485 299.399 485 298.328C485 297.257 483.875 294.265 482.5 291.679C481.125 289.093 480 286.369 480 285.626C480 284.883 479.55 284.275 479 284.275C478.45 284.275 478 283.6 478 282.775C478 281.95 477.55 281.275 477 281.275C476.45 281.275 476 280.375 476 279.275C476 278.175 475.55 277.275 475 277.275C474.45 277.275 474 276.58 474 275.73C474 274.88 472.988 273.146 471.75 271.877C468.683 268.731 465 264.35 465 263.847C465 263.15 452.884 251.275 452.17 251.273C451.802 251.271 449.925 249.919 448 248.268C446.075 246.616 443.712 245.012 442.75 244.703C441.788 244.393 441 243.721 441 243.208C441 242.695 440.325 242.275 439.5 242.275C438.675 242.275 438 241.825 438 241.275C438 240.725 437.1 240.275 436 240.275C434.9 240.275 434 239.825 434 239.275C434 238.725 433.1 238.275 432 238.275C430.9 238.275 430 237.825 430 237.275C430 236.725 428.988 236.259 427.75 236.24C426.512 236.22 424.375 235.561 423 234.775C421.625 233.989 419.289 233.33 417.809 233.31C416.329 233.291 414.84 232.825 414.5 232.275C414.16 231.725 411.434 231.275 408.441 231.275C404.763 231.275 402.995 230.87 402.985 230.025C402.974 229.192 402.646 229.275 402 230.275C401.354 231.275 401.026 231.358 401.015 230.525C401.004 229.567 396.342 229.275 381.083 229.275C366.087 229.275 361.041 229.584 360.659 230.525C360.278 231.466 359.89 231.404 359.091 230.275C358.372 229.258 358.026 229.178 358.015 230.025ZM620 230.275C620 230.825 618.949 231.275 617.665 231.275C616.381 231.275 612.094 232.85 608.139 234.775C604.183 236.7 600.369 238.275 599.661 238.275C598.954 238.275 596.604 239.13 594.438 240.175C592.272 241.22 588.131 242.849 585.235 243.795C582.339 244.741 579.725 245.911 579.426 246.395C579.127 246.879 578.009 247.275 576.941 247.275C575.873 247.275 575 247.725 575 248.275C575 248.825 573.65 249.275 572 249.275C570.35 249.275 569 249.725 569 250.275C569 250.825 567.875 251.275 566.5 251.275C565.125 251.275 564 251.725 564 252.275C564 252.825 563.297 253.275 562.437 253.275C561.099 253.275 553.586 256.404 547.764 259.386C546.809 259.875 545.121 260.275 544.014 260.275C542.906 260.275 542 260.725 542 261.275C542 261.825 540.983 262.275 539.741 262.275C536.547 262.275 534.821 265.309 536.617 267.766C537.378 268.806 538 270.471 538 271.466C538 272.608 538.737 273.275 540 273.275C541.1 273.275 542 272.876 542 272.388C542 270.009 563.423 268.409 568.022 270.445C569.66 271.17 571 272.103 571 272.519C571 272.935 571.9 273.275 573 273.275C574.333 273.275 575 273.942 575 275.275C575 276.375 575.389 277.275 575.864 277.275C576.339 277.275 577.491 279.412 578.424 282.025C579.356 284.638 580.542 287.556 581.06 288.511C581.577 289.466 582 295.429 582 301.761C582 308.77 582.391 313.275 583 313.275C584.464 313.275 584.231 321.015 582.75 321.613C581.75 322.016 581.75 322.133 582.75 322.196C583.74 322.259 584 341.597 584 415.342C584 507.955 584.01 508.407 586 507.775C587.1 507.426 587.999 507.508 587.999 507.958C587.998 508.407 590.471 508.693 593.494 508.592C597.091 508.472 599.476 508.894 600.395 509.813C602.281 511.699 602.554 567.266 600.677 567.29C599.909 567.3 599.971 567.604 600.857 568.165C601.803 568.765 601.878 569.232 601.107 569.709C600.498 570.085 600 571.29 600 572.387C600 573.484 598.875 576.037 597.5 578.06C596.125 580.084 595 582.105 595 582.553C595 583.678 590.303 588.275 589.152 588.275C588.636 588.275 587.955 588.95 587.638 589.775C587.322 590.6 586.374 591.275 585.531 591.275C584.689 591.275 584 591.696 584 592.21C584 592.725 582.425 593.715 580.5 594.411C578.575 595.107 577 596.036 577 596.476C577 596.915 576.1 597.275 575 597.275C573.9 597.275 573 597.725 573 598.275C573 598.825 572.2 599.275 571.223 599.275C570.245 599.275 568.557 599.873 567.473 600.604C566.388 601.335 562.237 602.532 558.25 603.264L551 604.596V608.876C551 611.231 551.462 613.443 552.027 613.792C552.592 614.141 577.102 614.44 606.493 614.456C654.247 614.483 660.103 614.315 661.537 612.88C662.564 611.854 662.71 611.275 661.941 611.275C661.138 611.275 660.917 610.174 661.276 607.961L661.814 604.646L655.657 603.256C652.271 602.492 648.879 601.764 648.119 601.64C647.36 601.515 646.257 600.932 645.669 600.344C645.081 599.756 643.79 599.275 642.8 599.275C641.81 599.275 641 598.825 641 598.275C641 597.725 640.1 597.275 639 597.275C637.9 597.275 637 596.825 637 596.275C637 595.725 636.1 595.275 635 595.275C633.9 595.275 633 594.825 633 594.275C633 593.725 632.531 593.275 631.958 593.275C630.83 593.275 630.47 593.007 624.555 587.769C622.385 585.847 620.247 584.275 619.805 584.275C619.362 584.275 619 583.375 619 582.275C619 581.175 618.55 580.275 618 580.275C617.45 580.275 617 579.6 617 578.775C617 577.95 616.55 577.275 616 577.275C615.45 577.275 615 575.925 615 574.275C615 572.625 614.55 571.275 614 571.275C613.355 571.275 613 560.297 613 540.342C613 504.88 611.818 508.357 623.869 508.365C627.923 508.368 631.354 508.236 631.495 508.072C631.636 507.909 632.075 462.566 632.47 407.311C633.164 310.222 633.252 306.791 635.094 305.194C636.142 304.284 637 303.241 637 302.874C637 302.058 643.706 295.275 644.512 295.275C644.83 295.275 646.129 294.263 647.398 293.025C651.003 289.511 654.954 286.275 655.64 286.275C655.984 286.275 656.993 285.451 657.883 284.444C658.772 283.437 661.75 281.316 664.5 279.731C667.25 278.146 669.65 276.495 669.833 276.062C670.017 275.629 671.029 275.275 672.083 275.275C673.138 275.275 674 274.825 674 274.275C674 273.725 675.125 273.275 676.5 273.275C677.875 273.275 679 272.825 679 272.275C679 271.725 679.9 271.275 681 271.275C682.1 271.275 683 270.876 683 270.388C683 269.901 684.237 269.263 685.75 268.971C687.263 268.679 690.3 267.963 692.5 267.381C699.174 265.615 717.738 265.998 723.5 268.02C726.25 268.985 728.65 270.112 728.833 270.525C729.017 270.938 729.804 271.275 730.583 271.275C731.362 271.275 732 271.725 732 272.275C732 272.825 732.71 273.275 733.578 273.275C735.371 273.275 742.933 281.122 742.973 283.025C742.988 283.713 743.45 284.275 744 284.275C744.55 284.275 745 284.936 745 285.745C745 286.553 745.894 288.806 746.987 290.752C748.08 292.698 748.95 294.52 748.922 294.801C748.893 295.083 749.574 297.736 750.435 300.698C751.296 303.66 752 307.506 752 309.245C752 310.984 752.399 313.164 752.887 314.091C753.378 315.023 753.937 358.543 754.137 411.537C754.477 501.351 754.608 507.332 756.235 507.849C757.189 508.152 760.808 508.4 764.277 508.4C767.746 508.4 771.182 508.77 771.914 509.222C772.962 509.869 773.27 515.832 773.371 537.409C773.491 562.907 772.795 574.066 771.008 575.275C770.602 575.55 769.954 576.788 769.567 578.025C769.181 579.262 768.446 580.275 767.933 580.275C767.42 580.275 767 580.999 767 581.883C767 584.21 758.221 591.958 753.254 594.016C750.918 594.983 749.006 596.112 749.004 596.525C749.002 596.938 748.1 597.275 747 597.275C745.9 597.275 745 597.615 745 598.03C745 599.037 739.126 601.036 730.25 603.048L723 604.692V609.484C723 614.032 723.139 614.277 725.75 614.323C727.263 614.35 752.463 614.462 781.75 614.573L835 614.775V609.634C835 604.615 834.923 604.481 831.75 603.94C821.578 602.206 818.546 601.414 818.209 600.402C818.002 599.782 816.746 599.275 815.417 599.275C814.087 599.275 813 598.825 813 598.275C813 597.725 812.1 597.275 811 597.275C809.9 597.275 809 596.825 809 596.275C809 595.725 808.273 595.275 807.384 595.275C805.631 595.275 796 588.578 796 587.359C796 586.949 794.875 586.011 793.5 585.275C792.125 584.539 791 583.113 791 582.106C791 581.099 790.55 580.275 790 580.275C789.45 580.275 789 579.15 789 577.775C789 576.4 788.55 575.275 788 575.275C787.45 575.275 787 574.177 787 572.834C787 571.491 786.55 570.115 786 569.775C785.369 569.385 785 558.12 785 539.283C785 505.397 784.141 508.332 794.016 508.477C797.05 508.522 800.547 508.236 801.786 507.843L804.04 507.128L803.611 412.951C803.184 319.123 802.695 298.075 800.93 297.442C800.418 297.258 800 294.671 800 291.692C800 288.713 799.55 286.275 799 286.275C798.45 286.275 798 285.144 798 283.761C798 282.379 797.582 280.466 797.071 279.511C796.56 278.556 795.323 275.639 794.321 273.029C793.32 270.418 792.163 268.281 791.75 268.279C791.337 268.277 791 267.375 791 266.275C791 265.175 790.55 264.275 790 264.275C789.45 264.275 789 263.568 789 262.704C789 261.839 788.438 260.564 787.75 259.869C787.063 259.174 785.6 257.334 784.5 255.781C781.157 251.06 769.993 240.275 768.449 240.275C767.652 240.275 767 239.893 767 239.425C767 238.958 763.962 237.347 760.25 235.845C756.538 234.344 752.719 232.702 751.764 232.195C750.809 231.689 747.321 231.275 744.014 231.275C740.671 231.275 738 230.831 738 230.275C738 229.697 734.833 229.275 730.5 229.275C726.167 229.275 723 229.697 723 230.275C723 230.825 720.519 231.275 717.486 231.275C714.454 231.275 711.191 231.672 710.236 232.158C709.281 232.644 707.375 233.482 706 234.02C704.625 234.558 701.797 235.735 699.716 236.636C697.635 237.538 695.272 238.275 694.466 238.275C693.66 238.275 693 238.725 693 239.275C693 239.825 692.325 240.275 691.5 240.275C690.675 240.275 690 240.725 690 241.275C690 241.825 689.1 242.275 688 242.275C686.9 242.275 686 242.725 686 243.275C686 243.825 685.433 244.275 684.74 244.275C684.047 244.275 682.359 245.287 680.99 246.525C679.62 247.763 677.263 249.414 675.75 250.194C674.237 250.974 673 251.987 673 252.444C673 252.901 672.53 253.275 671.955 253.275C671.38 253.275 669.871 254.287 668.602 255.525C665.116 258.924 661.054 262.275 660.421 262.275C659.739 262.275 657 264.94 657 265.604C657 266.469 649.813 273.275 648.9 273.275C648.405 273.275 648 273.737 648 274.302C648 275.264 644.401 279.617 639.25 284.884C638.013 286.149 637 287.655 637 288.23C637 288.805 636.1 289.275 635 289.275C633.047 289.275 633 288.608 633 260.857C633 245.227 632.727 231.727 632.393 230.857C631.935 229.662 630.344 229.275 625.893 229.275C622.631 229.275 620 229.721 620 230.275ZM326.18 359.783C324.269 361.981 324 363.462 324 371.783V381.275H320.941C319.156 381.275 318.139 381.692 318.5 382.275C318.84 382.825 318.191 383.275 317.059 383.275C315.927 383.275 315 383.725 315 384.275C315 384.825 314.148 385.275 313.107 385.275C312.066 385.275 310.955 385.95 310.638 386.775C310.322 387.6 309.462 388.275 308.727 388.275C307.992 388.275 305.794 389.737 303.842 391.525C301.891 393.313 299.103 395.669 297.647 396.762C296.191 397.855 295 399.137 295 399.611C295 400.085 293.713 401.675 292.14 403.144C290.568 404.613 288.962 406.819 288.573 408.045C288.184 409.272 287.5 410.275 287.054 410.275C286.608 410.275 285.683 411.625 285 413.275C284.317 414.925 283.362 416.275 282.879 416.275C282.395 416.275 282 417.625 282 419.275C282 420.925 281.55 422.275 281 422.275C280.45 422.275 280 423.4 280 424.775C280 426.15 279.586 427.275 279.079 427.275C278.573 427.275 277.864 428.62 277.503 430.264C277.142 431.907 276.431 433.509 275.923 433.823C275.415 434.136 275 435.941 275 437.834C275 439.727 274.55 441.275 274 441.275C273.45 441.275 273 443.525 273 446.275C273 449.025 272.55 451.275 272 451.275C271.4 451.275 271 455.275 271 461.275C271 467.275 270.6 471.275 270 471.275C269.384 471.275 269 476.295 269 484.334C269 492.785 269.353 497.175 270 496.775C270.64 496.379 271 499.598 271 505.716C271 511.422 271.403 515.275 272 515.275C272.55 515.275 273 517.306 273 519.789C273 522.271 273.413 525.084 273.917 526.039C274.421 526.994 275.588 530.362 276.509 533.523C277.431 536.685 278.593 539.524 279.092 539.832C279.592 540.141 280 541.266 280 542.334C280 543.402 280.45 544.275 281 544.275C281.55 544.275 282 545.4 282 546.775C282 548.15 282.45 549.275 283 549.275C283.55 549.275 284 550.175 284 551.275C284 552.375 284.337 553.278 284.75 553.282C285.163 553.286 286.598 554.9 287.939 556.87C289.281 558.839 292.313 562.549 294.678 565.113C297.044 567.677 298.983 570.112 298.989 570.525C298.995 570.938 299.51 571.275 300.133 571.275C300.756 571.275 302 572.063 302.897 573.025C305.687 576.018 316.895 582.275 319.467 582.275C320.31 582.275 321 582.725 321 583.275C321 583.825 321.675 584.275 322.5 584.275C323.742 584.275 324 586.164 324 595.275V606.275H329.5C332.525 606.275 335 606.725 335 607.275C335 608.73 340.741 608.503 341.338 607.025C341.741 606.025 341.858 606.025 341.921 607.025C342.014 608.498 346 608.742 346 607.275C346 606.725 348.475 606.275 351.5 606.275C354.525 606.275 357 605.825 357 605.275C357 604.725 357.778 604.275 358.729 604.275C361.345 604.275 374 599.231 374 598.188C374 597.686 374.675 597.275 375.5 597.275C376.325 597.275 377 596.825 377 596.275C377 595.725 377.9 595.275 379 595.275C380.1 595.275 381 594.825 381 594.275C381 593.725 381.482 593.275 382.071 593.275C382.661 593.275 383.758 592.713 384.509 592.025C385.26 591.338 387.523 589.425 389.537 587.775C395.801 582.643 401 577.478 401 576.387C401 575.812 402.575 573.767 404.5 571.842C406.425 569.917 408 567.877 408 567.308C408 566.74 408.45 566.275 409 566.275C409.55 566.275 410 565.375 410 564.275C410 563.175 410.337 562.271 410.75 562.267C411.163 562.263 411.992 561.25 412.593 560.017C414.569 555.965 417.489 550.786 418.086 550.276C418.409 550 419.295 547.637 420.055 545.025C420.815 542.413 421.788 540.275 422.218 540.275C422.648 540.275 423 539.402 423 538.334C423 537.266 423.45 536.115 424 535.775C424.55 535.435 425 534.149 425 532.916C425 531.683 425.446 530.229 425.991 529.684C427.006 528.669 428.762 521.711 429.69 515.025C429.976 512.963 430.613 511.275 431.105 511.275C431.597 511.275 432 507.9 432 503.775C432 499.442 432.422 496.275 433 496.275C434.563 496.275 434.319 471.57 432.75 470.937C431.75 470.534 431.75 470.417 432.75 470.354C434.223 470.261 434.468 465.275 433 465.275C432.428 465.275 432 462.27 432 458.261C432 454.404 431.603 450.466 431.118 449.511C430.19 447.685 428.054 439.688 427.248 435.025C426.987 433.512 426.374 432.275 425.887 432.275C425.399 432.275 425 430.7 425 428.775C425 426.85 424.55 425.275 424 425.275C423.45 425.275 423 424.15 423 422.775C423 421.4 422.55 420.275 422 420.275C421.45 420.275 421 419.375 421 418.275C421 417.175 420.55 416.275 420 416.275C419.45 416.275 419 415.375 419 414.275C419 413.175 418.55 412.275 418 412.275C417.45 412.275 417 411.584 417 410.74C417 409.392 414.482 404.666 413.022 403.275C412.733 403 411.823 401.425 410.998 399.775C410.174 398.125 409.05 396.228 408.5 395.56C407.95 394.891 406.92 393.654 406.211 392.81C405.501 391.966 405.118 391.275 405.359 391.275C405.6 391.275 401.624 387 396.525 381.775C391.426 376.55 386.747 372.275 386.127 372.275C385.507 372.275 385 371.825 385 371.275C385 370.725 384.325 370.275 383.5 370.275C382.675 370.275 382 369.825 382 369.275C382 368.725 381.325 368.275 380.5 368.275C379.675 368.275 379 367.87 379 367.374C379 366.879 376.977 365.641 374.504 364.624C372.031 363.607 370.006 362.438 370.004 362.025C370.002 361.612 368.875 361.275 367.5 361.275C366.125 361.275 365 360.825 365 360.275C365 359.725 363.452 359.275 361.559 359.275C359.666 359.275 357.84 358.825 357.5 358.275C357.135 357.684 351.05 357.275 342.621 357.275C328.645 357.275 328.317 357.325 326.18 359.783Z" fill="white"/>
</svg>
